<?xml version="1.0" encoding="UTF-8"?>
<svg width="22px" height="28px" viewBox="0 0 22 28" version="1.1" xmlns="http://www.w3.org/2000/svg" xmlns:xlink="http://www.w3.org/1999/xlink">
    <!-- Generator: Sketch 52.3 (67297) - http://www.bohemiancoding.com/sketch -->
    <title>Group 6 Copy</title>
    <desc>Created with Sketch.</desc>
    <defs>
        <polygon id="path-1" points="4.92822597e-05 0.154 21.8802961 0.154 21.8802961 27.5 4.92822597e-05 27.5"></polygon>
    </defs>
    <g id="modificaciones-CAO" stroke="none" stroke-width="1" fill="none" fill-rule="evenodd">
        <g id="menu-desplegable-02" transform="translate(-26.000000, -271.000000)">
            <g id="Group-6-Copy" transform="translate(26.000000, 271.000000)">
                <g id="Group-3" transform="translate(0.000000, 0.346200)">
                    <mask id="mask-2" fill="white">
                        <use xlink:href="#path-1"></use>
                    </mask>
                    <g id="Clip-2"></g>
                    <path d="M19.74705,8.33155 C17.24355,6.18505 14.84155,4.12655 12.36455,2.00355 L12.36455,8.33155 L19.74705,8.33155 Z M10.93755,1.51505 C8.16955,1.51505 5.48005,1.49455 2.79155,1.52805 C1.91505,1.53855 1.43255,2.12755 1.43155,3.01505 C1.42355,10.20555 1.41655,17.39605 1.41205,24.58655 C1.41155,25.62355 1.89005,26.08955 2.93455,26.08955 C8.22555,26.09055 13.51705,26.08955 18.80855,26.08955 C20.06555,26.08955 20.53355,25.62255 20.53405,24.35405 C20.53605,19.68905 20.53505,15.02505 20.53355,10.36005 C20.53355,10.16455 20.51755,9.96805 20.50605,9.70855 L10.93755,9.70855 L10.93755,1.51505 Z M0.07805,13.60605 C0.07805,10.10405 0.12405,6.60105 0.05805,3.10005 C0.02705,1.44655 1.35905,0.13355 2.94905,0.15405 C5.91655,0.19205 8.88455,0.15855 11.85255,0.17605 C12.10105,0.17805 12.40105,0.28355 12.59005,0.44405 C15.58655,2.97705 18.57305,5.52305 21.54455,8.08655 C21.73155,8.24755 21.86455,8.58055 21.86555,8.83355 C21.88355,14.05055 21.88105,19.26705 21.87855,24.48405 C21.87805,26.29555 20.79655,27.47205 18.99755,27.48105 C13.59655,27.50755 8.19555,27.50555 2.79505,27.48105 C1.04305,27.47205 -0.00095,26.24455 5e-05,24.33355 C0.00155,20.75755 5e-05,17.18205 5e-05,13.60605 L0.07805,13.60605 Z" id="Fill-1" fill="#747474" mask="url(#mask-2)"></path>
                </g>
                <path d="M11.6201,20.73145 L11.6201,21.69245 C11.6201,21.80445 11.5276,21.89745 11.4156,21.89745 L10.2911,21.89745 C10.1781,21.89745 10.0866,21.80445 10.0866,21.69245 L10.0866,20.78345 C9.5751,20.75195 9.1561,20.68045 8.7881,20.58895 C8.6861,20.55745 8.5936,20.49595 8.5936,20.38395 L8.5936,19.38195 C8.5936,19.26945 8.6861,19.18745 8.7881,19.18745 L8.8086,19.18745 C9.2276,19.23945 10.2601,19.31045 10.7406,19.31045 C11.4461,19.31045 11.6606,19.06545 11.6606,18.59495 C11.6606,18.29895 11.5176,18.13495 10.9861,17.81845 L9.5751,16.97945 C8.6246,16.41695 8.3591,15.77345 8.3591,15.02745 C8.3591,14.09645 8.7981,13.32995 10.0866,13.10545 L10.0866,12.22545 C10.0866,12.11345 10.1781,12.02145 10.2911,12.02145 L11.4156,12.02145 C11.5276,12.02145 11.6201,12.11345 11.6201,12.22545 L11.6201,13.06445 C12.2231,13.10545 12.8366,13.18645 13.1126,13.25895 C13.2146,13.28895 13.3066,13.35045 13.3066,13.45195 L13.3066,14.46495 C13.3066,14.56745 13.2251,14.64845 13.1226,14.64845 L13.1026,14.64845 C12.4681,14.58795 11.6306,14.53595 10.9351,14.53595 C10.3726,14.53595 10.1481,14.69995 10.1481,15.07795 C10.1481,15.33395 10.2806,15.49695 10.8326,15.79395 L12.1311,16.49895 C13.1841,17.07145 13.5216,17.74595 13.5216,18.57445 C13.5216,19.48445 13.0206,20.44545 11.6201,20.73145" id="Fill-4" fill="#747474"></path>
            </g>
        </g>
    </g>
</svg>