<?xml version="1.0" encoding="UTF-8"?>
<svg width="31px" height="31px" viewBox="0 0 31 31" version="1.1" xmlns="http://www.w3.org/2000/svg" xmlns:xlink="http://www.w3.org/1999/xlink">
    <!-- Generator: Sketch 52.3 (67297) - http://www.bohemiancoding.com/sketch -->
    <title>Group 25</title>
    <desc>Created with Sketch.</desc>
    <g id="Symbols" stroke="none" stroke-width="1" fill="none" fill-rule="evenodd">
        <g id="footer2" transform="translate(-1006.000000, -116.000000)">
            <g id="footer" transform="translate(0.000000, 12.000000)">
                <g id="Group-30-Copy" transform="translate(957.333333, 104.343750)">
                    <g id="Group-25" transform="translate(48.941176, 0.000000)">
                        <polygon id="Rectangle-2" fill="#FFFFFF" points="9.03529412 3.975 21.0823529 3.975 21.0823529 23.85 9.03529412 23.85"></polygon>
                        <path d="M18.2851765,14.9118398 L16.1750588,14.9118398 C16.1750588,18.2508398 16.1750588,22.359375 16.1750588,22.359375 L13.0484706,22.359375 C13.0484706,22.359375 13.0484706,18.2909004 13.0484706,14.9118398 L11.5614118,14.9118398 L11.5614118,12.2808867 L13.0484706,12.2808867 L13.0484706,10.5778477 C13.0484706,9.36019336 13.6329412,7.453125 16.2032941,7.453125 L18.5195294,7.46244141 L18.5195294,10.017 C18.5195294,10.017 17.1115294,10.017 16.8385882,10.017 C16.5647059,10.017 16.1750588,10.1539512 16.1750588,10.7343633 L16.1750588,12.2808867 L18.5590588,12.2808867 L18.2851765,14.9118398 Z M25.4117647,0 L4.70588235,0 C2.10823529,0 0,2.086875 0,4.65820312 L0,25.1542969 C0,27.7274883 2.10823529,29.8125 4.70588235,29.8125 L25.4117647,29.8125 C28.0112941,29.8125 30.1176471,27.7274883 30.1176471,25.1542969 L30.1176471,4.65820312 C30.1176471,2.086875 28.0112941,0 25.4117647,0 Z" id="Fill-547" fill="#35578C"></path>
                    </g>
                </g>
            </g>
        </g>
    </g>
</svg>