<?xml version="1.0" encoding="UTF-8"?>
<svg width="18px" height="19px" viewBox="0 0 18 19" version="1.1" xmlns="http://www.w3.org/2000/svg" xmlns:xlink="http://www.w3.org/1999/xlink">
    <!-- Generator: Sketch 52.3 (67297) - http://www.bohemiancoding.com/sketch -->
    <title>Group 3 Copy</title>
    <desc>Created with Sketch.</desc>
    <g id="modificaciones-CAO" stroke="none" stroke-width="1" fill="none" fill-rule="evenodd">
        <g id="menu-desplegable-02" transform="translate(-286.000000, -657.000000)" fill="#FF4063">
            <g id="Group-54" transform="translate(0.000000, 634.000000)">
                <g id="Group-52" transform="translate(16.000000, 8.000000)">
                    <g id="Group-3-Copy" transform="translate(270.000000, 15.000000)">
                        <rect id="Rectangle-20" x="0" y="0" width="18" height="4" rx="2"></rect>
                        <path d="M2,7 L16,7 C17.1045695,7 18,7.8954305 18,9 L18,9 C18,10.1045695 17.1045695,11 16,11 L2,11 C0.8954305,11 1.3527075e-16,10.1045695 0,9 L0,9 C-1.3527075e-16,7.8954305 0.8954305,7 2,7 Z" id="Rectangle-20-Copy"></path>
                        <path d="M2,15 L16,15 C17.1045695,15 18,15.8954305 18,17 L18,17 C18,18.1045695 17.1045695,19 16,19 L2,19 C0.8954305,19 1.3527075e-16,18.1045695 0,17 L0,17 C-1.3527075e-16,15.8954305 0.8954305,15 2,15 Z" id="Rectangle-20-Copy-2"></path>
                    </g>
                </g>
            </g>
        </g>
    </g>
</svg>