<?xml version="1.0" encoding="UTF-8"?>
<svg width="23px" height="20px" viewBox="0 0 23 20" version="1.1" xmlns="http://www.w3.org/2000/svg" xmlns:xlink="http://www.w3.org/1999/xlink">
    <!-- Generator: Sketch 52.3 (67297) - http://www.bohemiancoding.com/sketch -->
    <title>Group 25</title>
    <desc>Created with Sketch.</desc>
    <g id="Page-1" stroke="none" stroke-width="1" fill="none" fill-rule="evenodd">
        <g id="mobile-cao" transform="translate(-19.000000, -2154.000000)" fill="#FFFFFF">
            <g id="Group-54" transform="translate(0.000000, 2138.000000)">
                <g id="Group-52" transform="translate(16.000000, 8.000000)">
                    <g id="Group-53" transform="translate(0.000000, 8.000000)">
                        <g id="Group-25" transform="translate(3.000000, 0.000000)">
                            <path d="M18.33189,18.3535781 L14.3281283,18.3535781 L14.3281283,11.976847 C14.3281283,11.6031409 14.0243162,11.2987918 13.6517249,11.2987918 L9.13963588,11.2987918 C8.76704464,11.2987918 8.46323247,11.6031409 8.46323247,11.976847 L8.46323247,18.3535781 L4.45901535,18.3535781 L4.45901535,7.02969008 L11.3952249,1.5463858 L18.33189,7.02923379 L18.33189,18.3535781 Z M16.3026797,1.35611054 L17.20364,1.35611054 L17.20364,4.39914592 L16.3026797,3.68595589 L16.3026797,1.35611054 Z M22.7788439,9.04377888 C22.7547029,8.864911 22.6658822,8.71113938 22.532879,8.61303583 L18.5578133,5.46915911 L18.5578133,0.678055268 C18.5578133,0.303892873 18.2544566,0 17.8818653,0 L15.6253653,0 C15.2518631,0 14.9475954,0.303892873 14.9475954,0.678055268 L14.9475954,2.6154864 L11.8101768,0.132782021 C11.6758071,0.0447169692 11.534605,0 11.3765498,0 L11.3760943,0 C11.2380807,0.00273777363 11.104622,0.0479110385 10.9734407,0.138713864 L0.257570839,8.61349212 C-0.0334876002,8.84848436 -0.0858690094,9.27922741 0.141420758,9.57445067 C0.262125744,9.73050376 0.463452552,9.82404436 0.679355056,9.82404436 C0.837865755,9.82404436 0.988177625,9.77339555 1.10296123,9.68259273 L3.10484205,8.09970327 L3.10484205,19.0320897 C3.10484205,19.4057958 3.40865422,19.7101449 3.78215644,19.7101449 L9.13963588,19.7101449 C9.51313811,19.7101449 9.81695028,19.4057958 9.81695028,19.0320897 L9.81695028,12.6553586 L12.973955,12.6553586 L12.973955,19.0320897 C12.973955,19.4057958 13.2777672,19.7101449 13.6517249,19.7101449 L19.0092044,19.7101449 C19.3831621,19.7101449 19.6865188,19.4057958 19.6865188,19.0320897 L19.6865188,8.09970327 L21.6883996,9.68213643 C21.9598719,9.89750795 22.4281162,9.84457766 22.6399193,9.57536326 C22.7547029,9.42980496 22.8048068,9.23633562 22.7788439,9.04377888 L22.7788439,9.04377888 Z" id="Fill-16-Copy-3"></path>
                            <path d="M19.1365534,18.9683946 L14.073324,18.5748767 L13.8950944,12.0697378 C13.8950944,11.6654444 12.9203787,11.7889929 12.5172914,11.7889929 L9.66466624,11.3987417 C9.26157898,11.3987417 8.8332916,11.6654444 8.8332916,12.0697378 L8.8332916,18.9683946 L4.12820513,18.9683946 L4.12820513,6.71766354 L11.6321329,0.785559153 L19.1365534,6.7171699 L19.1365534,18.9683946 Z M15.9230769,0.579710145 L17.9159579,0.579710145 L17.9159579,5.2173913 L15.9230769,4.13046738 L15.9230769,0.579710145 Z" id="Fill-16-Copy-2"></path>
                        </g>
                    </g>
                </g>
            </g>
        </g>
    </g>
</svg>