<?xml version="1.0" encoding="UTF-8"?>
<svg width="40px" height="43px" viewBox="0 0 40 43" version="1.1" xmlns="http://www.w3.org/2000/svg" xmlns:xlink="http://www.w3.org/1999/xlink">
    <!-- Generator: Sketch 52.3 (67297) - http://www.bohemiancoding.com/sketch -->
    <title>Group 7</title>
    <desc>Created with Sketch.</desc>
    <g id="Page-1" stroke="none" stroke-width="1" fill="none" fill-rule="evenodd">
        <g id="01_cao" transform="translate(-1187.000000, -1557.000000)">
            <g id="Group-28" transform="translate(190.000000, 1553.000000)">
                <g id="Group-7" transform="translate(998.000000, 5.000000)">
                    <path d="M0.0342,20.2657 L0.0342,3.4997 C0.0342,3.4997 -0.5878,-0.0003 3.5102,-0.0003 L30.7212,-0.0003 L30.7212,33.9797 L3.5102,33.9797 C3.5102,33.9797 3.0502,37.3397 6.9642,37.5247 L34.3122,37.5247 L34.3122,3.4077 L37.5812,6.8387 L37.5812,40.8847 L7.9762,40.8847 C7.9762,40.8847 0.0002,40.8857 0.0002,33.8857 L0.0342,3.4997" id="Stroke-1" stroke="#5F5DA8" stroke-width="2" stroke-linecap="round"></path>
                    <path d="M23.0127,14.7422 C23.0407,14.6922 23.0747,14.6392 23.1017,14.5842 C23.4597,13.8882 23.6187,13.1112 23.5627,12.3392 L23.5257,11.9262 C23.4437,11.5242 23.3117,11.1202 23.1207,10.7392 L22.9677,10.4562 C22.8577,10.2772 22.7377,10.1052 22.6037,9.9442 L22.4507,9.7642 L22.1477,9.4612 L22.0867,9.4082 C21.8087,9.1712 21.5017,8.9652 21.1687,8.8022 C20.9417,8.6882 20.6987,8.5932 20.4437,8.5172 L20.2167,8.4552 L20.1237,8.4322 C19.6787,8.3432 19.2087,8.3172 18.7507,8.3642 L18.4097,8.4092 C17.7977,8.5202 17.2097,8.7612 16.7007,9.1062 L16.4317,9.3052 C16.0877,9.5812 15.7907,9.9022 15.5477,10.2632 L14.6277,11.8162 C14.6237,11.7932 14.6167,11.7642 14.6117,11.7382 L14.5417,11.4602 L14.5117,11.3552 C14.4747,11.2562 14.4377,11.1532 14.3947,11.0522 L14.2877,10.8092 C14.1937,10.6192 14.0867,10.4352 13.9717,10.2642 L13.6607,9.8682 L13.5657,9.7592 C13.2047,9.3742 12.7867,9.0622 12.3167,8.8292 C12.1567,8.7512 11.9887,8.6792 11.8107,8.6172 L11.6377,8.5612 L11.3437,8.4792 C10.4567,8.2752 9.4767,8.3572 8.6307,8.7082 L8.3407,8.8402 L8.2667,8.8422 C8.1017,8.9672 7.9547,9.0572 7.8167,9.1542 L7.5907,9.3192 C7.1037,9.7042 6.7127,10.1792 6.4307,10.7272 C5.8397,11.8722 5.8027,13.2082 6.3257,14.3892 L6.4267,14.6042 L6.4697,14.6912 C6.5207,14.7742 6.5727,14.8642 6.6267,14.9502 L6.8047,15.2122 C6.9027,15.3402 7.0077,15.4662 7.1167,15.5832 L7.3227,15.7882 C7.4527,15.9102 7.5937,16.0242 7.7397,16.1292 L7.9477,16.2712 C8.0437,16.3342 8.1397,16.3912 8.2407,16.4452 L8.4897,16.5702 C8.5497,16.5962 8.6077,16.6202 8.6537,16.6382 C9.1917,16.8612 9.7627,16.9732 10.3457,16.9712 C10.4567,16.9712 10.5767,16.9662 10.6997,16.9542 L10.9577,16.9272 C11.1117,16.9032 11.2637,16.8742 11.4137,16.8382 L11.7567,16.7372 L11.0317,17.9792 C10.9767,18.0752 10.9357,18.1462 10.8967,18.2192 C10.4867,19.0142 10.3337,19.8732 10.4427,20.7202 L10.4457,20.7832 L10.5087,21.1722 C10.5367,21.2212 10.5567,21.2952 10.5767,21.3662 L10.6697,21.6652 L10.7147,21.7892 C10.8517,22.1042 11.0237,22.4142 11.2337,22.7002 L11.4257,22.9522 C11.4567,22.9822 11.4877,23.0162 11.5147,23.0492 L11.6877,23.2292 C11.9307,23.4682 12.2057,23.6802 12.5037,23.8592 L12.7267,23.9842 C12.7537,24.0002 12.7837,24.0152 12.8137,24.0302 C12.8557,24.0512 12.8987,24.0712 12.9417,24.0932 L13.1267,24.1742 L13.1957,24.2002 C13.7087,24.3952 14.2487,24.4962 14.7967,24.4942 C15.0467,24.4932 15.3007,24.4702 15.5507,24.4262 L15.8657,24.3632 L15.9807,24.3372 C16.1287,24.2872 16.2857,24.2352 16.4397,24.1732 L16.4067,24.2222 L16.8977,23.9592 C17.5037,23.6312 18.0287,23.1612 18.4177,22.5952 L22.9657,14.8252 L23.0127,14.7422 Z" id="Fill-3" fill="#5F5DA8"></path>
                    <path d="M23.5566,20.4522 C22.3686,20.4562 21.4066,21.4072 21.4096,22.5752 C21.4126,23.7422 22.3826,24.6872 23.5706,24.6832 C24.7566,24.6812 25.7196,23.7292 25.7156,22.5612 C25.7126,21.3952 24.7436,20.4482 23.5566,20.4522" id="Fill-5" fill="#5F5DA8"></path>
                </g>
            </g>
        </g>
    </g>
</svg>