<?xml version="1.0" encoding="UTF-8"?>
<svg width="57px" height="40px" viewBox="0 0 57 40" version="1.1" xmlns="http://www.w3.org/2000/svg" xmlns:xlink="http://www.w3.org/1999/xlink">
    <!-- Generator: Sketch 52.3 (67297) - http://www.bohemiancoding.com/sketch -->
    <title>Group 11</title>
    <desc>Created with Sketch.</desc>
    <g id="OLD" stroke="none" stroke-width="1" fill="none" fill-rule="evenodd" stroke-linecap="round">
        <g id="mobile-cao" transform="translate(-207.000000, -1708.000000)" stroke="#5F5DA8" stroke-width="2">
            <g id="Group-24" transform="translate(0.000000, 209.000000)">
                <g id="Group-46" transform="translate(0.000000, 1209.000000)">
                    <g id="Group-45" transform="translate(42.000000, 40.000000)">
                        <g id="Group-44" transform="translate(0.000000, 101.000000)">
                            <g id="Group-43" transform="translate(0.000000, 148.000000)">
                                <g id="Group-11" transform="translate(166.000000, 1.000000)">
                                    <path d="M54.168,27.6855 C54.168,29.0565 53.025,30.1655 51.615,30.1655 L2.551,30.1655 C1.143,30.1655 0,29.0565 0,27.6855 L0,3.4805 C0,2.1115 1.143,0.9995 2.551,0.9995 L51.615,0.9995 C53.025,0.9995 54.168,2.1115 54.168,3.4805 L54.168,27.6855 Z" id="Stroke-1"></path>
                                    <path d="M43.6465,38.7168 C43.6465,38.8728 43.5195,38.9998 43.3635,38.9998 L10.8045,38.9998 C10.6485,38.9998 10.5215,38.8728 10.5215,38.7168 L10.5215,34.9078 C10.5215,34.7518 10.6485,34.6248 10.8045,34.6248 L43.3635,34.6248 C43.5195,34.6248 43.6465,34.7518 43.6465,34.9078 L43.6465,38.7168 Z" id="Stroke-3"></path>
                                    <path d="M16.5215,34.334 L16.5215,30.544" id="Stroke-5"></path>
                                    <path d="M37.6465,30.626 L37.6465,34.542" id="Stroke-7"></path>
                                    <path d="M49.5,25.8008 C49.5,25.9568 49.373,26.0838 49.217,26.0838 L4.951,26.0838 C4.795,26.0838 4.668,25.9568 4.668,25.8008 L4.668,5.3668 C4.668,5.2108 4.795,5.0838 4.951,5.0838 L49.217,5.0838 C49.373,5.0838 49.5,5.2108 49.5,5.3668 L49.5,25.8008 Z" id="Stroke-9"></path>
                                </g>
                            </g>
                        </g>
                    </g>
                </g>
            </g>
        </g>
    </g>
</svg>