<?xml version="1.0" encoding="UTF-8"?>
<svg width="33px" height="23px" viewBox="0 0 33 23" version="1.1" xmlns="http://www.w3.org/2000/svg" xmlns:xlink="http://www.w3.org/1999/xlink">
    <!-- Generator: Sketch 52.3 (67297) - http://www.bohemiancoding.com/sketch -->
    <title>Group 11</title>
    <desc>Created with Sketch.</desc>
    <g id="Page-1" stroke="none" stroke-width="1" fill="none" fill-rule="evenodd" stroke-linecap="round">
        <g id="mobile-cao" transform="translate(-19.000000, -310.000000)" stroke="#747474" stroke-width="1.13399992">
            <g id="Group-24" transform="translate(0.000000, 209.000000)">
                <g id="Group-12">
                    <g id="Group-11" transform="translate(20.000000, 101.000000)">
                        <path d="M30.5310545,15.6174615 C30.5310545,16.3908462 29.8868182,17.0164359 29.0920909,17.0164359 L1.43783636,17.0164359 C0.644236364,17.0164359 0,16.3908462 0,15.6174615 L0,1.96335897 C0,1.19110256 0.644236364,0.563820513 1.43783636,0.563820513 L29.0920909,0.563820513 C29.8868182,0.563820513 30.5310545,1.19110256 30.5310545,1.96335897 L30.5310545,15.6174615 Z" id="Stroke-1"></path>
                        <path d="M24.6007545,21.8402462 C24.6007545,21.9282462 24.5291727,21.9998872 24.4412455,21.9998872 L6.08980909,21.9998872 C6.00188182,21.9998872 5.9303,21.9282462 5.9303,21.8402462 L5.9303,19.6915795 C5.9303,19.6035795 6.00188182,19.5319385 6.08980909,19.5319385 L24.4412455,19.5319385 C24.5291727,19.5319385 24.6007545,19.6035795 24.6007545,19.6915795 L24.6007545,21.8402462 Z" id="Stroke-3"></path>
                        <path d="M9.31211818,19.3678974 L9.31211818,17.2299487" id="Stroke-5"></path>
                        <path d="M21.2189364,17.2762051 L21.2189364,19.4852308" id="Stroke-7"></path>
                        <path d="M27.9,14.5542974 C27.9,14.6422974 27.8284182,14.7139385 27.7404909,14.7139385 L2.79056364,14.7139385 C2.70263636,14.7139385 2.63105455,14.6422974 2.63105455,14.5542974 L2.63105455,3.02742564 C2.63105455,2.93942564 2.70263636,2.86778462 2.79056364,2.86778462 L27.7404909,2.86778462 C27.8284182,2.86778462 27.9,2.93942564 27.9,3.02742564 L27.9,14.5542974 Z" id="Stroke-9"></path>
                    </g>
                </g>
            </g>
        </g>
    </g>
</svg>