<?xml version="1.0" encoding="UTF-8"?>
<svg width="24px" height="29px" viewBox="0 0 24 29" version="1.1" xmlns="http://www.w3.org/2000/svg" xmlns:xlink="http://www.w3.org/1999/xlink">
    <!-- Generator: Sketch 52.3 (67297) - http://www.bohemiancoding.com/sketch -->
    <title>Group 7</title>
    <desc>Created with Sketch.</desc>
    <g id="Page-1" stroke="none" stroke-width="1" fill="none" fill-rule="evenodd">
        <g id="mobile-cao" transform="translate(-24.000000, -528.000000)" stroke="#747474" stroke-width="1.39999998">
            <g id="Group-24" transform="translate(0.000000, 209.000000)">
                <g id="Group-12">
                    <g id="Group-7" transform="translate(24.000000, 320.000000)">
                        <path d="M22.4929545,26.9709231 L0.712651515,26.9709231 L0.712651515,24.8365385 C0.712651515,24.8365385 -0.0296212121,18.612 8.80307576,16.4076923 C8.87486364,16.3903846 8.94595455,16.3723846 9.01843939,16.3557692 C9.01843939,16.3557692 9.40943939,17.3367692 11.5951364,17.2211538" id="Stroke-1"></path>
                        <path d="M0.696272727,26.9709231 L22.4765758,26.9709231 L22.4765758,24.8365385 C22.4765758,24.8365385 23.2188485,18.612 14.3861515,16.4076923 C14.3143636,16.3903846 14.2432727,16.3723846 14.1707879,16.3557692 C14.1707879,16.3557692 13.7797879,17.3367692 11.5940909,17.2211538" id="Stroke-3"></path>
                        <path d="M11.5741576,13.5 C12.2571879,13.5 16.2208545,13.2113077 16.8014303,7.90407692 C17.2363394,3.93161538 16.278703,0 11.5741576,0 C6.86961212,0 5.6994,3.96 6.34688485,7.90407692 C7.21809697,13.2113077 10.8911273,13.5 11.5741576,13.5 Z" id="Stroke-5"></path>
                    </g>
                </g>
            </g>
        </g>
    </g>
</svg>