<?xml version="1.0" encoding="UTF-8"?>
<svg width="48px" height="39px" viewBox="0 0 48 39" version="1.1" xmlns="http://www.w3.org/2000/svg" xmlns:xlink="http://www.w3.org/1999/xlink">
    <!-- Generator: Sketch 52.3 (67297) - http://www.bohemiancoding.com/sketch -->
    <title>Group 15</title>
    <desc>Created with Sketch.</desc>
    <g id="Page-1" stroke="none" stroke-width="1" fill="none" fill-rule="evenodd">
        <g id="02_cao_hover" transform="translate(-694.000000, -1558.000000)">
            <g id="Group-28" transform="translate(0.000000, 1390.000000)">
                <g id="Group-15" transform="translate(695.000000, 169.000000)">
                    <path d="M24.832,35.7363 C22.84,36.4723 20.686,36.8753 18.437,36.8753 C8.255,36.8753 0,28.6203 0,18.4373 C0,8.2553 8.255,0.0003 18.437,0.0003 C26.195,0.0003 32.834,4.7913 35.557,11.5763" id="Stroke-1" stroke="#5F5DA8" stroke-width="2" stroke-linecap="round"></path>
                    <path d="M45.0625,34.3242 C45.0625,35.7322 43.9195,36.8752 42.5105,36.8752 L31.2375,36.8752 C29.8295,36.8752 28.6865,35.7322 28.6865,34.3242 L28.6865,27.9262 C28.6865,26.5172 29.8295,25.3752 31.2375,25.3752 L42.5105,25.3752 C43.9195,25.3752 45.0625,26.5172 45.0625,27.9262 L45.0625,34.3242 Z" id="Stroke-3" stroke="#5F5DA8" stroke-width="2" stroke-linecap="round"></path>
                    <path d="M36.874,29.043 L36.874,32.543" id="Stroke-5" stroke="#5F5DA8" stroke-width="2" stroke-linecap="round"></path>
                    <path d="M32.2295,24.959 L32.2295,21.293 C32.2295,21.293 31.9805,16.876 36.8745,16.876 C39.2915,16.876 40.9795,18.125 40.9795,22.209" id="Stroke-7" stroke="#5F5DA8" stroke-width="2" stroke-linecap="round"></path>
                    <path d="M20.8623,24.8545 C20.8623,25.8335 20.0713,26.6255 19.0913,26.6255 C18.1123,26.6255 17.3203,25.8335 17.3203,24.8545 C17.3203,23.8755 18.1123,23.0835 19.0913,23.0835 C20.0713,23.0835 20.8623,23.8755 20.8623,24.8545" id="Fill-9" fill="#5F5DA8"></path>
                    <path d="M8.9756,17.25 C10.8646,13.586 14.6856,11.08 19.0916,11.08 C23.2856,11.08 26.9486,13.35 28.9206,16.727" id="Stroke-11" stroke="#5F5DA8" stroke-width="2" stroke-linecap="round"></path>
                    <path d="M13.8154,21.043 C14.4374,18.712 16.5644,16.995 19.0914,16.995 C21.5654,16.995 23.6544,18.64 24.3254,20.896" id="Stroke-13" stroke="#5F5DA8" stroke-width="2" stroke-linecap="round"></path>
                </g>
            </g>
        </g>
    </g>
</svg>