<?xml version="1.0" encoding="UTF-8"?>
<svg width="34px" height="41px" viewBox="0 0 34 41" version="1.1" xmlns="http://www.w3.org/2000/svg" xmlns:xlink="http://www.w3.org/1999/xlink">
    <!-- Generator: Sketch 52.3 (67297) - http://www.bohemiancoding.com/sketch -->
    <title>Group 7</title>
    <desc>Created with Sketch.</desc>
    <g id="Page-1" stroke="none" stroke-width="1" fill="none" fill-rule="evenodd">
        <g id="02_cao_hover" transform="translate(-379.000000, -1558.000000)" stroke="#5F5DA8" stroke-width="2">
            <g id="Group-28" transform="translate(0.000000, 1390.000000)">
                <g id="Group-7" transform="translate(379.000000, 169.000000)">
                    <path d="M32.2725,38.958 L1.0225,38.958 L1.0225,35.875 C1.0225,35.875 -0.0425,26.884 12.6305,23.7 C12.7335,23.675 12.8355,23.649 12.9395,23.625 C12.9395,23.625 13.5005,25.042 16.6365,24.875" id="Stroke-1"></path>
                    <path d="M0.999,38.958 L32.249,38.958 L32.249,35.875 C32.249,35.875 33.314,26.884 20.641,23.7 C20.538,23.675 20.436,23.649 20.332,23.625 C20.332,23.625 19.771,25.042 16.635,24.875" id="Stroke-3"></path>
                    <path d="M16.6064,19.5 C17.5864,19.5 23.2734,19.083 24.1064,11.417 C24.7304,5.679 23.3564,0 16.6064,0 C9.8564,0 8.1774,5.72 9.1064,11.417 C10.3564,19.083 15.6264,19.5 16.6064,19.5 Z" id="Stroke-5"></path>
                </g>
            </g>
        </g>
    </g>
</svg>