<?xml version="1.0" encoding="UTF-8"?>
<svg width="18px" height="23px" viewBox="0 0 18 23" version="1.1" xmlns="http://www.w3.org/2000/svg" xmlns:xlink="http://www.w3.org/1999/xlink">
    <!-- Generator: Sketch 52.3 (67297) - http://www.bohemiancoding.com/sketch -->
    <title>Group 39</title>
    <desc>Created with Sketch.</desc>
    <g id="Page-1" stroke="none" stroke-width="1" fill="none" fill-rule="evenodd">
        <g id="mobile-cao" transform="translate(-145.000000, -2148.000000)" fill="#FFFFFF">
            <g id="Group-54" transform="translate(0.000000, 2138.000000)">
                <g id="Group-52" transform="translate(16.000000, 8.000000)">
                    <g id="Group-51" transform="translate(110.000000, 2.000000)">
                        <g id="Group-39" transform="translate(19.000000, 0.000000)">
                            <path d="M3.59275988,4.24615385 L11.6113834,4.24615385 L11.6113834,5.94985755 L3.59275988,5.94985755 L3.59275988,4.24615385 Z M3.59275988,7.43076923 L11.6113834,7.43076923 L11.6113834,9.13447293 L3.59275988,9.13447293 L3.59275988,7.43076923 Z M3.59275988,10.9692308 L10.4658658,10.9692308 L10.4658658,12.6729345 L3.59275988,12.6729345 L3.59275988,10.9692308 Z M14.8917294,1.70058535 L14.8917294,7.45361328 C14.5202652,7.38595942 14.137402,7.3506095 13.7462117,7.3506095 C13.7183991,7.3506095 13.6629014,2.74575927 13.6629014,2.74575927 C13.6629014,2.12017055 13.1491569,1.61141975 12.515421,1.61141975 L2.37630842,1.61141975 C1.74335019,1.61141975 1.22882802,2.11928085 1.22882802,2.74575927 L1.22882802,20.2542407 C1.22882802,20.8798295 1.74257249,21.3885802 2.37630842,21.3885802 L12.1914004,21.3885802 C12.6887186,21.5137378 13.2096317,21.5802469 13.7462117,21.5802469 C14.1340807,21.5802469 14.5137635,21.5454947 14.8822656,21.4789593 C14.7916201,22.3337679 14.0608767,23 13.1689109,23 L1.72281849,23 C0.771332112,23 2.66453526e-15,22.2412999 2.66453526e-15,21.2994147 L2.66453526e-15,1.70058535 C2.66453526e-15,0.761377994 0.769285761,0 1.72281849,0 L13.1689109,0 C14.1203973,0 14.8917294,0.758700115 14.8917294,1.70058535 Z" id="Combined-Shape"></path>
                            <path d="M17.1477588,16.1461718 C17.1477588,17.1596294 16.5897878,18.2300228 15.0297464,18.5488634 L15.0297464,19.6192567 C15.0297464,19.7445155 14.9272619,19.847 14.8020031,19.847 L13.5494151,19.847 C13.4241563,19.847 13.3216718,19.7445155 13.3216718,19.6192567 L13.3216718,18.6057992 C12.7523137,18.5716377 12.28544,18.4919275 11.8755021,18.3894431 C11.7616304,18.3552816 11.659146,18.2869586 11.659146,18.1616998 L11.659146,17.0457578 C11.659146,16.920499 11.7616304,16.8294017 11.8755021,16.8294017 C11.8868892,16.8294017 11.8868892,16.8294017 11.8982764,16.8294017 C12.3651501,16.8863375 13.5152536,16.9660476 14.0504503,16.9660476 C14.8361646,16.9660476 15.075295,16.6927557 15.075295,16.1689462 C15.075295,15.8387184 14.9158747,15.6565238 14.3237422,15.3035217 L12.7523137,14.3697743 C11.6933075,13.7434803 11.3972412,13.026089 11.3972412,12.1948261 C11.3972412,11.1585942 11.8868892,10.3045569 13.3216718,10.0540393 L13.3216718,9.07474327 C13.3216718,8.94948447 13.4241563,8.847 13.5494151,8.847 L14.8020031,8.847 C14.9272619,8.847 15.0297464,8.94948447 15.0297464,9.07474327 L15.0297464,10.0084907 C15.701589,10.0540393 16.3848188,10.1451366 16.6922723,10.2248468 C16.8061439,10.2590083 16.9086284,10.3273313 16.9086284,10.4412029 L16.9086284,11.5685321 C16.9086284,11.6824037 16.8175311,11.773501 16.7036594,11.773501 C16.6922723,11.773501 16.6922723,11.773501 16.6808851,11.773501 C15.974881,11.7051781 15.0411335,11.6482422 14.2668064,11.6482422 C13.6405124,11.6482422 13.3899948,11.8304369 13.3899948,12.2517619 C13.3899948,12.536441 13.538028,12.7186356 14.1529348,13.0488634 L15.5991046,13.8345776 C16.7719824,14.4722588 17.1477588,15.2238116 17.1477588,16.1461718 Z" id="$"></path>
                        </g>
                    </g>
                </g>
            </g>
        </g>
    </g>
</svg>