<?xml version="1.0" encoding="UTF-8"?>
<svg width="27px" height="27px" viewBox="0 0 27 27" version="1.1" xmlns="http://www.w3.org/2000/svg" xmlns:xlink="http://www.w3.org/1999/xlink">
    <!-- Generator: Sketch 52.3 (67297) - http://www.bohemiancoding.com/sketch -->
    <title>Combined Shape</title>
    <desc>Created with Sketch.</desc>
    <g id="Page-1" stroke="none" stroke-width="1" fill="none" fill-rule="evenodd">
        <g id="04" transform="translate(-227.000000, -25.000000)" fill="#FFFFFF">
            <path d="M240.5,52 C233.044156,52 227,45.9558441 227,38.5 C227,31.0441559 233.044156,25 240.5,25 C247.955844,25 254,31.0441559 254,38.5 C254,45.9558441 247.955844,52 240.5,52 Z M240.5,48.9745968 C246.28496,48.9745968 250.974597,44.2849601 250.974597,38.5 C250.974597,32.7150399 246.28496,28.0254032 240.5,28.0254032 C234.71504,28.0254032 230.025403,32.7150399 230.025403,38.5 C230.025403,44.2849601 234.71504,48.9745968 240.5,48.9745968 Z M244.161557,40.597937 C244.161557,41.9305679 243.427862,43.3380657 241.376508,43.7573203 L241.376508,45.1648181 C241.376508,45.3295253 241.241748,45.4642857 241.077041,45.4642857 L239.429969,45.4642857 C239.265262,45.4642857 239.130501,45.3295253 239.130501,45.1648181 L239.130501,43.8321872 C238.381832,43.7872671 237.767924,43.6824534 237.228882,43.547693 C237.079148,43.5027728 236.944388,43.4129326 236.944388,43.2482254 L236.944388,41.7808341 C236.944388,41.6161269 237.079148,41.4963398 237.228882,41.4963398 L237.258829,41.4963398 C237.872737,41.5712067 239.385049,41.6760204 240.088798,41.6760204 C241.121961,41.6760204 241.436402,41.3166593 241.436402,40.6278838 C241.436402,40.1936557 241.226775,39.9540816 240.448159,39.4899068 L238.381832,38.2620896 C236.989308,37.4385537 236.6,36.4952307 236.6,35.4021739 C236.6,34.0395963 237.243855,32.9165927 239.130501,32.5871783 L239.130501,31.2994676 C239.130501,31.1347604 239.265262,31 239.429969,31 L241.077041,31 C241.241748,31 241.376508,31.1347604 241.376508,31.2994676 L241.376508,32.5272848 C242.259938,32.5871783 243.158341,32.7069654 243.562622,32.8117791 C243.712356,32.8566992 243.847116,32.9465395 243.847116,33.0962733 L243.847116,34.578638 C243.847116,34.7283718 243.727329,34.8481588 243.577595,34.8481588 L243.547649,34.8481588 C242.619299,34.7583185 241.391482,34.6834516 240.373292,34.6834516 C239.549756,34.6834516 239.220342,34.9230257 239.220342,35.4770408 C239.220342,35.8513753 239.414996,36.0909494 240.223558,36.5251775 L242.125177,37.5583407 C243.667436,38.39685 244.161557,39.3850932 244.161557,40.597937 Z" id="Combined-Shape"></path>
        </g>
    </g>
</svg>