<?xml version="1.0" encoding="UTF-8"?>
<svg width="19px" height="25px" viewBox="0 0 19 25" version="1.1" xmlns="http://www.w3.org/2000/svg" xmlns:xlink="http://www.w3.org/1999/xlink">
    <!-- Generator: Sketch 52.3 (67297) - http://www.bohemiancoding.com/sketch -->
    <title>Group</title>
    <desc>Created with Sketch.</desc>
    <g id="Page-1" stroke="none" stroke-width="1" fill="none" fill-rule="evenodd">
        <g id="04" transform="translate(-278.000000, -27.000000)" fill="#FFFFFF">
            <g id="Group" transform="translate(278.000000, 27.000000)">
                <path d="M7.19262322,24.6989992 C5.617769,24.6046636 4.05013474,24.4457083 2.51408781,24.0589326 C1.87376742,23.8976188 1.25059445,23.66178 0.618847766,23.4622604 C0.442409943,23.4066024 0.348099188,23.2952865 0.307035654,23.1009553 C-0.0259850959,21.5915868 -0.0990872118,20.0746715 0.141879022,18.5440775 C0.272289587,17.7219433 0.517317049,16.9403734 0.945099802,16.232857 C1.41779598,15.4346615 2.1407123,14.8325451 2.9906053,14.5291573 C4.09390576,14.1230428 5.16922886,13.6579686 6.13986251,12.9622441 C6.33299649,12.8240425 6.51710552,12.6721623 6.72919191,12.5084902 C8.4439329,14.2687912 10.1866512,14.2739797 11.9113197,12.5 C12.4905665,13.0088273 13.1348272,13.4307921 13.8255121,13.7537192 C14.3868642,14.0197454 14.9567899,14.2725646 15.5402531,14.4843479 C16.8285651,14.9560255 17.6769106,15.878627 18.1484644,17.1997961 C18.6899616,18.7148248 18.7283176,20.2784362 18.5383424,21.8594997 C18.4900589,22.2618407 18.3961994,22.65805 18.3384397,23.0599193 C18.3041448,23.2957582 18.1737343,23.404244 17.9702216,23.4844292 C17.0058641,23.8685936 16.0041302,24.1411209 14.9829623,24.2971298 C14.0488797,24.4409915 13.1080284,24.5409872 12.1685308,24.6438129 C11.7267594,24.6909807 11.2809267,24.7023009 10.8373503,24.7315449 C10.7766583,24.7389236 10.7164008,24.7497887 10.6568513,24.7640907 L7.98411156,24.7640907 C7.7201317,24.7423935 7.45660309,24.7145645 7.19262322,24.6989992 Z M9.63492807,0 C9.96668238,0.0444548844 10.2933549,0.123460549 10.6100742,0.235838827 C11.343995,0.503304867 12.0105611,0.940765651 12.5599152,1.5155003 C12.8464574,1.81548729 13.0729838,2.05745793 13.2399454,2.46357239 C13.4430068,2.95694722 13.4389456,3.40409763 13.4344331,3.64701162 C13.4267619,4.0653897 13.2990588,5.1884542 13.2697277,5.49551635 C13.2561903,5.62852945 12.9299383,8.61330565 12.8279563,8.91659438 C12.5233641,9.82410219 12.0125518,11.2589456 10.7819995,11.9192943 C10.3328379,12.1512308 9.83898253,12.2730251 9.33800713,12.275411 C9.05958734,12.275411 8.50365027,12.275411 7.92244332,11.9405198 C7.65169474,11.7853379 7.49105059,11.619779 7.26678051,11.3999772 C6.74235976,10.8791644 6.32543066,10.251701 6.0416432,9.55618928 C5.86385164,9.13167939 5.75239347,8.68075555 5.60032302,8.24539708 C5.54572206,8.08927177 5.35800304,5.61862422 5.33318442,5.47004576 C5.21085984,4.76510258 5.16244059,4.04831845 5.18878518,3.33240263 C5.22488499,2.49375976 5.68515757,1.8702019 5.94236872,1.52493386 C6.33557541,1.01760356 6.83962068,0.616428586 7.41208225,0.355173274 C7.74477839,0.202794018 8.09600501,0.099147349 8.45581802,0.0471677654 L9.63492807,0 Z" id="Combined-Shape"></path>
            </g>
        </g>
    </g>
</svg>