<?xml version="1.0" encoding="UTF-8"?>
<svg width="35px" height="43px" viewBox="0 0 35 43" version="1.1" xmlns="http://www.w3.org/2000/svg" xmlns:xlink="http://www.w3.org/1999/xlink">
    <!-- Generator: Sketch 52.3 (67297) - http://www.bohemiancoding.com/sketch -->
    <title>Group 9</title>
    <desc>Created with Sketch.</desc>
    <g id="Page-1" stroke="none" stroke-width="1" fill="none" fill-rule="evenodd" stroke-linecap="round">
        <g id="02_cao_hover" transform="translate(-1030.000000, -1557.000000)" stroke="#5F5DA8" stroke-width="2">
            <g id="Group-28" transform="translate(0.000000, 1390.000000)">
                <g id="Group-9" transform="translate(1031.000000, 168.000000)">
                    <path d="M29.8018,6.3174 L22.9388,6.3174 C22.7458,2.7964 19.8388,0.0004 16.2708,0.0004 C12.7018,0.0004 9.7938,2.7964 9.6018,6.3174 L2.7398,6.3174 C1.2268,6.3174 -0.0002,7.5214 -0.0002,9.0054 L-0.0002,37.9624 C-0.0002,39.4454 1.2268,40.6494 2.7398,40.6494 L29.8018,40.6494 C31.3148,40.6494 32.5418,39.4454 32.5418,37.9624 L32.5418,9.0054 C32.5418,7.5214 31.3148,6.3174 29.8018,6.3174 Z" id="Stroke-1"></path>
                    <path d="M6.2666,15.9902 L26.2756,15.9902" id="Stroke-3"></path>
                    <path d="M6.2666,23.8779 L26.2756,23.8779" id="Stroke-5"></path>
                    <path d="M6.2666,31.0498 L18.4826,31.0498" id="Stroke-7"></path>
                </g>
            </g>
        </g>
    </g>
</svg>