<?xml version="1.0" encoding="UTF-8"?>
<svg width="40px" height="40px" viewBox="0 0 40 40" version="1.1" xmlns="http://www.w3.org/2000/svg" xmlns:xlink="http://www.w3.org/1999/xlink">
    <!-- Generator: Sketch 52.3 (67297) - http://www.bohemiancoding.com/sketch -->
    <title>Group 5</title>
    <desc>Created with Sketch.</desc>
    <g id="Page-1" stroke="none" stroke-width="1" fill="none" fill-rule="evenodd">
        <g id="02_cao_hover" transform="translate(-214.000000, -1558.000000)">
            <g id="Group-28" transform="translate(0.000000, 1390.000000)">
                <g id="Group-5" transform="translate(215.000000, 169.000000)">
                    <path d="M37.5,18.75 C37.5,29.105 29.105,37.5 18.75,37.5 C8.395,37.5 0,29.105 0,18.75 C0,8.395 8.395,0 18.75,0 C29.105,0 37.5,8.395 37.5,18.75 Z" id="Stroke-1" stroke="#5F5DA8" stroke-width="2"></path>
                    <path d="M19.7422,27.5244 L19.7422,29.7474 C19.7422,30.0074 19.5312,30.2204 19.2692,30.2204 L18.1582,30.2204 C17.8982,30.2204 17.6852,30.0074 17.6852,29.7474 L17.6852,27.6194 C16.2912,27.5944 15.2262,27.4534 14.3032,27.2874 C13.9002,27.2164 13.8532,27.1224 13.8532,26.8624 L13.8532,25.8924 C13.8532,25.6314 14.0432,25.5134 14.2562,25.5134 L14.3262,25.5134 C15.4142,25.6084 17.1402,25.7264 18.2282,25.7264 C21.0682,25.7264 21.8242,24.5444 21.8242,22.8884 C21.8242,21.7064 21.1382,21.0444 18.9862,19.7184 L16.6912,18.3244 C14.5152,16.9994 13.4282,15.7934 13.4282,13.9014 C13.4282,11.4414 14.9652,10.1174 17.6852,9.7864 L17.6852,7.7524 C17.6852,7.4914 17.8982,7.2784 18.1582,7.2784 L19.2692,7.2784 C19.5312,7.2784 19.7422,7.4914 19.7422,7.7524 L19.7422,9.7144 C21.0192,9.7614 22.4162,9.9044 23.1952,10.0224 C23.4332,10.0694 23.5972,10.1874 23.5972,10.4234 L23.5972,11.4414 C23.5972,11.6774 23.4332,11.8194 23.1952,11.8194 L23.1482,11.8194 C22.1072,11.7494 20.4532,11.6064 19.0802,11.6064 C16.6442,11.6064 15.6032,12.1744 15.6032,13.9014 C15.6032,15.0124 16.3852,15.6744 18.1812,16.7624 L20.3572,18.0634 C23.1012,19.6954 24.0722,20.9964 24.0722,22.8884 C24.0722,24.8984 23.1482,27.0504 19.7422,27.5244" id="Fill-3" fill="#5F5DA8"></path>
                </g>
            </g>
        </g>
    </g>
</svg>