<?xml version="1.0" encoding="UTF-8"?>
<svg width="18px" height="18px" viewBox="0 0 18 18" version="1.1" xmlns="http://www.w3.org/2000/svg" xmlns:xlink="http://www.w3.org/1999/xlink">
    <!-- Generator: Sketch 52.3 (67297) - http://www.bohemiancoding.com/sketch -->
    <title>Combined Shape</title>
    <desc>Created with Sketch.</desc>
    <g id="Page-1" stroke="none" stroke-width="1" fill="none" fill-rule="evenodd">
        <g id="01_cao" transform="translate(-977.000000, -212.000000)" fill="#FFFFFF">
            <g id="Group-27" transform="translate(425.000000, 194.000000)">
                <g id="Group-10">
                    <path d="M560.449481,34.6186642 C555.782961,34.6186642 552,30.8984495 552,26.3093321 C552,21.7202147 555.782961,18 560.449481,18 C565.116,18 568.898961,21.7202147 568.898961,26.3093321 C568.898961,28.1465475 568.292653,29.8445008 567.266074,31.2202398 L569.617959,33.6839048 C570.150242,34.2414857 570.124594,35.1099169 569.551816,35.6316685 C568.983003,36.1498078 568.089619,36.1170277 567.558106,35.560253 L565.253356,33.1459632 C563.889379,34.07461 562.234037,34.6186642 560.449481,34.6186642 Z M565.6822,26.3093321 C565.6822,23.4673156 563.339432,21.163406 560.449481,21.163406 C557.55953,21.163406 555.216761,23.4673156 555.216761,26.3093321 C555.216761,29.1513486 557.55953,31.4552582 560.449481,31.4552582 C563.339432,31.4552582 565.6822,29.1513486 565.6822,26.3093321 Z" id="Combined-Shape"></path>
                </g>
            </g>
        </g>
    </g>
</svg>