<?xml version="1.0" encoding="UTF-8"?>
<svg width="28px" height="22px" viewBox="0 0 28 22" version="1.1" xmlns="http://www.w3.org/2000/svg" xmlns:xlink="http://www.w3.org/1999/xlink">
    <!-- Generator: Sketch 52.3 (67297) - http://www.bohemiancoding.com/sketch -->
    <title>Group 8 Copy</title>
    <desc>Created with Sketch.</desc>
    <defs>
        <polygon id="path-1" points="0 0.00576190476 27.6071212 0.00576190476 27.6071212 8.06944286 0 8.06944286"></polygon>
    </defs>
    <g id="modificaciones-CAO" stroke="none" stroke-width="1" fill="none" fill-rule="evenodd">
        <g id="menu-desplegable-02" transform="translate(-23.000000, -97.000000)">
            <g id="Group-8-Copy" transform="translate(23.000000, 97.000000)">
                <path d="M21.8145308,15.2575238 C21.5313,15.2575238 21.2556077,15.1119048 21.1080692,14.8536667 C21.0924538,14.8269524 21.0763,14.8007619 21.0574538,14.775619 C20.9486846,14.6315714 18.3737615,11.2807619 13.7171462,11.2807619 C9.03737692,11.2807619 6.47968462,14.7473333 6.45437692,14.7824286 C6.19753077,15.1380952 5.69460769,15.2245238 5.32899231,14.973619 C4.96391538,14.7237619 4.87614615,14.234 5.13245385,13.8788571 C5.25522308,13.708619 8.20706923,9.70933333 13.7171462,9.70933333 C19.1836077,9.70933333 22.2323769,13.6771905 22.3594538,13.846381 C22.4181462,13.9239048 22.4725308,14.0061429 22.5204538,14.0899524 C22.7369154,14.4697143 22.5963769,14.9479524 22.2065308,15.1590476 C22.0821462,15.2255714 21.9475308,15.2575238 21.8145308,15.2575238" id="Fill-1" fill="#747474"></path>
                <g id="Group-5" transform="translate(0.000000, 0.518205)">
                    <mask id="mask-2" fill="white">
                        <use xlink:href="#path-1"></use>
                    </mask>
                    <g id="Clip-4"></g>
                    <path d="M0.807153846,8.06944286 C0.703769231,8.06944286 0.597692308,8.0500619 0.495923077,8.00868095 C0.0845384615,7.8410619 -0.109307692,7.38115714 0.0624615385,6.98044286 C0.129230769,6.82539524 0.214307692,6.67663333 0.316615385,6.53834762 C0.504,6.27749048 5.11969231,0.0053952381 13.825,0.0053952381 C22.4527692,0.0053952381 27.251,6.24501429 27.4507692,6.5100619 C27.7146154,6.86049048 27.6365385,7.35234762 27.2768462,7.60849048 C26.9166154,7.86568095 26.4115385,7.78868095 26.1482308,7.4393 C25.9678462,7.19991905 21.6429231,1.57682381 13.825,1.57682381 C5.95107692,1.57682381 1.80707692,7.20672857 1.63476923,7.44610952 C1.59923077,7.49482381 1.57284615,7.53987143 1.55292308,7.58701429 C1.42369231,7.88820476 1.12323077,8.06944286 0.807153846,8.06944286" id="Fill-3" fill="#747474" mask="url(#mask-2)"></path>
                </g>
                <path d="M16.2863615,19.5769095 C16.2863615,20.9100048 15.1744385,21.9942905 13.8045923,21.9942905 C12.4358231,21.9942905 11.3206692,20.9100048 11.3206692,19.5769095 C11.3206692,18.2448619 12.4358231,17.1647667 13.8045923,17.1647667 C15.1744385,17.1647667 16.2863615,18.2459095 16.2863615,19.5769095" id="Fill-6" fill="#747474"></path>
            </g>
        </g>
    </g>
</svg>