<?xml version="1.0" encoding="UTF-8"?>
<svg width="112px" height="20px" viewBox="0 0 112 20" version="1.1" xmlns="http://www.w3.org/2000/svg" xmlns:xlink="http://www.w3.org/1999/xlink">
    <!-- Generator: Sketch 52.3 (67297) - http://www.bohemiancoding.com/sketch -->
    <title>Group 30</title>
    <desc>Created with Sketch.</desc>
    <g id="Symbols" stroke="none" stroke-width="1" fill="none" fill-rule="evenodd">
        <g id="Group-30">
            <g id="Group-2">
                <path d="M6.84833354,11.2379094 C6.4452802,11.331773 6.02562994,11.3813555 5.59459459,11.3813555 C2.50478532,11.3813555 0,8.83355231 0,5.69067776 C0,2.54780322 2.50478532,0 5.59459459,0 C8.27963802,0 10.5228944,1.92400043 11.0645506,4.49055164 L12.2258414,2.63209783 C13.772227,0.157363558 17.0319888,-0.595211735 19.506723,0.951173865 C21.9814573,2.49755946 22.7340326,5.75732119 21.187647,8.23205546 L15.3953388,17.5016862 C13.8489532,19.9764205 10.5891915,20.7289958 8.11445723,19.1826102 C5.63972296,17.6362246 4.88714767,14.3764629 6.43353327,11.9017286 L6.84833354,11.2379094 Z M20.8243243,19.6012234 C19.6227318,19.6012234 18.6486486,18.610411 18.6486486,17.3881821 C18.6486486,16.1659531 19.6227318,15.1751407 20.8243243,15.1751407 C22.0259168,15.1751407 23,16.1659531 23,17.3881821 C23,18.610411 22.0259168,19.6012234 20.8243243,19.6012234 Z" id="Combined-Shape" fill="#FFFFFF"></path>
                <path d="M38.7417299,18.4450922 C40.2111033,18.4091997 40.6763024,17.2880874 40.7603251,17.0938457 C40.8443479,16.8953814 45.0188439,5.24932554 45.0188439,5.24932554 C45.0372879,5.20287644 45.0475346,5.15220469 45.0475346,5.10153295 C45.0454853,4.86506481 44.8262064,4.76583265 44.6663582,4.76583265 L42.2419946,4.76583265 C42.0288637,4.76372132 41.8259795,4.85239687 41.7685981,5.02974798 C41.7112167,5.16909528 38.7499272,14.2393375 38.7499272,14.2393375 C38.7540259,14.2456714 35.7701937,5.16909528 35.7128123,5.02974798 C35.6533816,4.8545082 35.454596,4.76372132 35.2414652,4.76583265 L32.8171015,4.76583265 C32.6572533,4.76583265 32.4379745,4.86506481 32.4359251,5.10153295 C32.4359251,5.15220469 32.4461718,5.20287644 32.4646158,5.24932554 C32.4646158,5.24932554 36.6514079,16.9376078 36.7210853,17.0938457 C36.7887133,17.2521949 37.2723565,18.4091997 38.7417299,18.4450922 L38.7417299,18.4450922 Z M57.5013453,9.6978824 C57.5013453,9.13415925 57.6939828,8.78156836 57.9849884,8.46486996 C58.2534513,8.17350744 58.6961078,8.03416014 59.0649881,8.03416014 L62.3623686,8.03627146 C62.5160688,8.03627146 62.6800156,8.00882427 62.8132224,7.88847887 C62.9546265,7.75757687 62.9812679,7.58022576 62.9812679,7.46410302 L62.9894652,5.29366331 C62.9894652,5.17754057 62.9607745,5.00230078 62.8214197,4.87139878 C62.7066569,4.76583265 62.5795982,4.73627413 62.45049,4.72994016 L62.4525394,4.72360619 L59.3928818,4.72360619 C57.921459,4.72360619 56.6037364,5.04874988 55.6999795,5.89961292 C54.798272,6.75047596 54.2982342,8.09327717 54.3002835,9.98924493 L54.3002835,17.7462444 C54.3002835,17.9067049 54.3248755,18.0777221 54.4416877,18.2149581 C54.5687464,18.3627506 54.7388413,18.3880865 54.847456,18.3880865 L56.9439261,18.3965318 C57.0566395,18.3965318 57.224685,18.3690846 57.3537931,18.2255147 C57.4501119,18.1072806 57.4829013,17.9700446 57.4869999,17.83492 L57.4890493,17.8412539 L57.5013453,9.6978824 Z M46.4390333,1.2969295 C46.4390333,1.1385803 46.4656746,0.969674484 46.5804374,0.828215865 C46.7115949,0.680423278 46.8796404,0.652976083 46.9923538,0.652976083 L49.0826758,0.652976083 C49.1953893,0.652976083 49.3654841,0.678311955 49.4904936,0.828215865 C49.6114043,0.969674484 49.6318977,1.1385803 49.6318977,1.29481817 L49.6318977,4.78483455 L52.3062803,4.77850058 C52.4599804,4.77850058 52.6177792,4.80594778 52.7591834,4.92629317 C52.8985382,5.05719517 52.9272289,5.23243496 52.9272289,5.3485577 L52.9272289,7.49788418 C52.9272289,7.61611825 52.8985382,7.78713539 52.7591834,7.91803739 C52.6177792,8.04049411 52.4579311,8.06371866 52.3062803,8.06371866 L49.6318977,8.06371866 L49.6318977,13.4750387 C49.6318977,14.0387618 49.8163379,14.3892414 50.1093928,14.7059398 C50.3778557,14.9973023 50.8205122,15.1408722 51.1873432,15.1408722 L52.2980829,15.1450949 C52.4497337,15.1450949 52.6177792,15.1598742 52.7550847,15.2823309 C52.8964888,15.4111215 52.9231302,15.5863613 52.9231302,15.7067067 L52.9292782,17.8729238 C52.9292782,17.9932692 52.9026368,18.1663976 52.7612327,18.299411 C52.6464699,18.4007545 52.5173618,18.4366469 52.3882537,18.4450922 L51.5152368,18.4472036 C50.0479128,18.4450922 48.7281408,18.1262825 47.8264333,17.2733081 C46.9185777,16.4224451 46.4369839,15.0775326 46.4390333,13.1836761 L46.4390333,1.2969295 Z M72.0844153,5.96717524 C74.1808853,5.96717524 75.9043763,7.17485181 76.6892718,9.20594422 C76.7077158,9.25872729 76.7671465,9.29884242 76.8286266,9.29884242 L77.7877155,9.29884242 C77.8328009,9.29884242 77.8799356,9.27350655 77.9086263,9.23339142 C77.937317,9.19749893 77.9455143,9.14260454 77.9311689,9.09404412 C77.0499548,6.3915511 74.8120806,4.71093826 72.0844153,4.71093826 C68.6025946,4.71093826 65.7745119,7.81247126 65.7745119,11.6276313 C65.7745119,15.387897 68.6025946,18.4472036 72.0844153,18.4472036 C74.8366726,18.4472036 77.0786455,16.768702 77.9311689,14.0619864 C77.9455143,14.0155373 77.937317,13.9648655 77.9065769,13.9226391 C77.8799356,13.8825239 77.8328009,13.8592994 77.7877155,13.8592994 L76.8532186,13.8592994 C76.7876398,13.8592994 76.7323078,13.8994145 76.7077158,13.9585316 C75.9781524,15.9980693 74.2464641,17.2141911 72.0844153,17.2141911 C69.2624806,17.2141911 66.9631264,14.7080511 66.9631264,11.6276313 C66.9631264,8.50709642 69.2624806,5.96717524 72.0844153,5.96717524 L72.0844153,5.96717524 Z M106.50915,4.71093826 C104.621712,4.71093826 103.08676,5.67792404 102.334654,7.31842175 C101.537462,5.70114859 99.9184875,4.71093826 98.026951,4.71093826 C96.5350349,4.71093826 95.2378056,5.33588977 94.3893808,6.44011152 L94.3893808,5.1902085 C94.3893808,5.10364427 94.3258514,5.03397062 94.2418287,5.03397062 L93.3544665,5.03397062 C93.2704437,5.03397062 93.2028157,5.10364427 93.2028157,5.1902085 L93.2028157,17.9932692 C93.2028157,18.0819447 93.2704437,18.1473957 93.3544665,18.1473957 L94.2418287,18.1473957 C94.3258514,18.1473957 94.3893808,18.0819447 94.3893808,17.9932692 L94.3893808,9.74010886 C94.3893808,7.55488989 95.9181849,5.96717524 98.026951,5.96717524 C100.145964,5.96717524 101.687064,7.55488989 101.687064,9.74010886 L101.687064,17.9932692 C101.687064,18.0819447 101.750593,18.1473957 101.836665,18.1473957 L102.724027,18.1473957 C102.80805,18.1473957 102.873629,18.0819447 102.873629,17.9932692 L102.873629,9.74010886 C102.873629,7.55488989 104.404482,5.96717524 106.50915,5.96717524 C108.630212,5.96717524 110.169263,7.55488989 110.169263,9.74010886 L110.169263,17.9932692 C110.169263,18.0819447 110.23894,18.1473957 110.318864,18.1473957 L111.206226,18.1473957 C111.290249,18.1473957 111.355828,18.0819447 111.355828,17.9932692 L111.355828,9.74010886 C111.355828,6.82648357 109.316739,4.71093826 106.50915,4.71093826 L106.50915,4.71093826 Z M85.3620588,4.71093826 C81.7080939,4.71093826 78.7447551,7.78291274 78.7447551,11.5790709 C78.7447551,15.3710064 81.7080939,18.4472036 85.3620588,18.4472036 C89.018073,18.4472036 91.9814118,15.3710064 91.9814118,11.5790709 C91.9814118,7.78291274 89.018073,4.71093826 85.3620588,4.71093826 L85.3620588,4.71093826 Z M85.3620588,17.239527 C82.3474865,17.239527 79.9087775,14.7059398 79.9087775,11.5790709 C79.9087775,8.45642467 82.3474865,5.9165035 85.3620588,5.9165035 C88.376631,5.9165035 90.81534,8.45642467 90.81534,11.5790709 C90.81534,14.7059398 88.376631,17.239527 85.3620588,17.239527 L85.3620588,17.239527 Z M64.5858974,16.7898153 C64.5858974,15.8756125 63.8727287,15.132427 62.9894652,15.132427 C62.108251,15.132427 61.3909837,15.8756125 61.3909837,16.7898153 C61.3909837,17.704018 62.108251,18.4472036 62.9894652,18.4472036 C63.8727287,18.4472036 64.5858974,17.704018 64.5858974,16.7898153 L64.5858974,16.7898153 Z" id="Fill-100" fill="#FEFEFE"></path>
            </g>
        </g>
    </g>
</svg>