<?xml version="1.0" encoding="UTF-8"?>
<svg width="140px" height="32px" viewBox="0 0 140 32" version="1.1" xmlns="http://www.w3.org/2000/svg" xmlns:xlink="http://www.w3.org/1999/xlink">
    <!-- Generator: Sketch 52.3 (67297) - http://www.bohemiancoding.com/sketch -->
    <title>Group 53</title>
    <desc>Created with Sketch.</desc>
    <defs>
        <polygon id="path-1" points="0.0966823256 0.00150604027 7.99467029 0.00150604027 7.99467029 12.0168029 0.0966823256 12.0168029"></polygon>
        <polygon id="path-3" points="0.0707167664 0.0858997364 5.7827446 0.0858997364 5.7827446 12.8013423 0.0707167664 12.8013423"></polygon>
        <polygon id="path-5" points="0 0.0949665964 12.6465076 0.0949665964 12.6465076 5.83877937 0 5.83877937"></polygon>
        <polygon id="path-7" points="0.0592461215 0.104024353 5.77120184 0.104024353 5.77120184 12.8210793 0.0592461215 12.8210793"></polygon>
    </defs>
    <g id="Symbols" stroke="none" stroke-width="1" fill="none" fill-rule="evenodd">
        <g id="Group-15">
            <g id="Group-53">
                <path d="M117.129362,24.015103 C118.465683,23.9754081 118.888226,22.9942228 118.962276,22.8231797 C119.036432,22.647726 122.837177,12.4162263 122.837177,12.4162263 C122.851001,12.3648058 122.855609,12.3166125 122.855609,12.2764872 C122.855609,12.071343 122.651035,11.9757095 122.503043,11.9757095 L120.308134,11.9757095 C120.108382,11.9757095 119.922562,12.0568205 119.880876,12.2094685 C119.820543,12.3362986 117.129362,20.3122878 117.129362,20.3122878 C117.143079,20.3165908 114.419214,12.3362986 114.372598,12.2094685 C114.312265,12.062522 114.136089,11.9757095 113.94116,11.9757095 L111.741964,11.9757095 C111.59783,11.9757095 111.3984,12.071343 111.393792,12.2764872 C111.393792,12.3166125 111.402901,12.3648058 111.426477,12.4162263 C111.426477,12.4162263 115.222185,22.6777392 115.291841,22.8231797 C115.347673,22.9632414 115.787898,23.9754081 117.129362,24.015103" id="Fill-1" fill="#FFFFFF"></path>
                <g id="Group-5" transform="translate(131.167332, 11.944298)">
                    <mask id="mask-2" fill="white">
                        <use xlink:href="#path-1"></use>
                    </mask>
                    <g id="Clip-4"></g>
                    <path d="M3.01547694,4.37009856 C3.01547694,3.8767628 3.18254383,3.56468974 3.45130826,3.29241918 C3.69285333,3.03553174 4.09685729,2.90267747 4.43045525,2.90267747 L7.42394237,2.9059047 C7.56314691,2.9059047 7.71628263,2.89019885 7.84144884,2.78466846 C7.97154454,2.67063969 7.98526139,2.51207517 7.98526139,2.40557661 L7.99469172,0.504631064 C7.99469172,0.397487057 7.98065339,0.245269415 7.85077201,0.127152828 C7.74371632,0.0384040268 7.62798044,0.0124786194 7.51663824,0.00559386385 L7.51663824,0.00150604027 L4.72761784,0.00150604027 C3.39129706,0.00150604027 2.18978716,0.288191563 1.37277757,1.02378466 C0.551374309,1.78368955 0.0966823256,2.96442512 0.0966823256,4.62946021 L0.0966823256,11.4579544 C0.0966823256,11.5960798 0.128831181,11.7373248 0.231171706,11.8657686 C0.351729915,11.9910926 0.495649626,12.0168029 0.602062338,12.0168029 L2.50013078,12.0168029 C2.60247131,12.0168029 2.7553927,11.9983001 2.86652058,11.8698564 C2.9688611,11.765832 2.99211544,11.6559987 2.99629479,11.5387427 L3.01086894,11.5387427 L3.01547694,4.37009856 Z" id="Fill-3" fill="#FFFFFF" mask="url(#mask-2)"></path>
                </g>
                <path d="M124.131683,8.92434282 C124.131683,8.79181128 124.1454,8.6376573 124.252456,8.51523774 C124.372585,8.38270619 124.521863,8.36861396 124.628169,8.36861396 L126.525915,8.36861396 C126.628256,8.36861396 126.781606,8.38270619 126.887912,8.51523774 C127.004076,8.63356947 127.027116,8.79181128 127.027116,8.92434282 L127.027116,11.9972028 L129.458748,11.9927923 C129.58863,11.9927923 129.750982,12.0112951 129.871647,12.11973 C129.992312,12.2396753 130.019746,12.3935066 130.019746,12.4934431 L130.019746,14.3868584 C130.019746,14.4936797 129.992312,14.6362157 129.871647,14.7572368 C129.746266,14.8658868 129.58863,14.8799791 129.458748,14.8799791 L127.027116,14.8799791 L127.027116,19.636377 C127.027116,20.1326172 127.189682,20.445013 127.454374,20.7215865 C127.699992,20.9825618 128.098959,21.103798 128.447024,21.103798 L129.449425,21.1153085 C129.58863,21.1153085 129.746266,21.1178903 129.862645,21.2247116 C129.992312,21.3459478 130.015352,21.4973049 130.015352,21.6028352 L130.019746,23.5034581 C130.019746,23.6171641 129.996706,23.7757286 129.871647,23.8869605 C129.765127,23.9739881 129.644354,24.0008816 129.537299,24.0149739 L128.739471,24.0149739 C127.403043,24.0149739 126.201105,23.7215112 125.379809,22.9759137 C124.562799,22.2355873 124.113144,21.04517 124.126968,19.3839001 L124.131683,8.92434282 Z" id="Fill-6" fill="#FFFFFF"></path>
                <path d="M41.9665055,8.30400483 L40.8628353,8.30400483 C39.8253917,8.30400483 39.3396225,8.72505066 39.3396225,10.0545615 L39.3396225,12.11547 L41.9665055,12.11547 C42.2094437,12.11547 42.3859409,12.2484319 42.3859409,12.4700349 L42.3859409,12.6694777 C42.3859409,12.8910808 42.2094437,13.023935 41.9665055,13.023935 L39.3396225,13.023935 L39.3396225,23.5940787 C39.3396225,23.8156817 39.1631253,24.0151245 38.9422626,24.0151245 L38.787841,24.0151245 C38.5449028,24.0151245 38.3684055,23.8156817 38.3684055,23.5940787 L38.3684055,13.023935 L36.1829263,13.023935 C35.9400953,13.023935 35.7634909,12.8910808 35.7634909,12.6694777 L35.7634909,12.4700349 C35.7634909,12.2484319 35.9400953,12.11547 36.1829263,12.11547 L38.3684055,12.11547 L38.3684055,10.0545615 C38.3684055,8.14888268 39.2954714,7.43975287 40.8628353,7.43975287 C41.5251017,7.43975287 41.7236745,7.46191317 42.0106566,7.50623379 C42.3417898,7.5505544 42.430092,7.68351624 42.430092,7.8607987 L42.430092,8.01592084 C42.430092,8.2153636 42.2976387,8.30400483 41.9665055,8.30400483" id="Fill-8" fill="#FFFFFF"></path>
                <path d="M43.4015875,12.115427 L43.5561164,12.115427 C43.7768719,12.115427 43.9533691,12.3148698 43.9533691,12.5364728 L43.9533691,19.8934795 C43.9533691,22.4195394 45.2779019,23.261631 46.933568,23.261631 C48.0594209,23.261631 49.31762,22.8627455 50.4213974,22.353166 L50.4213974,12.5364728 C50.4213974,12.3148698 50.6200773,12.115427 50.8408328,12.115427 L50.9731789,12.115427 C51.1940415,12.115427 51.3926143,12.3148698 51.3926143,12.5364728 L51.3926143,23.5718753 C51.3926143,23.8157463 51.2381926,24.0150815 50.9953616,24.0150815 L50.8187572,24.0150815 C50.5759262,24.0150815 50.4213974,23.8157463 50.4213974,23.5718753 L50.4213974,23.2173104 C49.2734689,23.7714257 48.0152698,24.125883 46.8673414,24.125883 C44.7480888,24.125883 42.9821521,22.9513867 42.9821521,19.8934795 L42.9821521,12.5364728 C42.9821521,12.3148698 43.1586494,12.115427 43.4015875,12.115427" id="Fill-10" fill="#FFFFFF"></path>
                <path d="M60.7085383,24.015103 L60.5541166,24.015103 C60.3332539,24.015103 60.1566496,23.8156602 60.1566496,23.5940571 L60.1566496,16.2370504 C60.1566496,13.710883 58.8321167,12.8688989 57.1765578,12.8688989 C56.0507049,12.8688989 54.7925058,13.2456242 53.6887284,13.7774715 L53.6887284,23.5940571 C53.6887284,23.8156602 53.4901557,24.015103 53.269293,24.015103 L53.1368397,24.015103 C52.9160843,24.015103 52.7174043,23.8156602 52.7174043,23.5940571 L52.7174043,12.5586547 C52.7174043,12.3148913 52.8719332,12.1154485 53.1148714,12.1154485 L53.2913686,12.1154485 C53.5343068,12.1154485 53.6887284,12.3148913 53.6887284,12.5586547 L53.6887284,12.9132196 C54.8365497,12.3592119 56.094856,12.004647 57.2427844,12.004647 C59.362037,12.004647 61.1279737,13.1568754 61.1279737,16.2370504 L61.1279737,23.5940571 C61.1279737,23.8156602 60.9513693,24.015103 60.7085383,24.015103" id="Fill-12" fill="#FFFFFF"></path>
                <path d="M69.5165639,13.1569291 C68.6776931,12.9796467 67.3090091,12.8688452 66.4480628,12.8688452 C64.0198597,12.8688452 63.0927938,14.375746 63.0927938,17.3007989 L63.0927938,18.7632716 C63.0927938,21.6218436 63.9757086,23.2838666 66.4480628,23.2838666 C67.507689,23.2838666 68.7218442,23.1286369 69.5165639,22.9957826 L69.5165639,13.1569291 Z M70.1567548,23.7270728 C69.1854307,23.926408 67.706369,24.1481186 66.4480628,24.1481186 C63.4017443,24.1481186 62.1214697,21.9542482 62.1214697,18.7632716 L62.1214697,17.3007989 C62.1214697,13.799578 63.5783487,12.0047008 66.4480628,12.0047008 C67.3090091,12.0047008 68.633542,12.137555 69.5165639,12.3369978 L69.5165639,7.97152493 C69.5165639,7.75002943 69.6709855,7.55058667 69.8918482,7.55058667 L70.1126037,7.55058667 C70.333252,7.55058667 70.4877808,7.75002943 70.4877808,7.97152493 L70.4877808,23.3060269 C70.4877808,23.571843 70.4215542,23.6605919 70.1567548,23.7270728 Z" id="Fill-14" fill="#FFFFFF"></path>
                <path d="M78.5234195,17.7439621 L76.8236023,17.7439621 C73.4901946,17.7439621 72.3422661,18.4087713 72.3422661,20.2921822 L72.3422661,20.5803737 C72.3422661,22.6411747 73.4240751,23.2838236 74.7483937,23.2838236 C75.9847315,23.2838236 77.0443578,22.951419 78.5234195,22.153648 L78.5234195,17.7439621 Z M79.0530183,24.0151137 L78.9427477,24.0151137 C78.6998095,24.0151137 78.5013439,23.815671 78.5013439,23.5719076 L78.5013439,23.0178999 C77.4196421,23.6162282 76.1171848,24.1480756 74.7483937,24.1480756 C73.0929419,24.1480756 71.3711564,23.3503045 71.3711564,20.5803737 L71.3711564,20.2921822 C71.3711564,18.0098857 72.8058526,16.8797101 76.8236023,16.8797101 L78.5234195,16.8797101 L78.5234195,16.0820466 C78.5234195,13.7773747 77.8830143,12.8689097 75.7419005,12.8689097 C74.2849143,12.8689097 73.6448306,12.9574434 72.6072799,13.0683525 C72.3864172,13.0905128 72.0996494,13.0683525 72.0996494,12.7359479 L72.0996494,12.6028784 C72.0996494,12.314902 72.2761466,12.2484211 72.6072799,12.2041005 C73.5343457,12.093299 74.2849143,12.0046577 75.7419005,12.0046577 C78.7220994,12.0046577 79.4946364,13.6887335 79.4946364,16.0820466 L79.4946364,23.5719076 C79.4946364,23.815671 79.2959565,24.0151137 79.0530183,24.0151137 Z" id="Fill-16" fill="#FFFFFF"></path>
                <path d="M87.5300178,23.9486005 C86.6028448,24.0594021 85.5652941,24.1480433 84.8588766,24.1480433 C81.7021804,24.1480433 80.4881325,21.6883568 80.4881325,18.7854642 L80.4881325,17.3007236 C80.4881325,14.3535104 81.7021804,12.0046255 84.8588766,12.0046255 C85.5652941,12.0046255 86.6028448,12.0932667 87.5300178,12.2040682 C87.8611511,12.2483888 87.9493461,12.3591904 87.9493461,12.6029537 L87.9493461,12.7580759 C87.9493461,13.0018393 87.7507733,13.1126408 87.4858668,13.0683202 C86.4482088,12.9353584 85.5873697,12.8688774 84.8588766,12.8688774 C82.3423713,12.8688774 81.4594566,14.6194341 81.4594566,17.3007236 L81.4594566,18.7854642 C81.4594566,21.4667537 82.3423713,23.2837913 84.8588766,23.2837913 C85.5873697,23.2837913 86.4482088,23.2173104 87.4858668,23.0844561 C87.7507733,23.0401355 87.9493461,23.1508295 87.9493461,23.3947004 L87.9493461,23.549715 C87.9493461,23.793586 87.8611511,23.9042799 87.5300178,23.9486005" id="Fill-18" fill="#FFFFFF"></path>
                <path d="M89.4891151,24.1480971 L89.3528468,24.1480971 C89.1254386,24.1480971 88.920981,23.9486543 88.920981,23.7270513 L88.920981,12.5365266 C88.920981,12.3149235 89.1254386,12.1154808 89.3528468,12.1154808 L89.4891151,12.1154808 C89.7165233,12.1154808 89.920981,12.3149235 89.920981,12.5365266 L89.920981,23.7270513 C89.920981,23.9486543 89.7165233,24.1480971 89.4891151,24.1480971 M89.4891151,9.92161041 L89.3528468,9.92161041 C89.1254386,9.92161041 88.920981,9.74432796 88.920981,9.50056458 L88.920981,7.86080945 C88.920981,7.63920639 89.1254386,7.43976362 89.3528468,7.43976362 L89.4891151,7.43976362 C89.7165233,7.43976362 89.920981,7.63920639 89.920981,7.86080945 L89.920981,9.50056458 C89.920981,9.74432796 89.7165233,9.92161041 89.4891151,9.92161041" id="Fill-20" fill="#FFFFFF"></path>
                <path d="M98.1481419,7.10733751 L95.7860583,9.9437492 C95.5873784,10.1875126 95.5210446,10.3204744 95.3005034,10.3204744 L94.8148414,10.3204744 C94.682281,10.3204744 94.6161615,10.2539935 94.6161615,10.1653523 C94.6161615,10.0988714 94.638237,10.0102301 94.7042493,9.9437492 L96.9119113,7.10733751 C97.110484,6.86357413 97.1988934,6.77493291 97.4195417,6.77493291 L97.9936131,6.77493291 C98.1481419,6.77493291 98.2362298,6.81925352 98.2362298,6.93005505 C98.2362298,6.97437567 98.2142614,7.04085659 98.1481419,7.10733751 Z M99.2298438,17.3007559 C99.2298438,14.5751458 98.2362298,12.8689097 95.6537122,12.8689097 C93.0708731,12.8689097 92.0775807,14.5751458 92.0775807,17.3007559 L92.0775807,18.8519774 C92.0775807,21.5775876 93.0708731,23.2838236 95.6537122,23.2838236 C98.2362298,23.2838236 99.2298438,21.5775876 99.2298438,18.8519774 L99.2298438,17.3007559 Z M95.6537122,24.1480756 C92.6293622,24.1480756 91.1062566,22.1979686 91.1062566,18.8519774 L91.1062566,17.3007559 C91.1062566,13.9546572 92.6293622,12.0046577 95.6537122,12.0046577 C98.6777407,12.0046577 100.200954,13.9546572 100.200954,17.3007559 L100.200954,18.8519774 C100.200954,22.1979686 98.6777407,24.1480756 95.6537122,24.1480756 Z" id="Fill-22" fill="#FFFFFF"></path>
                <path d="M109.185605,24.015103 L109.031076,24.015103 C108.810321,24.015103 108.633823,23.8156602 108.633823,23.5940571 L108.633823,16.2370504 C108.633823,13.710883 107.309076,12.8688989 105.653625,12.8688989 C104.527664,12.8688989 103.269573,13.2456242 102.165688,13.7774715 L102.165688,23.5940571 C102.165688,23.8156602 101.967115,24.015103 101.74636,24.015103 L101.613906,24.015103 C101.393151,24.015103 101.194578,23.8156602 101.194578,23.5940571 L101.194578,12.5586547 C101.194578,12.3148913 101.349,12.1154485 101.591831,12.1154485 L101.768435,12.1154485 C102.011266,12.1154485 102.165688,12.3148913 102.165688,12.5586547 L102.165688,12.9132196 C103.313724,12.3592119 104.571816,12.004647 105.719851,12.004647 C107.839104,12.004647 109.60504,13.1568754 109.60504,16.2370504 L109.60504,23.5940571 C109.60504,23.8156602 109.428436,24.015103 109.185605,24.015103" id="Fill-24" fill="#FFFFFF"></path>
                <path d="M22.4564794,1.59635965 L20.598597,0.411213538 C20.104362,0.0967738447 19.4510972,0.243182474 19.1357169,0.740713634 L15.5340806,5.64427317 L12.9355958,9.18572686 C12.6217158,9.68142926 12.7682074,10.3424734 13.2638356,10.6565903 L15.6302057,12.1666109 L16.3677005,12.6383242 C16.7550942,12.8839163 17.2360411,12.8455123 17.5785335,12.5809871 L16.2786481,10.083542 C16.0077404,9.56266723 16.2082421,8.91732897 16.7278748,8.64376752 L20.7385517,6.88643367 L22.7847192,3.06872917 C23.0972061,2.57152073 22.9521076,1.91112207 22.4564794,1.59635965" id="Fill-26" fill="#FCE800"></path>
                <path d="M28.7461244,6.8613581 L27.7259341,4.90092397 C27.4552407,4.37865072 26.8148355,4.17630345 26.2970246,4.44954219 L20.7385946,6.88610019 L16.7280248,8.64386433 C16.2083922,8.91742579 16.007569,9.56244132 16.278691,10.0837464 L17.5786836,12.5810839 L17.9851523,13.3613203 C18.1957273,13.7687042 18.6318801,13.9758923 19.0592455,13.919631 L19.1772318,11.1036584 C19.2009148,10.5163027 19.6951499,10.058574 20.2798304,10.0826707 L24.6283918,10.5770822 L28.2981837,8.29908869 C28.8178164,8.02617267 29.0183181,7.38191016 28.7461244,6.8613581" id="Fill-28" fill="#F39600"></path>
                <path d="M30.6536018,11.2620831 L24.6281561,10.5769423 L20.2795947,10.0826384 C19.6952356,10.0587569 19.2011077,10.5161628 19.1769961,11.103411 L19.0591169,13.9194911 L19.0224672,14.8007398 C19.0051069,15.2583609 19.2773005,15.6584298 19.6775538,15.8253851 L21.1765477,13.4447657 C21.4908564,12.94788 22.1476575,12.7997502 22.6411424,13.1152656 L26.1616565,15.7293212 L30.4732467,15.6029214 C31.0583559,15.626265 31.5522694,15.1699348 31.577667,14.5822564 L31.667148,12.3713893 C31.692117,11.7833881 31.2382823,11.2861797 30.6536018,11.2620831" id="Fill-30" fill="#E84C33"></path>
                <path d="M31.0390344,19.3511652 L26.1615172,15.7294611 L22.6413246,13.1149752 C22.147411,12.79989 21.4906099,12.9480198 21.1767299,13.444798 L19.6774144,15.8252022 L19.2075053,16.5687558 C18.9652101,16.9564536 19.0018598,17.4390319 19.2631229,17.7842379 L21.7475864,16.4789313 C22.2655045,16.2046168 22.9076243,16.4072868 23.1783177,16.9289146 L24.9280727,20.9632737 L28.7238881,23.0197717 C29.2191948,23.3356099 29.8726739,23.1870498 30.1884828,22.6924231 L31.3655596,20.8221362 C31.6797611,20.3253581 31.5332695,19.6671109 31.0390344,19.3511652" id="Fill-32" fill="#C8092B"></path>
                <path d="M27.3501782,26.5518127 L24.9280834,20.9633275 L23.1784356,16.9289684 C22.9073135,16.4073406 22.2656224,16.2046706 21.7472757,16.478985 L19.2632407,17.7839689 L18.488882,18.1935043 C18.0840207,18.4041348 17.8766606,18.8433607 17.9309922,19.2740882 L20.7320148,19.3913442 C21.317124,19.4169469 21.7731019,19.9141553 21.7489903,20.5018337 L21.256577,24.8736535 L23.5210352,28.5652809 C23.7935503,29.0875542 24.4338484,29.288503 24.9517664,29.0169854 L26.9022375,27.9901887 C27.4201556,27.71695 27.6223719,27.0731177 27.3501782,26.5518127" id="Fill-34" fill="#EB657F"></path>
                <g id="Group-38" transform="translate(15.967265, 19.151776)">
                    <mask id="mask-4" fill="white">
                        <use xlink:href="#path-3"></use>
                    </mask>
                    <g id="Clip-37"></g>
                    <path d="M4.76487836,0.239621764 L1.96342707,0.122258198 L1.09058563,0.0869738255 C0.634607696,0.0664271333 0.236497699,0.342677948 0.0707167664,0.742746788 L2.43826567,2.25212186 C2.93239358,2.56817517 3.07899236,3.2282511 2.76543386,3.72545954 L0.164698588,7.26443902 L0.292222383,11.5989305 C0.268110741,12.1882225 0.72226691,12.6837098 1.3070546,12.7102806 L3.50635782,12.8004279 C4.09071685,12.8254927 4.58495193,12.3671186 4.60895641,11.7797629 L5.28944052,5.72182349 L5.78185383,1.35000374 C5.80564398,0.762325312 5.34998753,0.265116874 4.76487836,0.239621764" id="Fill-36" fill="#AF2A85" mask="url(#mask-4)"></path>
                </g>
                <path d="M18.4056379,21.4038013 L16.0377675,19.8948565 L15.2982366,19.4242189 C14.9147008,19.1779813 14.4334324,19.2156323 14.0891182,19.4790818 L15.3894322,21.9779253 C15.6602327,22.4984774 15.4594096,23.1438156 14.9419201,23.4166241 L10.9291,25.1751412 L8.88336111,28.9928458 C8.56905246,29.4903769 8.71554408,30.1489468 9.20977916,30.464785 L11.0694833,31.6495008 C11.5615751,31.9636178 12.2183762,31.8165637 12.5322562,31.3197855 L16.1321779,26.4165487 L18.7324846,22.8771389 C19.0463646,22.3800381 18.8997658,21.7199621 18.4056379,21.4038013" id="Fill-39" fill="#7F5CA2"></path>
                <path d="M15.3893786,21.9776994 L14.0890646,19.4791786 L13.6843105,18.6996952 C13.4723424,18.2938174 13.0373683,18.084155 12.6089313,18.1396634 L12.4926596,20.9575723 C12.4682264,21.5451431 11.9729197,22.0022264 11.3882392,21.9776994 L7.03978497,21.4836106 L3.36956444,23.7609587 C2.85025325,24.0341974 2.64943007,24.6791054 2.92033776,25.2007332 L3.94181407,27.1605219 C4.21250744,27.6827951 4.85462725,27.8836363 5.37125936,27.6108279 L10.9291535,25.1749153 L14.9418666,23.4165058 C15.459356,23.1439125 15.6601792,22.4982515 15.3893786,21.9776994" id="Fill-41" fill="#4D2A84"></path>
                <g id="Group-45" transform="translate(0.000000, 16.139696)">
                    <mask id="mask-6" fill="white">
                        <use xlink:href="#path-5"></use>
                    </mask>
                    <g id="Clip-44"></g>
                    <path d="M11.9921983,0.0949665964 L10.4894536,2.47676928 C10.1771811,2.97354742 9.52209457,3.12178481 9.02646638,2.80551636 L5.506381,0.191138025 L1.19468363,0.319259022 C0.611396223,0.294301783 0.11576803,0.751815302 0.0903704336,1.33906343 L0.000996614529,3.55143659 C-0.0245081444,4.13846957 0.431041142,4.63557043 1.01443571,4.65977465 L7.03988142,5.34383965 L11.3883357,5.83782086 C11.9726947,5.86256295 12.4683229,5.40526458 12.4924345,4.81790888 L12.6085991,1.99978481 L12.6455702,1.12111789 C12.6646452,0.6630665 12.390737,0.262352215 11.9921983,0.0949665964" id="Fill-43" fill="#0E3B82" mask="url(#mask-6)"></path>
                </g>
                <path d="M12.4048289,14.2762075 L9.92047248,15.5832353 C9.40255441,15.8558286 8.7604346,15.6542344 8.48963407,15.1326066 L6.73998618,11.0979247 L2.94417078,9.04067367 C2.44897124,8.72451279 1.79388472,8.87296533 1.47957607,9.36909802 L0.3024993,11.2383091 C-0.0118093464,11.7358403 0.134789436,12.3940875 0.628917349,12.7102484 L5.50654175,16.3309843 L9.02673429,18.9450399 C9.52236248,19.2616311 10.1773418,19.1133937 10.4891857,18.6166156 L11.9920376,16.2345977 L12.4605536,15.4935184 C12.7041347,15.1056054 12.6661991,14.6210907 12.4048289,14.2762075" id="Fill-46" fill="#35BBED"></path>
                <g id="Group-50" transform="translate(9.858982, 0.003550)">
                    <mask id="mask-8" fill="white">
                        <use xlink:href="#path-7"></use>
                    </mask>
                    <g id="Clip-49"></g>
                    <path d="M3.40483173,10.6529005 C2.90920354,10.3391063 2.76260476,9.67784704 3.07659192,9.18203707 L5.67518393,5.64069095 L5.5494819,1.30619948 C5.5748795,0.717122589 5.12104482,0.221312617 4.53454252,0.196570527 L2.33556079,0.105024794 C1.75045161,0.0792069607 1.25664519,0.537903797 1.23124759,1.1248292 L0.552585249,7.18287618 L0.0600647789,11.5560944 C0.0373462541,12.1430198 0.490216469,12.641304 1.0766116,12.6654006 L3.8760268,12.7830869 L4.75111865,12.8200925 C5.20688226,12.8397786 5.60509942,12.5629899 5.77120184,12.1630286 L3.40483173,10.6529005 Z" id="Fill-48" fill="#BED366" mask="url(#mask-8)"></path>
                </g>
                <path d="M13.7351593,12.7865616 L10.9355297,12.6688753 C10.3490274,12.6451014 9.89658588,12.1464945 9.91887575,11.5595691 L10.4112891,7.18656598 L8.14693799,3.49709005 C7.87442285,2.9748168 7.23358899,2.77182408 6.71609958,3.0443098 L4.76391389,4.07261258 C4.24599583,4.34369983 4.04517264,4.98860779 4.31768778,5.51066589 L6.73978257,11.0979677 L8.48975195,15.1327572 C8.76055248,15.6542774 9.40267229,15.8555489 9.92059036,15.5833859 L12.4049468,14.2763581 L13.1790912,13.869297 C13.582345,13.6561923 13.7912054,13.2177194 13.7351593,12.7865616" id="Fill-51" fill="#44AB89"></path>
            </g>
        </g>
    </g>
</svg>