<?xml version="1.0" encoding="UTF-8"?>
<svg width="26px" height="26px" viewBox="0 0 26 26" version="1.1" xmlns="http://www.w3.org/2000/svg" xmlns:xlink="http://www.w3.org/1999/xlink">
    <!-- Generator: Sketch 52.3 (67297) - http://www.bohemiancoding.com/sketch -->
    <title>Group 3 Copy 2</title>
    <desc>Created with Sketch.</desc>
    <defs>
        <polygon id="path-1" points="0 0 25.9501667 0 25.9501667 25.9998401 0 25.9998401"></polygon>
    </defs>
    <g id="modificaciones-CAO" stroke="none" stroke-width="1" fill="none" fill-rule="evenodd">
        <g id="menu-desplegable-02" transform="translate(-24.000000, -213.000000)">
            <g id="Group-3-Copy-2" transform="translate(24.000000, 213.000000)">
                <mask id="mask-2" fill="white">
                    <use xlink:href="#path-1"></use>
                </mask>
                <g id="Clip-2"></g>
                <path d="M19.0318375,24.6384125 C19.3080875,24.6053708 19.6406708,24.5874958 19.9645875,24.5241208 C21.5690042,24.2077875 22.8700875,23.2934542 24.1034625,22.3038292 C24.8309208,21.7209958 24.7935458,20.9821625 24.1153792,20.2861208 C23.0488375,19.1892458 21.9649625,18.1097042 20.8707958,17.0420792 C20.0924208,16.2821208 19.5106708,16.2989125 18.7285042,17.0626625 C17.9766708,17.7966208 17.2270042,18.5332875 16.4887125,19.2807875 C16.0477958,19.7265792 15.5586708,19.8484542 14.9855875,19.5797875 C14.3865042,19.2997458 13.7885042,19.0159125 13.1921292,18.7320792 C9.8782125,17.1514958 7.82204583,14.4604958 6.4933375,11.1324958 C6.17592083,10.3373292 6.30050417,9.90237083 6.91854583,9.29949583 C7.60375417,8.6305375 8.27867083,7.95020417 8.95250417,7.26987083 C9.71787917,6.49474583 9.71787917,5.90595417 8.95467083,5.13245417 C7.8940875,4.0577875 6.82862917,2.98637083 5.76750417,1.91170417 C5.07254583,1.20699583 4.39437917,1.17612083 3.7097125,1.88949583 C3.29154583,2.32662083 2.94812917,2.83470417 2.57275417,3.31299583 C1.2722125,4.9694125 1.09887917,6.76070417 1.8377125,8.71557917 C4.33912917,15.3325792 8.6757125,20.2931625 15.0554625,23.4055792 C16.2904625,24.0079125 17.5574208,24.5772042 19.0318375,24.6384125 M25.9494625,21.3288292 C25.9565042,22.2339542 25.5155875,22.9635792 24.8525875,23.4722042 C23.5682958,24.4574958 22.2206292,25.3653292 20.6205458,25.7948708 C18.8931708,26.2579958 17.2708792,25.8831625 15.6800042,25.2012042 C8.19362917,21.9891208 3.20542083,16.4489542 0.447795833,8.8401625 C-0.287245833,6.81107917 -0.1545375,4.8426625 1.1227125,3.05299583 C1.72829583,2.2052875 2.3674625,1.35107917 3.13392083,0.6566625 C4.11867083,-0.234920833 5.36612917,-0.2127125 6.35087917,0.683745833 C7.6844625,1.89870417 8.97579583,3.16837083 10.1945458,4.4981625 C11.1717125,5.5657875 11.1272958,6.85170417 10.1717958,7.95237083 C9.50825417,8.7166625 8.77700417,9.4251625 8.04467083,10.1249958 C7.76300417,10.3925792 7.75975417,10.6108708 7.88975417,10.9450792 C9.23200417,14.4149958 11.7155458,16.7306208 15.1025875,18.1541208 C15.4059208,18.2824958 15.6139208,18.2451208 15.8365458,18.0176208 C16.4421292,17.3979542 17.0558375,16.7858708 17.6733375,16.1781208 C19.1168792,14.7573292 20.5170875,14.7529958 21.9633375,16.1759542 C22.9892542,17.1839958 24.0054208,18.2028708 25.0134625,19.2282458 C25.7252125,19.9519125 25.9657125,20.5190375 25.9494625,21.3288292" id="Fill-1" fill="#747474" mask="url(#mask-2)"></path>
            </g>
        </g>
    </g>
</svg>