<?xml version="1.0" encoding="UTF-8"?>
<svg width="114px" height="114px" viewBox="0 0 114 114" version="1.1" xmlns="http://www.w3.org/2000/svg" xmlns:xlink="http://www.w3.org/1999/xlink">
    <!-- Generator: Sketch 52.3 (67297) - http://www.bohemiancoding.com/sketch -->
    <title>Group 2</title>
    <desc>Created with Sketch.</desc>
    <defs>
        <linearGradient x1="50%" y1="0%" x2="50%" y2="100%" id="linearGradient-1">
            <stop stop-color="#F6F7FA" offset="0%"></stop>
            <stop stop-color="#FFFFFF" offset="100%"></stop>
        </linearGradient>
    </defs>
    <g id="Page-1" stroke="none" stroke-width="1" fill="none" fill-rule="evenodd">
        <g id="02_cao_hover" transform="translate(-236.000000, -991.000000)">
            <g id="Group-2" transform="translate(238.000000, 993.000000)">
                <circle id="Oval" stroke="#A295CA" stroke-width="2.21849992" fill="url(#linearGradient-1)" fill-rule="nonzero" cx="55" cy="55" r="55"></circle>
                <g id="Group-12-Copy" transform="translate(5.133333, 13.933333)">
                    <path d="M41.4333333,87.2666667 C32.7256438,87.2666667 25.6666667,80.2076896 25.6666667,71.5 C25.6666667,62.7923104 32.7256438,55.7333333 41.4333333,55.7333333 C50.1410229,55.7333333 57.2,62.7923104 57.2,71.5 C57.2,80.2076896 50.1410229,87.2666667 41.4333333,87.2666667 Z M41.4333333,76.7555556 C44.3358965,76.7555556 46.6888889,74.4025632 46.6888889,71.5 C46.6888889,68.5974368 44.3358965,66.2444444 41.4333333,66.2444444 C38.5307701,66.2444444 36.1777778,68.5974368 36.1777778,71.5 C36.1777778,74.4025632 38.5307701,76.7555556 41.4333333,76.7555556 Z" id="Combined-Shape" fill="#EDEBEB" fill-rule="nonzero"></path>
                    <g id="Group-32">
                        <g id="Group-29" transform="translate(50.250229, 47.029422) rotate(7.000000) translate(-50.250229, -47.029422) translate(4.783563, 5.229422)">
                            <path d="M54.5621711,38.2703115 C54.6096126,38.0781923 55.8189693,33.5067192 60.6218202,31.6602846 C65.4053728,29.8202808 69.4354898,32.3540038 69.6051535,32.4625231 C69.6622442,32.4978923 69.7161184,32.5388885 69.7659722,32.5806885" id="Stroke-1" stroke="#D73F63" stroke-width="2.44034996" stroke-linecap="round"></path>
                            <path d="M48.6021491,36.8494331 C48.6053655,36.7352869 48.6214474,36.6227485 48.6520029,36.5086023 C48.7283918,36.19671 50.6855556,28.8053446 58.4860673,25.8053908 C66.2664766,22.8134754 72.7965205,26.9211292 73.0699123,27.0963677" id="Stroke-3" stroke="#D73F63" stroke-width="2.44034996" stroke-linecap="round"></path>
                            <path d="M67.399364,39.6526858 C68.0667617,41.3873858 67.201557,43.3399281 65.4671272,44.0063165 C63.7343056,44.672705 61.77875,43.8045512 61.1121564,42.070655 C60.4455629,40.3367588 61.3163962,38.3874319 63.0484137,37.7218473 C64.7836477,37.054655 66.7327705,37.9203973 67.399364,39.6526858" id="Fill-5" fill="#D73F63"></path>
                            <path d="M55.7863231,67.1152858 C55.7863231,75.9117742 48.6532091,83.0426935 39.8532091,83.0426935 C31.0532091,83.0426935 23.9192909,75.9117742 23.9192909,67.1152858 C23.9192909,58.3187973 31.0532091,51.1870742 39.8532091,51.1870742 C46.6606652,51.1870742 52.4710453,55.4546935 54.7530629,61.4602281 C55.4212646,63.2174358 55.7863231,65.1241588 55.7863231,67.1152858 Z" id="Stroke-7" stroke="#A295CA" stroke-width="2.18329977" stroke-linecap="round" stroke-linejoin="round"></path>
                            <path d="M44.9514839,67.1152858 C44.9514839,69.9295512 42.6686623,72.2124742 39.8527266,72.2124742 C37.0367909,72.2124742 34.7539693,69.9295512 34.7539693,67.1152858 C34.7539693,64.3002165 37.0367909,62.0172935 39.8527266,62.0172935 C42.0318202,62.0172935 43.8908845,63.3830281 44.6210015,65.3050242 C44.8340863,65.8669127 44.9514839,66.4778358 44.9514839,67.1152858 Z" id="Stroke-9" stroke="#A295CA" stroke-width="2.18329977" stroke-linecap="round" stroke-linejoin="round"></path>
                            <polyline id="Stroke-11" stroke="#A295CA" stroke-width="2.18329977" stroke-linecap="round" stroke-linejoin="round" points="54.7529825 61.4601477 90.8913596 46.9442938 89.1722076 42.6461285 52.4773977 57.3959015"></polyline>
                            <polyline id="Stroke-13" stroke="#A295CA" stroke-width="2.18329977" stroke-linecap="round" stroke-linejoin="round" points="49.4392105 54.3919285 87.7140643 38.9838054 76.5829971 11.1667092 34.1517836 28.2387938 43.5025877 51.6057977"></polyline>
                            <polygon id="Stroke-15" stroke="#A295CA" stroke-width="2.18329977" stroke-linecap="round" stroke-linejoin="round" points="32.7526608 24.7917408 26.4437427 9.02671 48.6343129 0.0895484615 54.7936696 15.9590792"></polygon>
                            <path d="M19.3351535,2.07127038 L38.924481,51.1870742 L19.3351535,2.07127038 Z" id="Stroke-17" stroke="#A295CA" stroke-width="2.18329977" stroke-linecap="round" stroke-linejoin="round"></path>
                            <polyline id="Stroke-19" stroke="#A295CA" stroke-width="2.18329977" stroke-linecap="round" stroke-linejoin="round" points="19.3351535 2.07127038 15.0493348 4.20467808 34.1521857 52.2272512"></polyline>
                            <path d="M19.0866136,2.10177785 L0.639978084,10.2154192" id="Stroke-21" stroke="#A295CA" stroke-width="2.18329977" stroke-linecap="round" stroke-linejoin="round"></path>
                            <path d="M44.9514839,9.57597808 C44.9595249,9.53578577 44.9683699,9.49398577 44.9731944,9.45379346 C45.0375219,8.92405885 44.9587208,8.390305 44.7392032,7.91040885 L44.6201974,7.65558962 C44.4730482,7.418455 44.2945395,7.19096654 44.0830629,6.99241654 L43.9198319,6.84772423 C43.8072588,6.75930115 43.6898611,6.67891654 43.5676389,6.60737423 L43.4269225,6.52859731 L43.1615716,6.404805 L43.1109137,6.38551269 C42.8777266,6.29950115 42.6324781,6.24082038 42.382405,6.21268577 C42.2103289,6.19339346 42.0326243,6.18937423 41.8525073,6.20223577 L41.6924927,6.21509731 L41.6281652,6.22313577 C41.3226096,6.268955 41.0154459,6.36220115 40.7340132,6.50046269 L40.5273611,6.60898192 C40.1639108,6.822805 39.8430775,7.11460115 39.5994371,7.45462808 L39.4739985,7.64594346 C39.3180044,7.90076269 39.2046272,8.17728577 39.1346711,8.46425885 L38.9095249,9.67083192 C38.902288,9.65636269 38.8910307,9.64108962 38.8805775,9.62581654 L38.7712208,9.46424346 L38.7286038,9.403955 C38.6803582,9.34929346 38.6321126,9.29141654 38.5814547,9.23755885 L38.4576243,9.10894346 C38.3506798,9.00846269 38.2413231,8.91682423 38.1263377,8.83402808 L37.8352558,8.65477038 L37.7492178,8.60653962 C37.4299927,8.44577038 37.089057,8.34368192 36.7328436,8.30590115 C36.6122295,8.29303962 36.4883991,8.28660885 36.3605482,8.28821654 L36.238326,8.29384346 L36.0284576,8.31072423 C35.4173465,8.38708962 34.8094518,8.67004346 34.3495102,9.09125885 L34.1959284,9.24479346 L34.1484868,9.26167423 C34.0737061,9.38144731 34.0005336,9.47388962 33.935402,9.56713577 L33.8284576,9.72629731 C33.6089401,10.0864204 33.4698319,10.4795012 33.4175658,10.8975012 C33.3098173,11.7680665 33.5984868,12.6281819 34.210402,13.260005 L34.3229751,13.374955 L34.3720249,13.4199704 C34.4234868,13.4609665 34.4789693,13.5067858 34.5344518,13.5485858 L34.708136,13.6739858 C34.8014108,13.7326665 34.897902,13.7881319 34.9951974,13.8363627 L35.1753143,13.9199627 C35.2870833,13.9673896 35.4028728,14.0083858 35.5210746,14.0405396 L35.6867178,14.0823396 C35.7631067,14.0992204 35.8370833,14.1144935 35.9158845,14.1241396 L36.1032383,14.1458435 C36.1482675,14.1474512 36.1900804,14.1506665 36.2238523,14.1506665 C36.6202705,14.1675473 37.0110599,14.1056512 37.3833553,13.9673896 C37.4549196,13.9416665 37.5288962,13.9095127 37.604481,13.8741435 L37.7644956,13.7953665 C37.8561623,13.7455281 37.9470249,13.6900627 38.033867,13.6305781 L38.2308699,13.4866896 L38.0587939,14.4505012 C38.0451243,14.5236512 38.0346711,14.5799204 38.0266301,14.6345819 C37.9518494,15.2398781 38.0571857,15.8226665 38.3241447,16.3379319 L38.3402266,16.3789281 L38.4712939,16.6120435 C38.5018494,16.6369627 38.532405,16.6795665 38.5613523,16.7197588 L38.6924196,16.8893704 L38.7487061,16.9585012 C38.9103289,17.1273088 39.0936623,17.2840588 39.2938816,17.4183012 L39.4748026,17.5324473 C39.5021418,17.5461127 39.5286769,17.5597781 39.5544079,17.5750512 L39.7079898,17.6506127 C39.9194664,17.7446627 40.1438085,17.8154012 40.3769956,17.8612204 L40.5466594,17.889355 C40.569174,17.8917665 40.5916886,17.8949819 40.6150073,17.8973935 C40.6471711,17.9014127 40.6785307,17.9030204 40.7114985,17.9062358 L40.8473904,17.9158819 L40.8988523,17.9150781 C41.2727558,17.920705 41.6402266,17.858005 41.9900073,17.7293896 C42.1500219,17.669905 42.3076243,17.5951473 42.4571857,17.5083319 L42.6429313,17.3957935 L42.7096711,17.3507781 C42.7932968,17.283255 42.880943,17.2133204 42.9645687,17.1377588 L42.9549196,17.1779512 L43.2082091,16.8949973 C43.5161769,16.5421088 43.7421272,16.1192858 43.8587208,15.6659165 L44.9418348,9.63867808 L44.9514839,9.57597808 Z" id="Fill-25" fill="#D73F63"></path>
                            <path d="M46.6397588,13.0943323 C45.8814985,13.3756785 45.4891009,14.2092669 45.7657091,14.9536285 C46.0415132,15.6971862 46.8817909,16.07419 47.6392471,15.7936477 C48.3975073,15.5131054 48.789905,14.6803208 48.5132968,13.9359592 C48.2366886,13.1907938 47.3964108,12.8129862 46.6397588,13.0943323" id="Fill-27" fill="#D73F63"></path>
                        </g>
                    </g>
                </g>
            </g>
        </g>
    </g>
</svg>