<?xml version="1.0" encoding="UTF-8"?>
<svg width="114px" height="114px" viewBox="0 0 114 114" version="1.1" xmlns="http://www.w3.org/2000/svg" xmlns:xlink="http://www.w3.org/1999/xlink">
    <!-- Generator: Sketch 52.3 (67297) - http://www.bohemiancoding.com/sketch -->
    <title>Group 14</title>
    <desc>Created with Sketch.</desc>
    <defs>
        <linearGradient x1="50%" y1="0%" x2="50%" y2="100%" id="linearGradient-1">
            <stop stop-color="#F6F7FA" offset="0%"></stop>
            <stop stop-color="#FFFFFF" offset="100%"></stop>
        </linearGradient>
    </defs>
    <g id="Page-1" stroke="none" stroke-width="1" fill="none" fill-rule="evenodd">
        <g id="01_cao" transform="translate(-806.000000, -992.000000)">
            <g id="Group-14" transform="translate(808.000000, 994.000000)">
                <circle id="Oval-Copy-6" stroke="#A295CA" stroke-width="2.1930001" fill="url(#linearGradient-1)" fill-rule="nonzero" cx="55" cy="55" r="55"></circle>
                <g id="Group-19" transform="translate(10.266667, 17.600000)">
                    <polygon id="Path-4" fill="#EDEBEB" fill-rule="nonzero" points="20.5018229 30.0086836 44.7558919 30.0086836 45.5422201 49.711263 48.1024414 48.5633133 49.4391276 50.4389926 51.636263 49.0736411 53.9766276 50.4389926 53.9766276 30.0086836 81.5217448 30.0086836 81.5217448 49.0736411 81.5217448 51.4719076 80.466862 54.4590933 78.7642253 55.7333333 75.9923828 56.5357747 58.6616536 56.5357747 58.6616536 51.9556641 48.1024414 62.7900425 52.8085937 68.1630352 19.9303385 68.1630352"></polygon>
                    <g id="Group-18">
                        <polyline id="Stroke-1" stroke="#A295CA" stroke-width="1.56960318" stroke-linecap="round" points="52.9144829 68.5861069 19.8596971 68.5861069 19.8596971 29.6299162 44.9452543 29.6299162"></polyline>
                        <polyline id="Stroke-2" stroke="#A295CA" stroke-width="1.56960318" stroke-linecap="round" points="53.9554729 29.6298578 81.4524157 29.6298578 81.4524157 43.0599641"></polyline>
                        <polyline id="Stroke-3" stroke="#A295CA" stroke-width="1.56960318" stroke-linecap="round" points="8.86062714 26.0511453 8.86062714 58.4664266 19.8597557 68.9333333"></polyline>
                        <polyline id="Stroke-4" stroke="#A295CA" stroke-width="1.56960318" stroke-linecap="round" points="81.4525914 29.6298578 71.1867771 18.7172391 37.6997343 18.7172391"></polyline>
                        <path d="M10.5074214,20.35121 L19.8601071,29.6299162" id="Stroke-5" stroke="#A295CA" stroke-width="1.56960318" stroke-linecap="round"></path>
                        <path d="M39.8182629,24.1741912 L15.1110771,24.1741912" id="Stroke-6" stroke="#A295CA" stroke-width="1.56960318" stroke-linecap="round"></path>
                        <path d="M76.3196257,24.1741912 L49.3094114,24.1741912" id="Stroke-7" stroke="#A295CA" stroke-width="1.56960318" stroke-linecap="round"></path>
                        <polyline id="Stroke-8" stroke="#A295CA" stroke-width="1.56960318" stroke-linecap="round" points="35.9339229 20.0390369 44.9451371 29.6297994 45.7147657 50.9068931 48.02658 48.2234431 49.4340514 50.9068931 51.3868229 48.3461619 53.9557657 50.9068931 53.9557657 29.6297994 43.9318514 18.7171806 36.7609514 18.7171806"></polyline>
                        <g id="Group-17" transform="translate(0.000000, 0.496134)">
                            <path d="M81.6064586,40.7584616 L81.6064586,49.7841334 C81.6064586,55.5004897 78.1314157,56.1018116 76.6308157,56.1018116 L58.68863,56.1018116 L58.68863,50.9873616 L47.2308871,62.4200741 L58.68863,73.8527866 L58.68863,67.9862459 L75.7264729,67.9862459 C79.95533,67.9862459 90.0501157,67.8354772 90.0501157,55.3497209 C90.0501157,42.8645491 81.6064586,40.7584616 81.6064586,40.7584616" id="Fill-9" fill="#FEFEFE"></path>
                            <path d="M81.6064586,40.7584616 L81.6064586,49.7841334 C81.6064586,55.5004897 78.1314157,56.1018116 76.6308157,56.1018116 L58.68863,56.1018116 L58.68863,50.9873616 L47.2308871,62.4200741 L58.68863,73.8527866 L58.68863,67.9862459 L75.7264729,67.9862459 C79.95533,67.9862459 90.0501157,67.8354772 90.0501157,55.3497209 C90.0501157,42.8645491 81.6064586,40.7584616 81.6064586,40.7584616 Z" id="Stroke-11" stroke="#D73F63" stroke-width="1.75439997" stroke-linecap="round"></path>
                            <path d="M8.73592857,33.5462222 L8.73592857,24.5205503 C8.73592857,18.8041941 12.2109714,18.2022878 13.7121571,18.2022878 L31.6537571,18.2022878 L31.6537571,23.3167378 L43.1120857,11.8846097 L31.6537571,0.451312813 L31.6537571,6.31785344 L14.6165,6.31785344 C10.3882286,6.31785344 0.292857143,6.46862219 0.292857143,18.9543784 C0.292857143,31.4401347 8.73592857,33.5462222 8.73592857,33.5462222" id="Fill-13" fill="#FEFEFE"></path>
                            <path d="M8.73592857,33.5462222 L8.73592857,24.5205503 C8.73592857,18.8041941 12.2109714,18.2022878 13.7121571,18.2022878 L31.6537571,18.2022878 L31.6537571,23.3167378 L43.1120857,11.8846097 L31.6537571,0.451312813 L31.6537571,6.31785344 L14.6165,6.31785344 C10.3882286,6.31785344 0.292857143,6.46862219 0.292857143,18.9543784 C0.292857143,31.4401347 8.73592857,33.5462222 8.73592857,33.5462222 Z" id="Stroke-15" stroke="#D73F63" stroke-width="1.75439997" stroke-linecap="round"></path>
                        </g>
                    </g>
                </g>
            </g>
        </g>
    </g>
</svg>