<?xml version="1.0" encoding="UTF-8"?>
<svg width="114px" height="114px" viewBox="0 0 114 114" version="1.1" xmlns="http://www.w3.org/2000/svg" xmlns:xlink="http://www.w3.org/1999/xlink">
    <!-- Generator: Sketch 52.3 (67297) - http://www.bohemiancoding.com/sketch -->
    <title>Group 13</title>
    <desc>Created with Sketch.</desc>
    <defs>
        <linearGradient x1="50%" y1="0%" x2="50%" y2="100%" id="linearGradient-1">
            <stop stop-color="#F6F7FA" offset="0%"></stop>
            <stop stop-color="#FFFFFF" offset="100%"></stop>
        </linearGradient>
    </defs>
    <g id="Page-1" stroke="none" stroke-width="1" fill="none" fill-rule="evenodd">
        <g id="01_cao" transform="translate(-521.000000, -991.000000)">
            <g id="Group-13" transform="translate(523.000000, 993.000000)">
                <g id="Group-12">
                    <g id="Group-3">
                        <ellipse id="Oval-Copy-2" stroke="#A295CA" stroke-width="2.21850007" fill="url(#linearGradient-1)" fill-rule="nonzero" cx="55" cy="55.1324503" rx="55" ry="55.1324503"></ellipse>
                        <g id="Group-25" transform="translate(11.000000, 27.933775)">
                            <polyline id="Fill-1" fill="#FEFEFE" points="57.4073133 61.952849 30.6934467 61.952849 32.8135133 55.3648887 41.0818467 55.3648887 56.1012467 55.1796437"></polyline>
                            <g id="Group-6" transform="translate(0.000000, 54.333397)" stroke="#C1B5E3" stroke-linecap="round" stroke-width="2.44034991">
                                <path d="M0.476593333,0.685553642 L86.7781933,0.685553642" id="Stroke-2"></path>
                                <polyline id="Stroke-4" points="56.1011 0.846393377 58.1896333 7.60783709 30.2437667 7.60783709 32.4914333 1.32861854"></polyline>
                            </g>
                            <polygon id="Fill-7" fill="#FEFEFE" points="0.808866667 49.7993046 86.4673333 49.7993046 86.4673333 0.642476821 0.808866667 0.642476821"></polygon>
                            <polygon id="Stroke-8" stroke="#C1B5E3" stroke-width="2.44034991" stroke-linecap="round" points="0.808866667 49.7993046 86.4673333 49.7993046 86.4673333 0.642476821 0.808866667 0.642476821"></polygon>
                            <path d="M28.5939133,6.86707748 L7.71518,28.1180642" id="Stroke-10" stroke="#AB9DD6" stroke-width="2.44034991" stroke-linecap="round"></path>
                            <path d="M18.4761867,8.15497152 L8.66198667,17.9156205" id="Stroke-11" stroke="#AB9DD6" stroke-width="2.44034991" stroke-linecap="round"></path>
                            <g id="Group-24" transform="translate(27.866667, 12.432735)" fill="#D73F63">
                                <path d="M26.7190733,10.0810788 C26.76454,10.0046285 26.8136733,9.92229735 26.8576733,9.83923113 C27.40254,8.77480728 27.6474733,7.58541656 27.55874,6.40337682 L27.50374,5.77266159 C27.37614,5.15811854 27.17594,4.5399 26.88554,3.95770132 L26.6516067,3.52399272 C26.4844067,3.25127086 26.3010733,2.9888404 26.09574,2.74111192 L25.8640067,2.46765497 L25.3998067,2.00160199 L25.3066733,1.92147616 C24.8828067,1.55760199 24.41274,1.24444967 23.9060067,0.994515894 C23.55914,0.819562252 23.1888067,0.674012583 22.80014,0.558601987 L22.4540067,0.463039073 L22.31174,0.429959603 C21.6326733,0.290290728 20.91694,0.251330464 20.21514,0.323370199 L19.6966733,0.391734437 C18.7638733,0.563012583 17.8648067,0.931297351 17.0882067,1.45983377 L16.67754,1.7649 C16.1532067,2.18464172 15.6992733,2.67862848 15.3282067,3.22995298 L13.9246067,5.60579404 C13.91874,5.56756887 13.9070067,5.52640331 13.89894,5.48450265 L13.7926067,5.05814503 L13.7486067,4.90009868 C13.6906733,4.74793311 13.6320067,4.58915166 13.56894,4.43478079 L13.4046733,4.06502583 C13.2594733,3.77319139 13.0996067,3.49311854 12.92214,3.23068808 L12.44914,2.62423113 L12.3032067,2.45736358 C11.7532067,1.87001921 11.1144733,1.39220464 10.39654,1.03568146 C10.1516067,0.914390066 9.89567333,0.805595364 9.62580667,0.71076755 L9.36254,0.625496026 L8.91154,0.501264238 C7.56220667,0.18884702 6.06400667,0.313813907 4.77187333,0.849701325 L4.33114,1.05332384 L4.21747333,1.05479404 C3.96594,1.24665497 3.74080667,1.38485364 3.53034,1.53187351 L3.18494,1.78327748 C2.44207333,2.37282715 1.84587333,3.0983702 1.41614,3.93932384 C0.515606667,5.69180066 0.456206667,7.73390662 1.25700667,9.54151589 L1.40734,9.8715755 L1.47480667,10.0031583 C1.55107333,10.1303305 1.63100667,10.267794 1.71534,10.4001119 L1.98447333,10.800006 C2.13554,10.9955424 2.29540667,11.1881384 2.46334,11.3667675 L2.77574,11.6813901 C2.97740667,11.8681053 3.18934,12.0430589 3.41300667,12.2033106 L3.72760667,12.4201649 C3.87720667,12.5149927 4.02314,12.6039397 4.17787333,12.687006 L4.55700667,12.8759265 C4.64867333,12.9156219 4.73447333,12.9523768 4.80634,12.9817808 C5.62840667,13.3228669 6.49960667,13.4948801 7.38914,13.4919397 C7.56074,13.4912046 7.74114,13.4816483 7.92887333,13.4654762 L8.32414,13.4228404 C8.55587333,13.3890258 8.78980667,13.3427146 9.02154,13.2853768 L9.54440667,13.1324762 L8.43707333,15.0341781 C8.35420667,15.1789927 8.28967333,15.2885225 8.22954,15.3980523 C7.60400667,16.6183172 7.37300667,17.9297344 7.53800667,19.2249795 L7.54240667,19.3220126 L7.63774,19.9159728 C7.68100667,19.9931583 7.71254,20.1056285 7.74260667,20.2136881 L7.88560667,20.6709199 L7.95307333,20.8605755 C8.16060667,21.3442709 8.42460667,21.8169397 8.74360667,22.2543238 L9.03767333,22.6395159 C9.08460667,22.6858272 9.13080667,22.7380192 9.17334,22.788006 L9.43880667,23.0644033 C9.80914,23.4290126 10.2278733,23.7524563 10.6818067,24.0281185 L11.02134,24.2199795 C11.0638733,24.2427675 11.1100733,24.2670258 11.15554,24.2890788 C11.2200733,24.3221583 11.2860733,24.3522974 11.3520733,24.3839066 L11.63294,24.5081384 L11.73854,24.549304 C12.52394,24.8492245 13.3460067,25.0013901 14.1820067,24.9991848 C14.5648067,24.9977146 14.9512733,24.9609596 15.33554,24.8948007 L15.8136733,24.7999728 L15.9896733,24.7580722 C16.2162733,24.6816219 16.45534,24.601496 16.6900067,24.5074033 L16.6372067,24.5838536 L17.3874067,24.1802841 C18.3128733,23.6767411 19.11514,22.9578139 19.7076733,22.0940722 L26.6472067,10.2075159 L26.7190733,10.0810788 Z" id="Fill-12"></path>
                                <path d="M27.5511867,18.8153821 C25.7376533,18.8212629 24.2680533,20.2774947 24.27392,22.063051 C24.2797867,23.8486073 25.7581867,25.2945477 27.5709867,25.289402 C29.3830533,25.2835212 30.8526533,23.8280245 30.8467867,22.0432033 C30.84092,20.257647 29.3632533,18.8095013 27.5511867,18.8153821" id="Fill-14"></path>
                            </g>
                        </g>
                    </g>
                </g>
            </g>
        </g>
    </g>
</svg>