<?xml version="1.0" encoding="UTF-8"?>
<svg width="31px" height="31px" viewBox="0 0 31 31" version="1.1" xmlns="http://www.w3.org/2000/svg" xmlns:xlink="http://www.w3.org/1999/xlink">
    <!-- Generator: Sketch 52.3 (67297) - http://www.bohemiancoding.com/sketch -->
    <title>Group 24</title>
    <desc>Created with Sketch.</desc>
    <g id="Symbols" stroke="none" stroke-width="1" fill="none" fill-rule="evenodd">
        <g id="footer2" transform="translate(-957.000000, -116.000000)">
            <g id="footer" transform="translate(0.000000, 12.000000)">
                <g id="Group-30-Copy" transform="translate(957.333333, 104.343750)">
                    <g id="Group-24">
                        <rect id="Rectangle-6" fill="#FFFFFF" x="5.01960784" y="6.459375" width="21.0823529" height="17.8875"></rect>
                        <path d="M21.0465882,11.8672383 C21.0531765,11.9985996 21.056,12.1299609 21.056,12.2622539 C21.056,16.3037109 17.9482353,20.9637773 12.2654118,20.9637773 C10.5204706,20.9637773 8.89694118,20.4578965 7.52941176,19.5896074 C7.77223529,19.6194199 8.01788235,19.6315312 8.26635294,19.6315312 C9.71482353,19.6315312 11.0456471,19.1442832 12.1025882,18.3235078 C10.752,18.3002168 9.61035294,17.4151582 9.21788235,16.2002988 C9.40611765,16.2366328 9.59905882,16.254334 9.79858824,16.254334 C10.0809412,16.254334 10.3538824,16.218 10.6117647,16.1471953 C9.2,15.8667715 8.13458824,14.6295527 8.13458824,13.1482441 C8.13458824,13.1361328 8.13458824,13.1230898 8.13458824,13.1100469 C8.55152941,13.3392305 9.02776471,13.4780449 9.53411765,13.4929512 C8.70494118,12.9451465 8.16,12.007916 8.16,10.9467773 C8.16,10.3868613 8.31247059,9.86234766 8.57788235,9.40957031 C10.1007059,11.2598086 12.3783529,12.4774629 14.9458824,12.604166 C14.8931765,12.3805723 14.8658824,12.1476621 14.8658824,11.9072988 C14.8658824,10.219166 16.2494118,8.85058594 17.9557647,8.85058594 C18.8432941,8.85058594 19.6470588,9.22231055 20.2108235,9.81483398 C20.9138824,9.67881445 21.5755294,9.42354492 22.1731765,9.07417969 C21.9416471,9.78781641 21.4522353,10.387793 20.8141176,10.7651074 C21.4390588,10.6924395 22.0348235,10.5284707 22.5882353,10.2843809 C22.1750588,10.8974004 21.6508235,11.4358887 21.0465882,11.8672383 Z M25.4117647,0 L4.70588235,0 C2.10635294,0 0,2.086875 0,4.65820312 L0,25.1542969 C0,27.7274883 2.10635294,29.8125 4.70588235,29.8125 L25.4117647,29.8125 C28.0112941,29.8125 30.1176471,27.7274883 30.1176471,25.1542969 L30.1176471,4.65820312 C30.1176471,2.086875 28.0112941,0 25.4117647,0 Z" id="Fill-548" fill="#38A0CD"></path>
                    </g>
                </g>
            </g>
        </g>
    </g>
</svg>