<?xml version="1.0" encoding="UTF-8"?>
<svg width="19px" height="24px" viewBox="0 0 19 24" version="1.1" xmlns="http://www.w3.org/2000/svg" xmlns:xlink="http://www.w3.org/1999/xlink">
    <!-- Generator: Sketch 52.3 (67297) - http://www.bohemiancoding.com/sketch -->
    <title>Group 10</title>
    <desc>Created with Sketch.</desc>
    <g id="Page-1" stroke="none" stroke-width="1" fill="none" fill-rule="evenodd">
        <g id="mobile-cao" transform="translate(-225.000000, -2146.000000)" fill="#FFFFFF">
            <g id="Group-54" transform="translate(0.000000, 2138.000000)">
                <g id="Group-52" transform="translate(16.000000, 8.000000)">
                    <g id="Group-37" transform="translate(185.000000, 0.000000)">
                        <g id="Group-10" transform="translate(24.000000, 0.000000)">
                            <path d="M5.51455262,8.07814737 C5.66628393,8.50445474 5.77730684,8.94679579 5.95586869,9.36272842 C6.23897712,10.0436884 6.65438785,10.6586274 7.17804592,11.1688758 C7.40101693,11.3839158 7.56292534,11.5461389 7.83215591,11.6979874 C8.41225062,12.0262063 8.96643999,12.0262063 9.24492246,12.0262063 C9.74452557,12.02432 10.2367271,11.9054821 10.6854447,11.6781811 C11.9140983,11.0302316 12.4238785,9.62586947 12.7273411,8.73552842 C12.8281869,8.43843368 13.1557045,5.51464421 13.167732,5.38354526 C13.1982633,5.08267789 13.3250145,3.98295579 13.332416,3.57268211 C13.3379672,3.33406316 13.3416679,2.89643789 13.1381259,2.41354105 C12.9725167,2.01552842 12.745845,1.77879579 12.459961,1.48453053 C11.9113227,0.921465263 11.2470356,0.493271579 10.5142844,0.231073684 C10.1978691,0.120724211 9.87220192,0.0424421053 9.54190875,0 L8.36414069,0.0462147368 C8.00424142,0.0971452632 7.65451925,0.199006316 7.32330089,0.347082105 C6.75245809,0.603621053 6.24915422,0.996917895 5.85594807,1.49396211 C5.60059537,1.83161263 5.14170067,2.44277895 5.10469303,3.26426947 C5.0778625,3.96597895 5.12689762,4.66768842 5.24902282,5.35902316 C5.27307778,5.50426947 5.45996635,7.92441263 5.51455262,8.07814737" id="Fill-6"></path>
                            <path d="M15.7727203,15.287258 C13.9584209,14.6374222 12.2856757,13.7272748 12.0044177,13.1764706 C12.0044177,13.1764706 11.1162344,14.3110895 9.49900062,14.4657674 C7.88269206,14.6204453 6.78911637,13.1764706 6.78911637,13.1764706 C6.50693314,13.7272748 4.83511312,14.6374222 3.01988851,15.287258 C1.20558909,15.9389801 0.815158516,17.181119 0.815158516,17.181119 C0.0222698857,18.9089843 -0.0804263079,22.4882685 0.0444744681,23.655898 L18.7490596,23.655898 C18.8739604,22.4882685 18.7712642,18.9089843 17.9774503,17.181119 C17.9774503,17.181119 17.587945,15.9389801 15.7727203,15.287258" id="Fill-8"></path>
                        </g>
                    </g>
                </g>
            </g>
        </g>
    </g>
</svg>