<?xml version="1.0" encoding="UTF-8"?>
<svg width="113px" height="37px" viewBox="0 0 113 37" version="1.1" xmlns="http://www.w3.org/2000/svg" xmlns:xlink="http://www.w3.org/1999/xlink">
    <!-- Generator: Sketch 52.3 (67297) - http://www.bohemiancoding.com/sketch -->
    <title>Group 30 Copy</title>
    <desc>Created with Sketch.</desc>
    <g id="modificaciones-CAO" stroke="none" stroke-width="1" fill="none" fill-rule="evenodd">
        <g id="menu-desplegable-01" transform="translate(-26.000000, -19.000000)">
            <g id="Group-30-Copy" transform="translate(26.000000, 19.000000)">
                <g id="Group-2">
                    <path d="M6.84833354,11.2379094 C6.4452802,11.331773 6.02562994,11.3813555 5.59459459,11.3813555 C2.50478532,11.3813555 0,8.83355231 0,5.69067776 C0,2.54780322 2.50478532,0 5.59459459,0 C8.27963802,0 10.5228944,1.92400043 11.0645506,4.49055164 L12.2258414,2.63209783 C13.772227,0.157363558 17.0319888,-0.595211735 19.506723,0.951173865 C21.9814573,2.49755946 22.7340326,5.75732119 21.187647,8.23205546 L15.3953388,17.5016862 C13.8489532,19.9764205 10.5891915,20.7289958 8.11445723,19.1826102 C5.63972296,17.6362246 4.88714767,14.3764629 6.43353327,11.9017286 L6.84833354,11.2379094 Z M20.8243243,19.6012234 C19.6227318,19.6012234 18.6486486,18.610411 18.6486486,17.3881821 C18.6486486,16.1659531 19.6227318,15.1751407 20.8243243,15.1751407 C22.0259168,15.1751407 23,16.1659531 23,17.3881821 C23,18.610411 22.0259168,19.6012234 20.8243243,19.6012234 Z" id="Combined-Shape" fill="#FFFFFF"></path>
                    <path d="M38.7417299,18.4450922 C40.2111033,18.4091997 40.6763024,17.2880874 40.7603251,17.0938457 C40.8443479,16.8953814 45.0188439,5.24932554 45.0188439,5.24932554 C45.0372879,5.20287644 45.0475346,5.15220469 45.0475346,5.10153295 C45.0454853,4.86506481 44.8262064,4.76583265 44.6663582,4.76583265 L42.2419946,4.76583265 C42.0288637,4.76372132 41.8259795,4.85239687 41.7685981,5.02974798 C41.7112167,5.16909528 38.7499272,14.2393375 38.7499272,14.2393375 C38.7540259,14.2456714 35.7701937,5.16909528 35.7128123,5.02974798 C35.6533816,4.8545082 35.454596,4.76372132 35.2414652,4.76583265 L32.8171015,4.76583265 C32.6572533,4.76583265 32.4379745,4.86506481 32.4359251,5.10153295 C32.4359251,5.15220469 32.4461718,5.20287644 32.4646158,5.24932554 C32.4646158,5.24932554 36.6514079,16.9376078 36.7210853,17.0938457 C36.7887133,17.2521949 37.2723565,18.4091997 38.7417299,18.4450922 L38.7417299,18.4450922 Z M57.5013453,9.6978824 C57.5013453,9.13415925 57.6939828,8.78156836 57.9849884,8.46486996 C58.2534513,8.17350744 58.6961078,8.03416014 59.0649881,8.03416014 L62.3623686,8.03627146 C62.5160688,8.03627146 62.6800156,8.00882427 62.8132224,7.88847887 C62.9546265,7.75757687 62.9812679,7.58022576 62.9812679,7.46410302 L62.9894652,5.29366331 C62.9894652,5.17754057 62.9607745,5.00230078 62.8214197,4.87139878 C62.7066569,4.76583265 62.5795982,4.73627413 62.45049,4.72994016 L62.4525394,4.72360619 L59.3928818,4.72360619 C57.921459,4.72360619 56.6037364,5.04874988 55.6999795,5.89961292 C54.798272,6.75047596 54.2982342,8.09327717 54.3002835,9.98924493 L54.3002835,17.7462444 C54.3002835,17.9067049 54.3248755,18.0777221 54.4416877,18.2149581 C54.5687464,18.3627506 54.7388413,18.3880865 54.847456,18.3880865 L56.9439261,18.3965318 C57.0566395,18.3965318 57.224685,18.3690846 57.3537931,18.2255147 C57.4501119,18.1072806 57.4829013,17.9700446 57.4869999,17.83492 L57.4890493,17.8412539 L57.5013453,9.6978824 Z M46.4390333,1.2969295 C46.4390333,1.1385803 46.4656746,0.969674484 46.5804374,0.828215865 C46.7115949,0.680423278 46.8796404,0.652976083 46.9923538,0.652976083 L49.0826758,0.652976083 C49.1953893,0.652976083 49.3654841,0.678311955 49.4904936,0.828215865 C49.6114043,0.969674484 49.6318977,1.1385803 49.6318977,1.29481817 L49.6318977,4.78483455 L52.3062803,4.77850058 C52.4599804,4.77850058 52.6177792,4.80594778 52.7591834,4.92629317 C52.8985382,5.05719517 52.9272289,5.23243496 52.9272289,5.3485577 L52.9272289,7.49788418 C52.9272289,7.61611825 52.8985382,7.78713539 52.7591834,7.91803739 C52.6177792,8.04049411 52.4579311,8.06371866 52.3062803,8.06371866 L49.6318977,8.06371866 L49.6318977,13.4750387 C49.6318977,14.0387618 49.8163379,14.3892414 50.1093928,14.7059398 C50.3778557,14.9973023 50.8205122,15.1408722 51.1873432,15.1408722 L52.2980829,15.1450949 C52.4497337,15.1450949 52.6177792,15.1598742 52.7550847,15.2823309 C52.8964888,15.4111215 52.9231302,15.5863613 52.9231302,15.7067067 L52.9292782,17.8729238 C52.9292782,17.9932692 52.9026368,18.1663976 52.7612327,18.299411 C52.6464699,18.4007545 52.5173618,18.4366469 52.3882537,18.4450922 L51.5152368,18.4472036 C50.0479128,18.4450922 48.7281408,18.1262825 47.8264333,17.2733081 C46.9185777,16.4224451 46.4369839,15.0775326 46.4390333,13.1836761 L46.4390333,1.2969295 Z M72.0844153,5.96717524 C74.1808853,5.96717524 75.9043763,7.17485181 76.6892718,9.20594422 C76.7077158,9.25872729 76.7671465,9.29884242 76.8286266,9.29884242 L77.7877155,9.29884242 C77.8328009,9.29884242 77.8799356,9.27350655 77.9086263,9.23339142 C77.937317,9.19749893 77.9455143,9.14260454 77.9311689,9.09404412 C77.0499548,6.3915511 74.8120806,4.71093826 72.0844153,4.71093826 C68.6025946,4.71093826 65.7745119,7.81247126 65.7745119,11.6276313 C65.7745119,15.387897 68.6025946,18.4472036 72.0844153,18.4472036 C74.8366726,18.4472036 77.0786455,16.768702 77.9311689,14.0619864 C77.9455143,14.0155373 77.937317,13.9648655 77.9065769,13.9226391 C77.8799356,13.8825239 77.8328009,13.8592994 77.7877155,13.8592994 L76.8532186,13.8592994 C76.7876398,13.8592994 76.7323078,13.8994145 76.7077158,13.9585316 C75.9781524,15.9980693 74.2464641,17.2141911 72.0844153,17.2141911 C69.2624806,17.2141911 66.9631264,14.7080511 66.9631264,11.6276313 C66.9631264,8.50709642 69.2624806,5.96717524 72.0844153,5.96717524 L72.0844153,5.96717524 Z M106.50915,4.71093826 C104.621712,4.71093826 103.08676,5.67792404 102.334654,7.31842175 C101.537462,5.70114859 99.9184875,4.71093826 98.026951,4.71093826 C96.5350349,4.71093826 95.2378056,5.33588977 94.3893808,6.44011152 L94.3893808,5.1902085 C94.3893808,5.10364427 94.3258514,5.03397062 94.2418287,5.03397062 L93.3544665,5.03397062 C93.2704437,5.03397062 93.2028157,5.10364427 93.2028157,5.1902085 L93.2028157,17.9932692 C93.2028157,18.0819447 93.2704437,18.1473957 93.3544665,18.1473957 L94.2418287,18.1473957 C94.3258514,18.1473957 94.3893808,18.0819447 94.3893808,17.9932692 L94.3893808,9.74010886 C94.3893808,7.55488989 95.9181849,5.96717524 98.026951,5.96717524 C100.145964,5.96717524 101.687064,7.55488989 101.687064,9.74010886 L101.687064,17.9932692 C101.687064,18.0819447 101.750593,18.1473957 101.836665,18.1473957 L102.724027,18.1473957 C102.80805,18.1473957 102.873629,18.0819447 102.873629,17.9932692 L102.873629,9.74010886 C102.873629,7.55488989 104.404482,5.96717524 106.50915,5.96717524 C108.630212,5.96717524 110.169263,7.55488989 110.169263,9.74010886 L110.169263,17.9932692 C110.169263,18.0819447 110.23894,18.1473957 110.318864,18.1473957 L111.206226,18.1473957 C111.290249,18.1473957 111.355828,18.0819447 111.355828,17.9932692 L111.355828,9.74010886 C111.355828,6.82648357 109.316739,4.71093826 106.50915,4.71093826 L106.50915,4.71093826 Z M85.3620588,4.71093826 C81.7080939,4.71093826 78.7447551,7.78291274 78.7447551,11.5790709 C78.7447551,15.3710064 81.7080939,18.4472036 85.3620588,18.4472036 C89.018073,18.4472036 91.9814118,15.3710064 91.9814118,11.5790709 C91.9814118,7.78291274 89.018073,4.71093826 85.3620588,4.71093826 L85.3620588,4.71093826 Z M85.3620588,17.239527 C82.3474865,17.239527 79.9087775,14.7059398 79.9087775,11.5790709 C79.9087775,8.45642467 82.3474865,5.9165035 85.3620588,5.9165035 C88.376631,5.9165035 90.81534,8.45642467 90.81534,11.5790709 C90.81534,14.7059398 88.376631,17.239527 85.3620588,17.239527 L85.3620588,17.239527 Z M64.5858974,16.7898153 C64.5858974,15.8756125 63.8727287,15.132427 62.9894652,15.132427 C62.108251,15.132427 61.3909837,15.8756125 61.3909837,16.7898153 C61.3909837,17.704018 62.108251,18.4472036 62.9894652,18.4472036 C63.8727287,18.4472036 64.5858974,17.704018 64.5858974,16.7898153 L64.5858974,16.7898153 Z" id="Fill-100" fill="#FEFEFE"></path>
                </g>
                <path d="M7.61,33.714 C7.61,33.846 7.511,33.912 7.39,33.934 C6.928,34.022 6.499,34.077 5.564,34.077 C4.211,34.077 2.66,33.351 2.66,30.678 L2.66,29.149 C2.66,26.454 4.211,25.75 5.564,25.75 C6.257,25.75 6.928,25.849 7.412,25.926 C7.511,25.937 7.588,25.97 7.588,26.069 L7.588,26.63 C7.588,26.696 7.566,26.751 7.456,26.751 L7.423,26.751 C7.027,26.718 6.213,26.652 5.575,26.652 C4.497,26.652 3.661,27.279 3.661,29.149 L3.661,30.678 C3.661,32.526 4.497,33.175 5.575,33.175 C6.202,33.175 6.994,33.12 7.39,33.087 L7.434,33.087 C7.555,33.087 7.61,33.142 7.61,33.263 L7.61,33.714 Z M13.407,31.041 C13.407,31.184 13.33,31.283 13.198,31.283 L9.513,31.283 L9.513,31.437 C9.513,32.746 10.03,33.23 11.042,33.23 C11.68,33.23 12.494,33.186 13,33.109 L13.055,33.109 C13.143,33.109 13.231,33.153 13.231,33.263 L13.231,33.637 C13.231,33.78 13.187,33.857 13.011,33.89 C12.384,34.011 11.779,34.077 11.042,34.077 C9.777,34.077 8.545,33.483 8.545,31.437 L8.545,30.447 C8.545,28.874 9.414,27.873 10.987,27.873 C12.593,27.873 13.407,28.885 13.407,30.447 L13.407,31.041 Z M12.428,30.546 L12.428,30.447 C12.428,29.204 11.955,28.72 10.987,28.72 C10.041,28.72 9.513,29.259 9.513,30.447 L9.513,30.546 L12.428,30.546 Z M19.358,33.78 C19.358,33.901 19.259,34 19.138,34 L18.61,34 C18.489,34 18.39,33.901 18.39,33.78 L18.39,30.161 C18.39,29.05 18.016,28.709 17.18,28.709 C16.718,28.709 16.201,28.885 15.695,29.138 L15.695,33.78 C15.695,33.89 15.596,34 15.475,34 L14.936,34 C14.826,34 14.727,33.901 14.727,33.78 L14.727,28.17 C14.727,28.049 14.815,27.95 14.936,27.95 L15.486,27.95 C15.607,27.95 15.695,28.049 15.695,28.17 L15.695,28.379 C16.3,28.038 16.795,27.873 17.444,27.873 C18.764,27.873 19.358,28.698 19.358,30.161 L19.358,33.78 Z M24.066,33.835 C24.066,33.934 24.011,34 23.868,34.022 C23.648,34.055 23.362,34.077 23.153,34.077 C22.141,34.077 21.657,33.813 21.657,32.603 L21.657,28.764 L20.59,28.643 C20.469,28.632 20.381,28.566 20.381,28.445 L20.381,28.148 C20.381,28.027 20.469,27.95 20.59,27.95 L21.657,27.95 L21.657,26.872 C21.657,26.762 21.734,26.674 21.855,26.652 L22.427,26.564 L22.46,26.564 C22.548,26.564 22.625,26.641 22.625,26.751 L22.625,27.95 L23.813,27.95 C23.934,27.95 24.033,28.049 24.033,28.17 L24.033,28.544 C24.033,28.665 23.934,28.764 23.813,28.764 L22.625,28.764 L22.625,32.603 C22.625,33.208 22.779,33.296 23.219,33.296 L23.835,33.296 C23.989,33.296 24.066,33.34 24.066,33.45 L24.066,33.835 Z M27.806,28.522 C27.806,28.643 27.729,28.709 27.575,28.709 C27.069,28.709 26.607,28.841 26.057,29.171 L26.057,33.78 C26.057,33.89 25.958,34 25.837,34 L25.298,34 C25.188,34 25.089,33.901 25.089,33.78 L25.089,28.17 C25.089,28.049 25.177,27.95 25.298,27.95 L25.815,27.95 C25.936,27.95 26.024,28.049 26.024,28.17 L26.024,28.401 C26.574,28.016 27.08,27.873 27.575,27.873 C27.729,27.873 27.806,27.939 27.806,28.071 L27.806,28.522 Z M33.548,31.393 C33.548,33.01 32.712,34.077 31.095,34.077 C29.478,34.077 28.653,33.01 28.653,31.393 L28.653,30.557 C28.653,28.94 29.478,27.873 31.095,27.873 C32.712,27.873 33.548,28.94 33.548,30.557 L33.548,31.393 Z M32.58,31.393 L32.58,30.557 C32.58,29.435 32.129,28.72 31.095,28.72 C30.072,28.72 29.621,29.424 29.621,30.557 L29.621,31.393 C29.621,32.515 30.061,33.23 31.095,33.23 C32.118,33.23 32.58,32.526 32.58,31.393 Z M42.018,33.637 C42.018,33.78 41.985,33.857 41.787,33.89 C41.105,34.022 40.434,34.077 39.763,34.077 C38.124,34.077 37.365,33.01 37.365,31.36 L37.365,30.568 C37.365,28.841 38.157,27.873 39.763,27.873 C40.104,27.873 40.621,27.906 41.05,27.983 L41.05,25.937 C41.05,25.827 41.138,25.728 41.259,25.728 L41.82,25.728 C41.93,25.728 42.018,25.816 42.018,25.937 L42.018,33.637 Z M41.05,33.164 L41.05,28.797 C40.687,28.731 40.115,28.72 39.763,28.72 C38.685,28.72 38.333,29.391 38.333,30.568 L38.333,31.36 C38.333,32.559 38.674,33.23 39.763,33.23 C40.137,33.23 40.676,33.197 41.05,33.164 Z M48.178,31.041 C48.178,31.184 48.101,31.283 47.969,31.283 L44.284,31.283 L44.284,31.437 C44.284,32.746 44.801,33.23 45.813,33.23 C46.451,33.23 47.265,33.186 47.771,33.109 L47.826,33.109 C47.914,33.109 48.002,33.153 48.002,33.263 L48.002,33.637 C48.002,33.78 47.958,33.857 47.782,33.89 C47.155,34.011 46.55,34.077 45.813,34.077 C44.548,34.077 43.316,33.483 43.316,31.437 L43.316,30.447 C43.316,28.874 44.185,27.873 45.758,27.873 C47.364,27.873 48.178,28.885 48.178,30.447 L48.178,31.041 Z M47.199,30.546 L47.199,30.447 C47.199,29.204 46.726,28.72 45.758,28.72 C44.812,28.72 44.284,29.259 44.284,30.447 L44.284,30.546 L47.199,30.546 Z M56.428,33.78 C56.428,33.901 56.329,34 56.208,34 L55.702,34 C55.581,34 55.482,33.901 55.482,33.78 L55.482,33.538 C54.954,33.846 54.404,34.077 53.788,34.077 C52.853,34.077 51.995,33.67 51.995,32.295 L51.995,32.163 C51.995,30.975 52.688,30.381 54.646,30.381 L55.46,30.381 L55.46,29.941 C55.46,29.017 55.141,28.698 54.283,28.698 C53.568,28.698 53.04,28.742 52.6,28.786 L52.545,28.786 C52.446,28.786 52.347,28.753 52.347,28.61 L52.347,28.225 C52.347,28.104 52.424,28.038 52.578,28.016 C53.029,27.939 53.535,27.873 54.283,27.873 C55.812,27.873 56.428,28.643 56.428,29.941 L56.428,33.78 Z M55.46,32.845 L55.46,31.074 L54.646,31.074 C53.315,31.074 52.963,31.371 52.963,32.152 L52.963,32.284 C52.963,33.076 53.337,33.285 53.975,33.285 C54.481,33.285 54.932,33.131 55.46,32.845 Z M62.621,28.137 C62.621,28.159 62.621,28.192 62.61,28.214 L60.795,34.55 C60.454,35.738 60.047,36.178 58.782,36.178 C58.474,36.178 58.089,36.134 57.858,36.079 C57.726,36.046 57.627,36.013 57.627,35.903 L57.627,35.496 C57.627,35.375 57.715,35.32 57.836,35.32 L57.869,35.32 C58.111,35.342 58.606,35.386 58.848,35.386 C59.475,35.386 59.75,35.221 59.937,34.451 L60.047,34 L59.893,34 C59.563,34 59.277,33.923 59.079,33.241 L57.616,28.214 C57.605,28.192 57.605,28.159 57.605,28.137 C57.605,28.027 57.671,27.95 57.803,27.95 L58.408,27.95 C58.496,27.95 58.573,28.038 58.595,28.126 L59.893,32.9 C59.948,33.12 60.025,33.142 60.102,33.142 L60.278,33.142 L61.62,28.115 C61.642,28.027 61.73,27.95 61.829,27.95 L62.445,27.95 C62.555,27.95 62.621,28.027 62.621,28.137 Z M68.429,33.78 C68.429,33.901 68.341,34 68.22,34 L67.67,34 C67.549,34 67.461,33.901 67.461,33.78 L67.461,33.571 C66.856,33.912 66.361,34.077 65.712,34.077 C64.392,34.077 63.798,33.252 63.798,31.789 L63.798,28.17 C63.798,28.049 63.897,27.95 64.018,27.95 L64.546,27.95 C64.667,27.95 64.766,28.049 64.766,28.17 L64.766,31.789 C64.766,32.9 65.14,33.241 65.976,33.241 C66.438,33.241 66.955,33.065 67.461,32.812 L67.461,28.17 C67.461,28.06 67.56,27.95 67.681,27.95 L68.22,27.95 C68.33,27.95 68.429,28.049 68.429,28.17 L68.429,33.78 Z M74.38,33.637 C74.38,33.78 74.347,33.857 74.149,33.89 C73.467,34.022 72.796,34.077 72.125,34.077 C70.486,34.077 69.727,33.01 69.727,31.36 L69.727,30.568 C69.727,28.841 70.519,27.873 72.125,27.873 C72.466,27.873 72.983,27.906 73.412,27.983 L73.412,25.937 C73.412,25.827 73.5,25.728 73.621,25.728 L74.182,25.728 C74.292,25.728 74.38,25.816 74.38,25.937 L74.38,33.637 Z M73.412,33.164 L73.412,28.797 C73.049,28.731 72.477,28.72 72.125,28.72 C71.047,28.72 70.695,29.391 70.695,30.568 L70.695,31.36 C70.695,32.559 71.036,33.23 72.125,33.23 C72.499,33.23 73.038,33.197 73.412,33.164 Z M80.089,33.78 C80.089,33.901 79.99,34 79.869,34 L79.363,34 C79.242,34 79.143,33.901 79.143,33.78 L79.143,33.538 C78.615,33.846 78.065,34.077 77.449,34.077 C76.514,34.077 75.656,33.67 75.656,32.295 L75.656,32.163 C75.656,30.975 76.349,30.381 78.307,30.381 L79.121,30.381 L79.121,29.941 C79.121,29.017 78.802,28.698 77.944,28.698 C77.229,28.698 76.701,28.742 76.261,28.786 L76.206,28.786 C76.107,28.786 76.008,28.753 76.008,28.61 L76.008,28.225 C76.008,28.104 76.085,28.038 76.239,28.016 C76.69,27.939 77.196,27.873 77.944,27.873 C79.473,27.873 80.089,28.643 80.089,29.941 L80.089,33.78 Z M79.121,32.845 L79.121,31.074 L78.307,31.074 C76.976,31.074 76.624,31.371 76.624,32.152 L76.624,32.284 C76.624,33.076 76.998,33.285 77.636,33.285 C78.142,33.285 78.593,33.131 79.121,32.845 Z M88.999,31.393 C88.999,33.01 88.163,34.077 86.546,34.077 C84.929,34.077 84.104,33.01 84.104,31.393 L84.104,30.557 C84.104,28.94 84.929,27.873 86.546,27.873 C88.163,27.873 88.999,28.94 88.999,30.557 L88.999,31.393 Z M88.031,31.393 L88.031,30.557 C88.031,29.435 87.58,28.72 86.546,28.72 C85.523,28.72 85.072,29.424 85.072,30.557 L85.072,31.393 C85.072,32.515 85.512,33.23 86.546,33.23 C87.569,33.23 88.031,32.526 88.031,31.393 Z M94.928,33.78 C94.928,33.901 94.829,34 94.708,34 L94.18,34 C94.059,34 93.96,33.901 93.96,33.78 L93.96,30.161 C93.96,29.05 93.586,28.709 92.75,28.709 C92.288,28.709 91.771,28.885 91.265,29.138 L91.265,33.78 C91.265,33.89 91.166,34 91.045,34 L90.506,34 C90.396,34 90.297,33.901 90.297,33.78 L90.297,28.17 C90.297,28.049 90.385,27.95 90.506,27.95 L91.056,27.95 C91.177,27.95 91.265,28.049 91.265,28.17 L91.265,28.379 C91.87,28.038 92.365,27.873 93.014,27.873 C94.334,27.873 94.928,28.698 94.928,30.161 L94.928,33.78 Z M97.502,33.78 C97.502,33.89 97.425,34 97.304,34 L96.732,34 C96.622,34 96.534,33.901 96.534,33.78 L96.534,25.937 C96.534,25.827 96.611,25.728 96.732,25.728 L97.304,25.728 C97.414,25.728 97.502,25.816 97.502,25.937 L97.502,33.78 Z M100.219,26.762 C100.219,26.883 100.12,26.982 99.999,26.982 L99.438,26.982 C99.317,26.982 99.218,26.883 99.218,26.762 L99.218,25.882 C99.218,25.761 99.317,25.662 99.438,25.662 L99.999,25.662 C100.12,25.662 100.219,25.761 100.219,25.882 L100.219,26.762 Z M100.197,33.78 C100.197,33.901 100.098,34 99.977,34 L99.449,34 C99.328,34 99.229,33.901 99.229,33.78 L99.229,28.17 C99.229,28.049 99.328,27.95 99.449,27.95 L99.977,27.95 C100.098,27.95 100.197,28.049 100.197,28.17 L100.197,33.78 Z M106.456,33.78 C106.456,33.901 106.357,34 106.236,34 L105.708,34 C105.587,34 105.488,33.901 105.488,33.78 L105.488,30.161 C105.488,29.05 105.114,28.709 104.278,28.709 C103.816,28.709 103.299,28.885 102.793,29.138 L102.793,33.78 C102.793,33.89 102.694,34 102.573,34 L102.034,34 C101.924,34 101.825,33.901 101.825,33.78 L101.825,28.17 C101.825,28.049 101.913,27.95 102.034,27.95 L102.584,27.95 C102.705,27.95 102.793,28.049 102.793,28.17 L102.793,28.379 C103.398,28.038 103.893,27.873 104.542,27.873 C105.862,27.873 106.456,28.698 106.456,30.161 L106.456,33.78 Z M112.616,31.041 C112.616,31.184 112.539,31.283 112.407,31.283 L108.722,31.283 L108.722,31.437 C108.722,32.746 109.239,33.23 110.251,33.23 C110.889,33.23 111.703,33.186 112.209,33.109 L112.264,33.109 C112.352,33.109 112.44,33.153 112.44,33.263 L112.44,33.637 C112.44,33.78 112.396,33.857 112.22,33.89 C111.593,34.011 110.988,34.077 110.251,34.077 C108.986,34.077 107.754,33.483 107.754,31.437 L107.754,30.447 C107.754,28.874 108.623,27.873 110.196,27.873 C111.802,27.873 112.616,28.885 112.616,30.447 L112.616,31.041 Z M111.637,30.546 L111.637,30.447 C111.637,29.204 111.164,28.72 110.196,28.72 C109.25,28.72 108.722,29.259 108.722,30.447 L108.722,30.546 L111.637,30.546 Z" id="Centro-de-ayuda-onli" fill="#FFFFFF"></path>
            </g>
        </g>
    </g>
</svg>