<?xml version="1.0" encoding="UTF-8"?>
<svg width="20px" height="16px" viewBox="0 0 20 16" version="1.1" xmlns="http://www.w3.org/2000/svg" xmlns:xlink="http://www.w3.org/1999/xlink">
    <!-- Generator: Sketch 52.3 (67297) - http://www.bohemiancoding.com/sketch -->
    <title>Shape</title>
    <desc>Created with Sketch.</desc>
    <g id="Page-1" stroke="none" stroke-width="1" fill="none" fill-rule="evenodd">
        <g id="mobile-cao" transform="translate(-73.000000, -2155.000000)" fill="#FFFFFF" fill-rule="nonzero">
            <g id="Group-54" transform="translate(0.000000, 2138.000000)">
                <g id="Group-52" transform="translate(16.000000, 8.000000)">
                    <g id="Group-50" transform="translate(47.000000, 9.000000)">
                        <path d="M19.6377358,15.9956061 C19.5169811,15.9489237 19.3952201,15.9047512 19.2754717,15.855559 C18.4226415,15.5031825 17.9486792,14.5715433 18.1519497,13.6469316 C18.3471698,12.7629786 19.1471698,12.1199668 20.0191195,12.1510884 C20.9474214,12.1832139 21.6885535,12.8593551 21.836478,13.8095668 C21.9758491,14.6955276 21.4304403,15.5945394 20.5745912,15.893708 C20.4880503,15.9238257 20.4045283,15.9619747 20.3194969,15.996108 L19.6377358,15.996108 L19.6377358,15.9956061 Z M30,5.55180999 C29.867673,5.79626489 29.7801258,6.04674332 29.6186164,6.23698646 C29.3222642,6.58685312 28.9831447,6.90158254 28.6611321,7.23086881 C28.1952201,7.70722959 27.878239,7.68162959 27.5023899,7.13900999 C26.4,5.5452845 24.9514465,4.37220214 23.1179874,3.68351195 C19.2477987,2.22581783 14.8815094,3.6252845 12.4880503,7.08279038 C12.4281761,7.17766097 12.361761,7.26851587 12.2898113,7.35485312 C12.0613836,7.60633548 11.7277987,7.6444845 11.4847799,7.41157469 C11.0581132,7.00147273 10.6415094,6.57982567 10.2460377,6.14111195 C9.96125786,5.81684528 9.94515723,5.34098646 10.2067925,4.9986492 C12.1579874,2.3989943 14.709434,0.674759006 17.9693082,0.171292339 C22.8090566,-0.575625308 26.6827673,1.14158254 29.6719497,4.90327665 C29.8108176,5.07745704 29.878239,5.30785704 29.9994969,5.55130803 L29.9994969,5.55130803 L30,5.55180999 Z M26.0739623,9.58606881 C25.9491824,9.81446097 25.8611321,10.0644374 25.6986164,10.2526727 C25.3745912,10.6286414 25.0113208,10.9719825 24.6611321,11.3258649 C24.3003774,11.6907904 23.9522013,11.6717159 23.6407547,11.2621159 C22.9720755,10.3781629 22.1192453,9.75020999 21.0218868,9.50826489 C19.2201258,9.10970803 17.7232704,9.65634332 16.5157233,11.0121394 C16.4161006,11.1240767 16.3350943,11.2520767 16.2334591,11.3620061 C15.9718239,11.6451119 15.6397484,11.6611747 15.3640252,11.3906178 C14.9685535,11.0021002 14.5786164,10.608061 14.2022642,10.2014727 C13.8591195,9.83002175 13.8626415,9.34211587 14.1977358,8.95811587 C15.8530818,7.06371587 17.9436478,6.11450803 20.4855346,6.26810803 C22.6581132,6.40162959 24.4221384,7.37442959 25.8067925,9.01684528 C25.9260377,9.1599041 25.9713208,9.36169234 26.0744654,9.58556685 L26.0744654,9.58556685 L26.0739623,9.58606881 Z" id="Shape"></path>
                    </g>
                </g>
            </g>
        </g>
    </g>
</svg>