<?xml version="1.0" encoding="UTF-8"?>
<svg width="31px" height="31px" viewBox="0 0 31 31" version="1.1" xmlns="http://www.w3.org/2000/svg" xmlns:xlink="http://www.w3.org/1999/xlink">
    <!-- Generator: Sketch 52.3 (67297) - http://www.bohemiancoding.com/sketch -->
    <title>Group 26</title>
    <desc>Created with Sketch.</desc>
    <g id="Symbols" stroke="none" stroke-width="1" fill="none" fill-rule="evenodd">
        <g id="footer2" transform="translate(-1055.000000, -116.000000)">
            <g id="footer" transform="translate(0.000000, 12.000000)">
                <g id="Group-30-Copy" transform="translate(957.333333, 104.343750)">
                    <g id="Group-26" transform="translate(97.882353, 0.000000)">
                        <path d="M25.4117647,0 L4.70588235,0 C2.10729412,0 0,2.086875 0,4.65820312 L0,25.1542969 C0,27.7274883 2.10729412,29.8125 4.70588235,29.8125 L25.4117647,29.8125 C28.0112941,29.8125 30.1176471,27.7274883 30.1176471,25.1542969 L30.1176471,4.65820312 C30.1176471,2.086875 28.0112941,0 25.4117647,0 Z" id="Fill-573" fill="#DA3539"></path>
                        <path d="M18.2690301,14.5165065 L12.9032102,17.4117664 L12.9017131,12.9545074 L12.9017131,11.5994194 L18.2690301,14.5165065 Z M24.6881926,10.5914754 C24.6881926,10.5914754 24.494471,9.16462633 23.899533,8.53701604 C23.143809,7.71445487 22.2967634,7.70907279 21.909919,7.66123208 C19.1277529,7.453125 14.9586956,7.453125 14.9586956,7.453125 L14.9494137,7.453125 C14.9494137,7.453125 10.7776616,7.453125 7.99848971,7.6624281 C7.61014819,7.70907279 6.76459966,7.71445487 6.0073786,8.53761405 C5.41303942,9.16522434 5.21901837,10.5920735 5.21901837,10.5920735 C5.21901837,10.5920735 5.01960784,12.2653022 5.01960784,13.940026 L5.01960784,15.5086032 C5.01960784,17.183925 5.21901837,18.8580508 5.21901837,18.8580508 C5.21901837,18.8580508 5.41303942,20.2840029 6.0073786,20.9113142 C6.76459966,21.7353704 7.75805931,21.709058 8.19879849,21.7945732 C9.78869322,21.9530456 14.9539049,22.0029793 14.9539049,22.0029793 C14.9539049,22.0029793 19.1277529,21.9955042 21.909919,21.7873971 C22.2967634,21.7389584 23.143809,21.7353704 23.899533,20.9104171 C24.494471,20.2831059 24.6881926,18.8577518 24.6881926,18.8577518 C24.6881926,18.8577518 24.8879026,17.183925 24.8879026,15.5086032 L24.8879026,13.940026 C24.8879026,12.2653022 24.6881926,10.5914754 24.6881926,10.5914754 Z" id="Fill-12" fill="#FFFFFE"></path>
                    </g>
                </g>
            </g>
        </g>
    </g>
</svg>