<?xml version="1.0" encoding="UTF-8" standalone="no"?>
<!DOCTYPE svg  PUBLIC '-//W3C//DTD SVG 1.1//EN'  'http://www.w3.org/Graphics/SVG/1.1/DTD/svg11.dtd'>
<svg version="1.1" xmlns="http://www.w3.org/2000/svg">
<defs>
<font id="Conv_neo_sans_bold_italic" horiz-adv-x="645">
<font-face font-weight="700" cap-height="743" underline-position="-159" slope="-11" underline-thickness="80" font-style="italic" bbox="-63 -216 1001 1012" ascent="800" x-height="573" unicode-range="U+0020-00FE" panose-1="2 0 8 3 4 0 0 9 0 4" units-per-em="1000" font-family="Neo Sans" descent="-200"/>
<missing-glyph/>
<glyph unicode=" " horiz-adv-x="250" glyph-name="space"/>
<glyph d="M352 747l-108 -499q-2 -8 -9 -14.5t-15 -6.5h-85q-8 0 -13 5.5t-5 12.5v3l68 499q1 8 9 14t16 6h125q17 0 17 -16v-4zM241 146l-22 -126q-2 -8 -8.5 -14t-14.5 -6h-118q-16 0 -16 16v4l22 126q2 8 8.5 13.5t14.5 5.5h118q16 0 16 -15v-4z" unicode="!" horiz-adv-x="273" glyph-name="exclam"/>
<glyph d="M582 759q0 -5 -3 -11l-114 -219q-5 -10 -9.5 -14.5t-12.5 -4.5h-101q-8 0 -8 7q0 5 3 12l93 219q8 19 23 19h119q10 0 10 -8zM363 759q0 -5 -3 -11l-114 -219q-5 -10 -9.5 -14.5t-12.5 -4.5h-101q-8 0 -8 7q0 5 3 12l93 219q8 19 23 19h119q10 0 10 -8z" unicode='&quot;' horiz-adv-x="472" glyph-name="quotedbl"/>
<glyph d="M747 541q0 -2 -0.5 -2.5t-0.5 -1.5l-26 -76q-2 -5 -7 -8t-10 -3h-85l-43 -161h84q6 0 11 -3.5t5 -9.5q0 -1 -0.5 -1.5t-0.5 -1.5l-23 -71q-2 -5 -8 -10t-11 -5h-84l-44 -168q-2 -8 -7.5 -13.5t-13.5 -5.5h-102q-14 0 -14 14q0 1 0.5 2t0.5 3l44 168h-113l-45 -168 q-2 -8 -7.5 -13.5t-13.5 -5.5h-103q-14 0 -14 14q0 2 0.5 2.5t0.5 2.5l44 168h-85q-12 0 -12 10q0 3 1 5l25 75q3 12 16 12h83l42 161h-85q-12 0 -12 9q0 3 1 5l25 77q2 5 7.5 8t10.5 3h80l46 172q2 8 8 13.5t14 5.5h103q13 0 13 -14q0 -1 -0.5 -2t-0.5 -3l-46 -172h113 l47 172q2 8 8 13.5t14 5.5h102q13 0 13 -13q0 -4 -1 -6l-47 -172h87q6 0 11 -3t5 -8zM369 450l-43 -161h113l43 161h-113z" unicode="#" horiz-adv-x="699" glyph-name="numbersign"/>
<glyph unicode="$" d="M671 711l-17 -99q-2 -8 -7.5 -13t-13.5 -5h-2q-46 5 -102.5 8t-107.5 3q-19 0 -35 -2.5t-28 -9.5t-18.5 -20t-6.5 -34q0 -16 11 -28.5t42 -31.5l115 -69q59 -35 82.5 -78.5t23.5 -88.5q0 -52 -16 -94.5t-46 -74t-71.5 -51t-92.5 -24.5l-17 -94q-2 -8 -8.5 -14t-14.5 -6 h-110q-17 0 -17 17v3l16 89q-37 2 -67.5 7t-56.5 12q-15 3 -15 17v3l17 98q2 8 8 13.5t14 5.5h2q15 -2 39.5 -4t51.5 -4t52.5 -3t43.5 -1q23 0 42.5 3.5t33 12.5t21 25t7.5 42q0 17 -11 31t-40 34l-123 82q-51 34 -71.5 76t-20.5 82q0 50 15 88t42 65t64.5 43.5t83.5 22.5 l16 87q2 8 9 14t15 6h110q16 0 16 -16v-4l-15 -83q44 -3 83.5 -8.5t59.5 -10.5q6 -2 10.5 -6t4.5 -10v-3z" glyph-name="dollar"/>
<glyph d="M848 280q0 -22 -4 -42l-13 -75q-16 -96 -61.5 -134t-117.5 -38q-60 0 -90.5 36t-30.5 94q0 22 4 42l13 75q9 49 24.5 82t37.5 52.5t51 28t65 8.5q58 0 90 -34.5t32 -94.5zM827 737q0 -6 -6 -14l-539 -702q-8 -11 -13.5 -16t-13.5 -5h-103q-9 0 -9 8q0 7 5 13l539 702 q9 11 15 15.5t14 4.5h103q8 0 8 -6zM440 623q0 -22 -4 -42l-13 -75q-16 -96 -61.5 -134t-117.5 -38q-60 0 -90.5 36t-30.5 94q0 22 4 42l13 75q9 49 24.5 82t37.5 52.5t51 28t65 8.5q58 0 90 -34.5t32 -94.5zM747 278q0 26 -9.5 35.5t-26.5 9.5q-22 0 -38 -17t-25 -68 l-13 -75q-2 -12 -3 -22t-1 -18q0 -26 9.5 -36t26.5 -10q22 0 38 17.5t25 68.5l13 75q2 12 3 22t1 18zM339 621q0 26 -9.5 35.5t-26.5 9.5q-22 0 -38 -17t-25 -68l-13 -75q-2 -12 -3 -22t-1 -18q0 -26 9.5 -36t26.5 -10q22 0 38 17.5t25 68.5l13 75q2 12 3 22t1 18z" unicode="%" horiz-adv-x="839" glyph-name="percent"/>
<glyph d="M728 358l-1 -8q-7 -57 -29.5 -110.5t-67.5 -107.5l83 -108q4 -6 4 -9q0 -6 -4.5 -10.5t-10.5 -4.5h-142q-6 0 -9 1.5t-7 6.5l-24 32q-42 -23 -90.5 -36t-104.5 -13q-48 0 -92 9t-77.5 31t-53 57.5t-19.5 87.5q0 42 14 74t37 57t54 45t64 38l-7 9q-37 48 -47.5 85 t-10.5 66q0 59 21.5 98t58.5 62t85 32.5t100 9.5q50 0 87.5 -11.5t63 -32t38.5 -48.5t13 -61q0 -40 -13 -71.5t-36 -57t-53 -46.5t-65 -41l-35 -20l106 -137q12 20 23 48t17 76l1 8q1 8 7 14t14 6h93q15 0 15 -17v-3zM505 591q0 23 -17 36t-52 13q-47 0 -75.5 -21t-28.5 -70 q0 -16 7.5 -34.5t32.5 -47.5l7 -8l29 16q18 10 35.5 20.5t31 24t22 30.5t8.5 41zM326 293q-40 -22 -59.5 -47.5t-19.5 -69.5q0 -37 23 -53t76 -16q60 0 104 23z" unicode="&amp;" horiz-adv-x="732" glyph-name="ampersand"/>
<glyph d="M363 759q0 -5 -3 -11l-114 -219q-5 -10 -9.5 -14.5t-12.5 -4.5h-101q-8 0 -8 7q0 5 3 12l93 219q8 19 23 19h119q10 0 10 -8z" unicode="&apos;" horiz-adv-x="253" glyph-name="quotesingle"/>
<glyph d="M462 735q0 -7 -8 -18q-102 -143 -154 -295.5t-52 -326.5q0 -78 11 -145t29 -118q3 -6 3 -13q0 -13 -14 -13h-90q-24 0 -32 14q-35 63 -52 141.5t-17 163.5q0 82 14 163.5t41.5 159t68.5 149t96 132.5q8 8 16.5 11t19.5 3h110q10 0 10 -8z" unicode="(" horiz-adv-x="361" glyph-name="parenleft"/>
<glyph d="M371 418q0 -81 -14 -162t-41.5 -157.5t-68.5 -147t-95 -131.5q-8 -8 -16.5 -11t-19.5 -3h-110q-11 0 -11 8t8 18q103 143 155.5 298t52.5 330q0 79 -11.5 142.5t-30.5 114.5q-2 8 -2 12q0 14 14 14h90q24 0 32 -14q28 -52 48 -132.5t20 -178.5z" unicode=")" horiz-adv-x="361" glyph-name="parenright"/>
<glyph d="M545 570q0 -10 -15 -15l-115 -34l72 -98q5 -8 5 -14q0 -8 -6 -12l-52 -38q-4 -3 -9 -3q-9 0 -16 10l-69 100l-69 -100q-7 -10 -16 -10q-4 0 -9 3l-53 38q-7 4 -7 12q0 3 2 6.5t4 7.5l72 98l-114 34q-16 5 -16 16q0 3 1 5l20 63q3 10 13 10q3 0 5.5 -0.5t5.5 -1.5l115 -38 l-3 119q0 8 4 14.5t12 6.5h66q8 0 11.5 -6.5t3.5 -14.5l-1 -119l113 38q3 1 5.5 1.5t5.5 0.5q10 0 13 -10l20 -63q1 -2 1 -6z" unicode="*" horiz-adv-x="479" glyph-name="asterisk"/>
<glyph unicode="+" d="M651 346q0 -8 -6 -12t-14 -4h-170v-169q0 -8 -4 -14t-12 -6h-90q-8 0 -12 6t-4 14v169h-169q-8 0 -14 4t-6 12v90q0 8 6 12t14 4h169v170q0 8 4 14t12 6h90q8 0 12 -6t4 -14v-170h170q8 0 14 -4t6 -12v-90v0z" glyph-name="plus"/>
<glyph d="M258 155q0 -4 -3 -9l-136 -224q-5 -8 -9.5 -14t-12.5 -6h-88q-15 0 -15 13q0 3 2 7l104 224q5 9 10 14t13 5h122q13 0 13 -10z" unicode="," horiz-adv-x="274" glyph-name="comma"/>
<glyph d="M328 341l-13 -74q-2 -8 -8.5 -13t-14.5 -5h-194q-17 0 -17 15v3l13 74q2 8 8.5 13.5t14.5 5.5h194q17 0 17 -16v-3z" unicode="-" horiz-adv-x="302" glyph-name="hyphen"/>
<glyph d="M242 146l-22 -126q-2 -8 -9 -14t-15 -6h-117q-17 0 -17 17v3l22 126q2 8 9 13.5t15 5.5h117q17 0 17 -16v-3z" unicode="." horiz-adv-x="274" glyph-name="period"/>
<glyph d="M519 730q0 -3 -2 -7l-334 -702q-4 -8 -10 -14.5t-14 -6.5h-127q-16 0 -16 14q0 3 2 7l335 702q4 8 10 14t14 6h127q6 0 10.5 -3.5t4.5 -9.5z" unicode="/" horiz-adv-x="405" glyph-name="slash"/>
<glyph unicode="0" d="M678 513q0 -45 -9 -99l-15 -86q-16 -93 -43.5 -157.5t-68 -104.5t-95 -57.5t-123.5 -17.5q-99 0 -158.5 59.5t-59.5 179.5q0 46 9 98l15 86q17 100 46 165t70 103.5t94 54t119 15.5q103 0 161 -60t58 -179zM509 515q0 56 -20 75.5t-55 19.5q-24 0 -44 -9t-36.5 -31.5 t-29.5 -60t-23 -95.5l-15 -86q-5 -32 -8 -57t-3 -45q0 -55 19.5 -74t54.5 -19q23 0 43 8.5t36.5 30t30.5 59.5t24 97l15 86q11 64 11 101z" glyph-name="zero"/>
<glyph unicode="1" d="M546 724l-124 -704q-2 -8 -8.5 -14t-14.5 -6h-131q-16 0 -16 16v4l97 552l-120 -46q-7 -3 -12 -3q-9 0 -9 9v4l20 114q1 9 12 14l176 75q9 4 24 4h90q16 0 16 -15v-4z" glyph-name="one"/>
<glyph unicode="2" d="M679 597q0 -40 -10 -73t-29 -61t-47.5 -51.5t-64.5 -45.5l-95 -57q-28 -16 -55 -31.5t-50 -34.5t-40.5 -43t-25.5 -58h311q17 0 17 -16v-2v-1l-18 -103q-2 -8 -9 -14t-15 -6h-445q-16 0 -16 16v3v1l18 102q14 83 60 149.5t120 112.5l104 65q37 23 60.5 38.5t37.5 28.5 t19.5 25.5t5.5 28.5q0 25 -21 36t-75 11q-46 0 -99 -4t-100 -9h-2q-15 0 -15 16v4l14 78q3 14 22 19q45 13 100 22t119 9q113 0 168.5 -41.5t55.5 -113.5z" glyph-name="two"/>
<glyph unicode="3" d="M677 582q0 -32 -7.5 -62.5t-22.5 -57t-37.5 -47.5t-53.5 -35q28 -17 47 -51.5t19 -72.5q0 -70 -24 -120t-65.5 -82t-97.5 -47.5t-120 -15.5q-59 0 -112 8t-90 20q-6 2 -10.5 6t-4.5 10v2v1l14 80q2 8 7.5 13t13.5 5h1h1q52 -5 104 -7t93 -2q68 0 95 36.5t27 99.5 q0 26 -16 39.5t-54 13.5h-176q-16 0 -16 16v3v1l15 85q2 8 8.5 13.5t14.5 5.5h172q30 0 50 9t32 25.5t17 39t5 49.5q0 28 -18.5 40.5t-68.5 12.5q-26 0 -49.5 -1t-47 -2.5t-48.5 -3.5t-54 -5h-1h-1q-15 0 -15 14v3v1l14 80q2 8 8.5 12.5t14.5 6.5q42 12 96.5 21.5t113.5 9.5 q104 0 165.5 -43t61.5 -127z" glyph-name="three"/>
<glyph unicode="4" d="M651 279l-16 -92q-2 -8 -9 -14t-15 -6h-66l-25 -147q-2 -8 -8.5 -14t-14.5 -6h-133q-15 0 -15 16v4l25 147h-289q-16 0 -16 16v4l17 97q3 15 17 31l389 414q7 7 13 10.5t15 3.5h107q16 0 16 -16v-4l-74 -424h66q16 0 16 -16v-4zM440 510q0 4 -3 4q-2 0 -4 -2l-185 -203 q-3 -3 -3 -6q0 -4 6 -4h152l37 209v2v0z" glyph-name="four"/>
<glyph unicode="5" d="M675 724l-18 -100q-2 -8 -8.5 -13.5t-14.5 -5.5h-272l-37 -138h29q61 0 109.5 -10t82.5 -32.5t52 -57.5t18 -85q0 -76 -22 -131t-63.5 -90.5t-100 -52.5t-132.5 -17q-48 0 -98.5 7.5t-92.5 21.5q-6 2 -11.5 6t-5.5 12v3v1l14 79q2 8 8 13t14 5h1h1q23 -3 48.5 -5 t49.5 -3.5t44.5 -2.5t34.5 -1q75 0 106.5 35t31.5 107q0 20 -6.5 33t-21.5 20.5t-39.5 10.5t-60.5 3h-155q-5 0 -8 3.5t-3 8.5v2v1l97 373q2 8 8.5 13.5t14.5 5.5h389q17 0 17 -16v-2v-1z" glyph-name="five"/>
<glyph unicode="6" d="M687 710l-15 -87q-3 -21 -22 -21h-5q-35 6 -85 10t-94 4q-36 0 -62 -7t-43.5 -24t-28.5 -45t-17 -70l-1 -7q20 4 54 8t66 4q44 0 82 -11t66.5 -33.5t45 -56.5t16.5 -81q0 -73 -22.5 -129.5t-63.5 -94.5t-98.5 -58t-128.5 -20q-105 0 -163.5 57t-58.5 160q0 14 1.5 31.5 t5.5 43.5t10.5 63.5t15.5 91.5q17 94 44.5 154.5t68.5 96t96 49.5t125 14q68 0 116 -6t77 -14q8 -2 13 -5.5t5 -11.5v-5zM476 278q0 46 -25.5 62t-64.5 16q-20 0 -47.5 -3.5t-45.5 -6.5q-6 -32 -12.5 -66t-6.5 -67q0 -28 6 -45.5t16.5 -28t25.5 -14.5t32 -4q34 0 57 13 t37.5 34.5t21 50t6.5 59.5z" glyph-name="six"/>
<glyph unicode="7" d="M702 710l-13 -73q-2 -10 -8.5 -21t-15.5 -25l-364 -572q-12 -19 -28 -19h-141q-16 0 -16 10q0 6 5 13l373 571q2 4 2 6q0 5 -6 5h-273q-8 0 -13 4.5t-5 11.5v3l18 100q2 8 9 13.5t15 5.5h433q12 0 20 -8t8 -20v-5z" glyph-name="seven"/>
<glyph unicode="8" d="M688 569q0 -60 -27 -107t-84 -76q28 -23 43.5 -56t15.5 -73q0 -71 -23.5 -121.5t-65 -82.5t-98 -47t-122.5 -15h-11q-51 0 -93 13t-72 37t-46.5 58.5t-16.5 77.5q0 67 30.5 119.5t87.5 89.5q-27 24 -41 54t-14 72q0 68 24 114t65 74t95.5 40t115.5 12h11q111 0 168.5 -50 t57.5 -133zM528 561q0 32 -21 49t-67 17h-11q-58 0 -89 -30t-31 -88q0 -29 18.5 -47t58.5 -18h31q54 0 82.5 33.5t28.5 83.5zM471 251q0 29 -17 51t-58 22h-31q-28 0 -49 -11.5t-35 -30.5t-21 -43.5t-7 -49.5q0 -32 19.5 -52t66.5 -20h11q30 0 53 10.5t38 28.5t22.5 42.5 t7.5 52.5z" glyph-name="eight"/>
<glyph unicode="9" d="M669 535q0 -13 -1.5 -31t-5.5 -44t-10.5 -63.5t-15.5 -91.5q-16 -94 -44 -154.5t-69 -96t-95.5 -49.5t-125.5 -14q-68 0 -116 6t-77 14q-8 2 -13 5.5t-5 11.5v5l15 87q3 21 22 21h5q35 -6 85 -10t94 -4q36 0 62 7t43.5 24t28.5 45t17 70l1 7q-20 -4 -54 -8t-66 -4 q-44 0 -82 11t-66.5 33.5t-45 56.5t-16.5 81q0 73 22.5 129.5t63.5 94.5t98.5 58t128.5 20q105 0 163.5 -57t58.5 -160zM504 530q0 28 -6 45.5t-16.5 28t-25.5 14.5t-32 4q-34 0 -57 -13t-37.5 -34.5t-21 -50t-6.5 -59.5q0 -46 25.5 -62t64.5 -16q20 0 47.5 3.5t45.5 6.5 q6 32 12.5 66t6.5 67z" glyph-name="nine"/>
<glyph d="M309 528l-22 -126q-2 -8 -8.5 -13.5t-14.5 -5.5h-117q-8 0 -13 4.5t-5 11.5v3l22 126q2 8 9.5 14t15.5 6h117q16 0 16 -16v-4zM242 146l-22 -126q-2 -8 -9 -14t-15 -6h-117q-17 0 -17 17v3l22 126q2 8 9 13.5t15 5.5h117q17 0 17 -16v-3z" unicode=":" horiz-adv-x="275" glyph-name="colon"/>
<glyph d="M309 528l-22 -126q-2 -8 -9 -13.5t-15 -5.5h-117q-17 0 -17 16v3l22 126q2 8 9 14t15 6h117q17 0 17 -17v-3zM242 153q0 -3 -3 -9l-134 -224q-5 -8 -10.5 -14t-13.5 -6h-88q-14 0 -14 12q0 2 2 8l103 224q8 19 24 19h122q12 0 12 -10z" unicode=";" horiz-adv-x="275" glyph-name="semicolon"/>
<glyph unicode="&lt;" d="M588 150q0 -13 -12 -13h-139q-8 0 -13.5 3t-10.5 8l-233 207q-20 17 -20 36t20 36l233 207q5 5 10.5 8t13.5 3h139q12 0 12 -13q0 -6 -6 -12l-259 -229l259 -229q6 -6 6 -12z" glyph-name="less"/>
<glyph unicode="=" d="M620 474q0 -8 -6 -12t-14 -4h-419q-8 0 -14 4t-6 12v90q0 8 6 12t14 4h419q8 0 14 -4t6 -12v-90v0zM620 218q0 -8 -6 -12t-14 -4h-419q-8 0 -14 4t-6 12v90q0 8 6 12t14 4h419q8 0 14 -4t6 -12v-90v0z" glyph-name="equal"/>
<glyph unicode="&gt;" d="M624 391q0 -11 -5 -19t-16 -17l-232 -207q-5 -5 -10.5 -8t-13.5 -3h-139q-12 0 -12 13q0 6 6 12l259 229l-259 229q-6 6 -6 12q0 13 12 13h139q8 0 13.5 -3t10.5 -8l232 -207q11 -9 16 -17t5 -19z" glyph-name="greater"/>
<glyph d="M539 628q0 -33 -8.5 -61t-23.5 -53t-34.5 -47.5t-41.5 -45.5l-56 -58q-21 -22 -34.5 -35.5t-22 -23t-12 -16t-5.5 -14.5l-5 -28q-2 -9 -10.5 -14t-16.5 -5h-100q-8 0 -11.5 5t-3.5 11v4l4 27q3 20 7 36t10.5 31.5t17.5 31.5t29 35l59 63q12 13 24 25.5t21.5 26.5t15.5 30 t6 35q0 14 -8 21.5t-34 7.5q-39 0 -73.5 -3t-71.5 -8h-3q-14 0 -14 14q0 2 0.5 3.5t0.5 3.5l15 89q2 11 6.5 17t16.5 9q34 10 78 15.5t86 5.5q41 0 76.5 -8.5t61 -25t40 -42t14.5 -59.5zM288 145l-23 -126q-2 -8 -8.5 -13.5t-14.5 -5.5h-118q-17 0 -17 16v3l23 126 q2 8 8.5 14t14.5 6h118q17 0 17 -17v-3z" unicode="?" horiz-adv-x="479" glyph-name="question"/>
<glyph d="M781 393q0 -97 -30.5 -163.5t-84.5 -107.5t-128.5 -58.5t-162.5 -17.5q-72 0 -116 33.5t-44 94.5q0 9 1 17.5t3 17.5l22 116q9 50 27.5 82t45.5 51t63 26.5t79 7.5q32 0 66.5 -4t65.5 -11q21 -4 21 -23q0 -5 -1 -8l-59 -299q42 7 71 32.5t47 61t25.5 76t7.5 77.5 q0 41 -12 77t-38 62.5t-67 41.5t-99 15q-265 0 -315 -246l-32 -160q-3 -17 -5.5 -32t-2.5 -32q0 -168 230 -168q45 0 83.5 4t64.5 4h1h1h3q7 0 7 -6v-3v-1l-4 -39q-2 -11 -14 -13q-26 -3 -64 -6.5t-85 -3.5q-68 0 -124 15t-96 44.5t-62 73t-22 99.5q0 16 2 32t5 32l33 165 q32 159 135 235.5t269 76.5q72 0 126 -22.5t90.5 -59.5t54.5 -85.5t18 -100.5zM484 392q-28 5 -51 5q-36 0 -53 -16.5t-26 -59.5l-23 -111q-2 -6 -2.5 -14.5t-0.5 -14.5q0 -24 15 -32t49 -8h21.5t20.5 1l50 250v0z" unicode="@" horiz-adv-x="774" glyph-name="at"/>
<glyph d="M653 20q0 -9 -6 -14.5t-14 -5.5h-137q-8 0 -12.5 5t-4.5 13l-7 164h-205l-65 -164q-3 -8 -9 -13t-14 -5h-143q-14 0 -14 12q0 3 2 9l258 620q15 36 36 58t46 33.5t51.5 15.5t52.5 4t51 -4t45 -15.5t33.5 -33.5t15.5 -58l40 -620v-1v0zM456 595q0 8 -1.5 11.5t-8.5 3.5 q-11 0 -17 -15l-110 -276h149z" unicode="A" horiz-adv-x="669" glyph-name="A"/>
<glyph d="M717 581q0 -31 -7 -61.5t-21 -57.5t-36 -48.5t-52 -35.5q33 -20 49.5 -53t16.5 -68q0 -78 -31.5 -129.5t-82.5 -82t-115 -42.5t-129 -12q-25 0 -51 1t-51 2.5t-46 3.5t-35 5q-24 5 -35 13.5t-11 29.5q0 5 0.5 10.5t1.5 11.5l107 608q6 34 20.5 47t44.5 18q13 2 34.5 4 t46.5 3.5t51.5 2.5t50.5 1q62 0 113.5 -9.5t88.5 -30t57.5 -53t20.5 -78.5zM549 553q0 33 -29 46t-97 13h-16.5h-22t-22 -0.5t-15.5 -0.5l-31 -173h112q57 0 89 28t32 87zM500 250q0 29 -20.5 49t-72.5 20h-112l-33 -187h17.5t24 -0.5t24 -0.5h16.5q31 0 59.5 4.5t50 17.5 t34 36.5t12.5 60.5z" unicode="B" horiz-adv-x="669" glyph-name="B"/>
<glyph d="M646 713l-17 -97q-3 -20 -24 -20h-1h-1q-28 2 -66 5t-80 3q-26 0 -50 -7.5t-44 -27t-35.5 -52t-24.5 -82.5l-23 -126q-6 -34 -6 -61q0 -62 29 -85t72 -23q42 0 81 3t68 5h3q17 0 17 -15q0 -1 -0.5 -2t-0.5 -3l-18 -97q-2 -11 -8.5 -15.5t-17.5 -7.5q-17 -5 -58 -11 t-94 -6q-49 0 -94 15t-79 45.5t-54 76.5t-20 107q0 17 1.5 35.5t5.5 38.5l23 126q18 99 53 160.5t81.5 96.5t102 47.5t115.5 12.5q53 0 92 -6t54 -11q9 -3 13.5 -6t4.5 -11v-3v-2z" unicode="C" horiz-adv-x="561" glyph-name="C"/>
<glyph d="M715 508q0 -37 -7 -72l-23 -129q-15 -85 -44 -145t-75 -98t-109.5 -55.5t-146.5 -17.5q-31 0 -62 1.5t-59 3.5t-51 4.5t-38 5.5q-11 2 -17.5 7.5t-6.5 17.5q0 6 1 10l117 661q3 17 11.5 25t23.5 10q16 3 40 5.5t52.5 4.5t60.5 3.5t63 1.5q62 0 112 -16.5t85 -47.5 t54 -76.5t19 -103.5zM543 495q0 33 -9 54.5t-25 34t-39 18t-51 5.5q-19 0 -39.5 -0.5t-31.5 -1.5l-83 -467q11 -1 31.5 -1.5t39.5 -0.5q36 0 65 7.5t51 27t37.5 52.5t24.5 84l23 129q6 33 6 59z" unicode="D" horiz-adv-x="682" glyph-name="D"/>
<glyph d="M652 725q0 -2 -0.5 -3t-0.5 -3l-17 -93q-2 -8 -8.5 -14t-14.5 -6h-203q-31 0 -49.5 -11.5t-26.5 -55.5l-16 -92h259q16 0 16 -17v-3l-16 -95q-2 -8 -9 -14t-15 -6h-259l-19 -106q-3 -15 -3 -26q0 -24 13 -33t42 -9h203q17 0 17 -17v-3l-17 -93q-3 -18 -23 -21 q-13 -2 -30 -4t-40 -4t-53 -3.5t-71 -1.5q-39 0 -77 8t-68.5 27t-49 51t-18.5 80q0 21 5 49l59 332q13 73 39.5 115.5t63 64.5t82.5 28t97 6q41 0 70.5 -1.5t52 -3.5t38.5 -4t29 -4q18 -3 18 -14z" unicode="E" horiz-adv-x="581" glyph-name="E"/>
<glyph d="M652 723q0 -1 -0.5 -2t-0.5 -3l-17 -93q-2 -8 -8.5 -14t-14.5 -6h-203q-35 0 -52 -14.5t-24 -53.5l-16 -90h259q16 0 16 -16v-4l-16 -95q-2 -8 -9 -14t-15 -6h-259l-51 -292q-2 -8 -9 -14t-15 -6h-130q-16 0 -16 16v4l91 517q12 71 38 113.5t63 65t82.5 29.5t97.5 7 q41 0 71 -1.5t52.5 -3.5t38.5 -4.5t29 -4.5q18 -3 18 -15z" unicode="F" horiz-adv-x="581" glyph-name="F"/>
<glyph unicode="G" d="M706 714l-19 -106q-2 -8 -6 -10.5t-11 -2.5h-3q-36 2 -89.5 5t-117.5 3q-30 0 -56 -7t-46 -26t-35 -52t-24 -85l-22 -125q-3 -19 -5 -35.5t-2 -30.5q0 -31 7 -51t19.5 -32t28.5 -16.5t34 -4.5q42 0 78 3l40 230q2 8 8.5 14t14.5 6h128q16 0 16 -16v-4l-59 -336 q-2 -11 -7 -16t-17 -7q-42 -8 -97.5 -14.5t-130.5 -6.5q-38 0 -80 12.5t-76.5 41.5t-57 75.5t-22.5 113.5q0 37 7 75l22 124q18 104 54 166.5t84 96.5t105 45t118 11q75 0 126.5 -8.5t78.5 -14.5q5 -2 9.5 -4.5t4.5 -7.5v-3z" glyph-name="G"/>
<glyph d="M787 724l-124 -704q-2 -8 -9 -14t-15 -6h-131q-16 0 -16 16v4l50 289h-247l-50 -289q-2 -8 -9 -14t-15 -6h-131q-16 0 -16 16v4l124 704q2 8 8.5 13.5t14.5 5.5h131q17 0 17 -16v-3l-47 -266h247l47 266q2 8 8.5 13.5t14.5 5.5h131q17 0 17 -16v-3z" unicode="H" horiz-adv-x="729" glyph-name="H"/>
<glyph d="M369 724l-124 -704q-2 -8 -8.5 -14t-14.5 -6h-134q-7 0 -10.5 4.5t-3.5 10.5v5l124 704q3 19 21 19h134q16 0 16 -15v-4z" unicode="I" horiz-adv-x="311" glyph-name="I"/>
<glyph d="M369 724l-129 -730q-9 -51 -28.5 -84.5t-47.5 -53t-62 -27.5t-72 -8q-17 0 -30 1t-33 3q-12 2 -12 14v3l18 102q1 5 5 9.5t9 4.5h50q17 0 23 8.5t9 27.5l129 730q2 8 8.5 13.5t14.5 5.5h131q17 0 17 -16v-3z" unicode="J" horiz-adv-x="311" glyph-name="J"/>
<glyph d="M782 733q0 -5 -8 -15l-309 -338l176 -359q2 -3 2 -9q0 -12 -16 -12h-161q-9 0 -13 4t-7 10l-144 330l-57 -324q-2 -8 -9 -14t-15 -6h-131q-16 0 -16 16v4l124 704q2 8 8.5 13.5t14.5 5.5h131q17 0 17 -16v-3l-54 -303l264 310q5 6 10.5 9t13.5 3h164q15 0 15 -10z" unicode="K" horiz-adv-x="678" glyph-name="K"/>
<glyph d="M518 118l-17 -93q-3 -17 -23 -21q-13 -3 -33 -5t-43 -4t-46.5 -3t-43.5 -1q-41 0 -79 8t-67.5 27t-47 51t-17.5 79q0 11 1.5 23.5t3.5 26.5l91 517q2 8 9 14t15 6h131q16 0 16 -16v-4l-91 -517q-3 -15 -3 -26q0 -24 13 -33t42 -9h172q17 0 17 -17v-3z" unicode="L" horiz-adv-x="519" glyph-name="L"/>
<glyph d="M872 715q0 -2 -0.5 -3.5t-0.5 -3.5l-123 -694q-2 -8 -7.5 -11t-11.5 -3h-132q-12 0 -12 16v4l73 417v3q0 5 -4 5q-3 0 -9 -7l-119 -165q-13 -17 -33 -17h-80q-20 0 -27 17l-61 165q-3 7 -7 7q-5 0 -6 -8l-73 -417q-2 -8 -7.5 -14t-12.5 -6h-132q-5 0 -10 2.5t-5 8.5v3 l123 695q3 16 14.5 25t27.5 9h87q16 0 25 -7.5t14 -19.5l103 -285q5 -13 9 -13q3 0 5.5 3.5t7.5 9.5l203 285q19 27 49 27h101q31 0 31 -28z" unicode="M" horiz-adv-x="816" glyph-name="M"/>
<glyph d="M787 724l-121 -686q-3 -16 -15.5 -27t-28.5 -11h-84q-16 0 -31.5 5.5t-23.5 25.5l-166 394q-4 8 -8 8q-5 0 -6 -8l-71 -405q-2 -8 -9 -14t-15 -6h-118q-16 0 -16 17v3l120 685q3 16 16 27t29 11h76q15 0 30.5 -6t23.5 -25l172 -412q4 -8 6 -8t4 2t3 7l75 423 q2 8 8.5 13.5t14.5 5.5h118q17 0 17 -16v-3z" unicode="N" horiz-adv-x="729" glyph-name="N"/>
<glyph d="M728 509q0 -18 -1.5 -37.5t-5.5 -40.5l-21 -119q-15 -88 -46 -149t-75.5 -99t-102.5 -55.5t-129 -17.5q-51 0 -96 15t-78.5 46t-52.5 77t-19 107q0 38 7 76l21 119q17 93 50.5 155t80 98.5t103 52t119.5 15.5q50 0 95 -14t78.5 -43.5t53 -75.5t19.5 -110zM556 497 q0 57 -25 81t-76 24q-31 0 -56 -9t-43.5 -29.5t-32 -53t-21.5 -79.5l-21 -119q-7 -38 -7 -70q0 -57 25 -79t75 -22q63 0 100.5 40t53.5 131l21 119q3 19 5 35.5t2 30.5z" unicode="O" horiz-adv-x="698" glyph-name="O"/>
<glyph d="M710 549q0 -9 -0.5 -18.5t-1.5 -19.5l-1 -9q-8 -71 -38 -117.5t-75.5 -74.5t-104 -39t-123.5 -11q-18 0 -40 1t-41 2l-42 -243q-2 -8 -9 -14t-15 -6h-129q-17 0 -17 16v3l119 672q5 26 17 35t36 13q39 6 95.5 9.5t110.5 3.5q57 0 104.5 -11.5t82 -36.5t53.5 -63t19 -92z M539 530q0 43 -27 61.5t-84 18.5q-5 0 -17 -0.5t-25 -1t-24 -1t-16 -0.5l-36 -204q4 0 15.5 -0.5t25 -1t25 -0.5h15.5q134 0 146 101l1 9q1 5 1 9.5v9.5z" unicode="P" horiz-adv-x="652" glyph-name="P"/>
<glyph d="M728 509q0 -18 -1.5 -37.5t-5.5 -40.5l-21 -119q-26 -148 -95.5 -222.5t-176.5 -92.5l-3 -18v-3v-5q0 -11 5.5 -14t15.5 -3h90q7 0 14 -2.5t7 -10.5v-3l-14 -82q-3 -16 -27 -22q-22 -5 -53.5 -9t-60.5 -4q-30 0 -56 6t-45 20.5t-29.5 37.5t-10.5 56q0 17 3 37l4 23 q-37 10 -67.5 29.5t-52.5 48.5t-34.5 68.5t-12.5 88.5q0 38 7 76l21 119q17 93 50.5 155t80 98.5t103 52t119.5 15.5q50 0 95 -14t78.5 -43.5t53 -75.5t19.5 -110zM556 497q0 57 -25 81t-76 24q-31 0 -56 -9t-43.5 -29.5t-32 -53t-21.5 -79.5l-21 -119q-7 -38 -7 -70 q0 -57 25 -79t75 -22q63 0 100.5 40t53.5 131l21 119q3 19 5 35.5t2 30.5z" unicode="Q" horiz-adv-x="698" glyph-name="Q"/>
<glyph d="M713 561q0 -90 -40.5 -158t-128.5 -98l101 -282q2 -6 2 -8q0 -6 -4.5 -10.5t-13.5 -4.5h-145q-8 0 -10.5 6t-5.5 14l-90 253h-1q-3 0 -7.5 -0.5t-10.5 -0.5q-16 0 -36.5 1t-34.5 1l-44 -254q-2 -8 -9 -14t-15 -6h-130q-16 0 -16 16v3v1l118 671q5 26 17 35t36 13 q18 3 42.5 5.5t51.5 4t56 2.5t56 1q56 0 104 -11t83 -34t55 -59t20 -87zM542 539q0 39 -29 53.5t-88 14.5q-5 0 -16.5 -0.5t-23.5 -1t-22.5 -1t-15.5 -0.5l-34 -192q4 0 14 -0.5t21 -1t21 -0.5h14q37 0 66.5 5.5t50 19.5t31.5 39.5t11 64.5z" unicode="R" horiz-adv-x="680" glyph-name="R"/>
<glyph d="M651 712l-18 -101q-3 -17 -20 -17h-2q-10 1 -35 2.5t-55 3.5t-62 3.5t-58 1.5q-18 0 -34 -2t-28.5 -9t-19.5 -19.5t-7 -33.5q0 -16 10 -27t41 -31l116 -76q57 -37 82 -76.5t25 -83.5q0 -69 -25 -117.5t-67.5 -79t-99 -45t-119.5 -14.5q-60 0 -106 6t-83 16q-16 4 -16 17 v3l17 98q3 19 21 19h3q15 -1 41 -3.5t53.5 -4t53 -3t40.5 -1.5q21 0 39.5 4t33 13t22.5 25t8 40q0 17 -11 33.5t-41 36.5l-123 81q-48 31 -69 72t-21 83q0 66 24.5 109.5t65.5 69.5t94 36.5t110 10.5q27 0 58 -2t60 -5t53 -7t37 -8q12 -3 12 -14v-4z" unicode="S" horiz-adv-x="588" glyph-name="S"/>
<glyph d="M690 724l-18 -103q-2 -8 -9.5 -13.5t-15.5 -5.5h-162l-102 -582q-2 -8 -9 -14t-15 -6h-131q-16 0 -16 16v4l102 582h-163q-16 0 -16 15v4l18 103q2 8 8.5 13.5t14.5 5.5h496q8 0 13 -4.5t5 -11.5v-3z" unicode="T" horiz-adv-x="587" glyph-name="T"/>
<glyph d="M772 724l-79 -445q-17 -94 -50 -151t-77.5 -87.5t-98.5 -40t-114 -9.5q-52 0 -97 12.5t-77 39t-50.5 67.5t-18.5 98q0 17 1 34t5 37l79 445q2 8 8.5 13.5t14.5 5.5h131q17 0 17 -16v-3l-79 -445q-6 -33 -6 -59q0 -45 22.5 -65.5t75.5 -20.5q34 0 58 8.5t40.5 26t27 45 t17.5 65.5l79 445q2 8 8.5 13.5t14.5 5.5h130q8 0 13 -4t5 -12v-3z" unicode="U" horiz-adv-x="711" glyph-name="U"/>
<glyph d="M786 731q0 -3 -2 -9l-258 -620q-15 -36 -36 -58t-45.5 -33.5t-51 -15.5t-52.5 -4t-51 4t-45.5 15.5t-34 33.5t-15.5 58l-40 620v1q0 9 6 14.5t15 5.5h134q8 0 12.5 -5t4.5 -13l23 -577q0 -15 11 -15q12 0 17 15l227 577q3 8 8.5 13t13.5 5h145q14 0 14 -12z" unicode="V" horiz-adv-x="686" glyph-name="V"/>
<glyph d="M1001 733q0 -3 -1 -5l-208 -655q-14 -44 -40 -60t-66 -16h-50q-33 0 -58.5 15t-28.5 53l-26 299q-1 6 -2 7t-5 1t-6 -1t-4 -7l-132 -299q-17 -38 -44 -53t-60 -15h-51q-38 0 -61 27.5t-23 69.5v5l22 629q0 8 6 11.5t13 3.5h132q13 0 13 -17v-2l-35 -536v-5q0 -8 4 -8 q3 0 9 13l121 275q13 29 31.5 38.5t38.5 9.5h99q20 0 36 -9.5t18 -38.5l23 -275q1 -13 5 -13q5 0 8 13l155 536q5 19 19 19h134q5 0 9.5 -2.5t4.5 -7.5z" unicode="W" horiz-adv-x="889" glyph-name="W"/>
<glyph d="M782 732q0 -3 -3 -8l-269 -353l154 -351q2 -6 2 -7q0 -13 -16 -13h-143q-10 0 -14.5 3.5t-8.5 11.5l-93 211l-153 -206q-15 -20 -29 -20h-148q-13 0 -13 10q0 4 4 10l272 361l-150 343q-1 2 -1 5q0 5 5 9.5t12 4.5h145q8 0 13.5 -6t8.5 -13l88 -202l148 202q5 7 12.5 13 t15.5 6h148q13 0 13 -11z" unicode="X" horiz-adv-x="703" glyph-name="X"/>
<glyph d="M755 731q0 -5 -3 -10l-212 -346q-21 -35 -39.5 -52t-38.5 -25l-49 -278q-2 -8 -9 -14t-15 -6h-131q-16 0 -16 17v3l49 278q-17 8 -30.5 25t-22.5 52l-90 346q0 1 -0.5 2t-0.5 2q0 8 6 13t14 5h140q8 0 11.5 -5t5.5 -12l58 -282q2 -10 5 -12.5t8 -2.5t8.5 2.5t8.5 12.5 l158 282q4 7 9.5 12t13.5 5h148q14 0 14 -12z" unicode="Y" horiz-adv-x="649" glyph-name="Y"/>
<glyph d="M685 715q-3 -20 -7 -44t-9 -47q-3 -12 -13 -26l-348 -432q-7 -9 -7 -13q0 -5 10 -5h260q17 0 17 -15v-3l-19 -110q-2 -8 -9 -14t-15 -6h-454q-16 0 -26.5 5.5t-10.5 19.5q0 2 0.5 3t0.5 3l15 80q2 11 6.5 20.5t15.5 23.5l343 422q6 8 6 12q0 6 -10 6h-238q-17 0 -17 16v3 l20 110q2 8 8.5 13.5t14.5 5.5h431q14 0 24.5 -6t10.5 -17v-5z" unicode="Z" horiz-adv-x="615" glyph-name="Z"/>
<glyph d="M470 723l-15 -87q-2 -8 -8.5 -14t-14.5 -6h-96l-121 -683h97q17 0 17 -17v-3l-16 -87q-2 -8 -8.5 -14t-14.5 -6h-244q-7 0 -10.5 4.5t-3.5 10.5v4l159 899q2 8 7 13.5t13 5.5h243q16 0 16 -16v-4z" unicode="[" horiz-adv-x="374" glyph-name="bracketleft"/>
<glyph d="M394 14q0 -8 -7 -13.5t-15 -5.5h-127q-8 0 -11 6.5t-4 14.5l-89 707v2q0 8 7 13t15 5h126q8 0 12 -6t5 -14l88 -707v-2v0z" unicode="\" horiz-adv-x="405" glyph-name="backslash"/>
<glyph d="M439 724l-159 -899q-2 -8 -7 -13.5t-13 -5.5h-244q-17 0 -17 17v3l16 87q2 8 8.5 14t14.5 6h97l121 683h-96q-17 0 -17 17v3l15 87q2 8 9 14t15 6h243q7 0 10.5 -4.5t3.5 -10.5v-4z" unicode="]" horiz-adv-x="374" glyph-name="bracketright"/>
<glyph unicode="^" d="M659 574q0 -9 -12 -9h-130q-13 0 -18 3.5t-13 11.5l-80 89l-80 -89q-8 -8 -13 -11.5t-18 -3.5h-130q-12 0 -12 9q0 5 5 12l111 148q8 11 14 14.5t20 3.5h206q14 0 20 -3.5t14 -14.5l111 -148q5 -7 5 -12z" glyph-name="asciicircum"/>
<glyph d="M563 -55l-8 -48q-2 -8 -8.5 -12t-14.5 -4h-564q-17 0 -17 13v3l8 48q2 8 8.5 12t14.5 4h564q17 0 17 -13v-3z" unicode="_" horiz-adv-x="541" glyph-name="underscore"/>
<glyph d="M402 639q0 -9 -11 -9h-99q-10 0 -13.5 3t-8.5 9l-100 122q-3 5 -3 7q0 8 12 8h124q11 0 15.5 -3.5t9.5 -11.5l71 -117q3 -4 3 -8z" unicode="`" horiz-adv-x="443" glyph-name="grave"/>
<glyph d="M623 534q0 -5 -1 -8l-88 -506q-2 -8 -8.5 -14t-14.5 -6h-102q-8 0 -12.5 5t-4.5 12v3l4 29q-41 -32 -78 -45t-77 -13q-45 0 -77 16t-52 42.5t-29.5 61.5t-9.5 72q0 14 1.5 28t3.5 28q3 22 7 40q3 16 5.5 31.5t3.5 22.5q23 131 100 189.5t195 58.5q51 0 104.5 -7 t102.5 -18q13 -3 20 -7t7 -15zM445 442q-14 2 -35 4t-42 2q-54 0 -78.5 -31t-35.5 -92l-18 -105q-3 -16 -3 -33q0 -25 11.5 -43t45.5 -18q26 0 53.5 10.5t52.5 24.5l49 281v0z" unicode="a" horiz-adv-x="581" glyph-name="a"/>
<glyph d="M617 381q0 -14 -1.5 -28t-3.5 -28l-13 -78q-23 -134 -97.5 -195t-199.5 -61q-58 0 -112 7.5t-96 18.5q-16 4 -21.5 8.5t-5.5 12.5q0 5 1 8l124 701q2 8 9 14t15 6h121q17 0 17 -17v-3l-31 -173q23 3 45.5 5t37.5 2q52 0 91.5 -14.5t66 -41t40 -63t13.5 -81.5zM455 374 q0 35 -15.5 54t-56.5 19q-18 0 -41 -1.5t-42 -3.5l-55 -312q14 -2 35 -4t46 -2q53 0 77 31t34 92l13 78q2 14 3.5 26t1.5 23z" unicode="b" horiz-adv-x="596" glyph-name="b"/>
<glyph d="M529 550q0 -2 -0.5 -3.5t-0.5 -3.5l-16 -89q-2 -8 -8 -12.5t-14 -4.5h-2q-27 3 -52.5 5t-68.5 2q-18 0 -34 -5t-29 -18t-23 -35.5t-16 -57.5l-15 -84q-2 -14 -3.5 -26t-1.5 -22q0 -41 17.5 -54.5t49.5 -13.5q21 0 37.5 0.5t31 1.5t27.5 2.5t27 2.5h2q16 0 16 -14v-3 l-16 -89q-2 -11 -7.5 -15.5t-17.5 -7.5q-22 -5 -55 -10t-78 -5q-44 0 -80 13t-62 37.5t-40.5 61t-14.5 82.5q0 28 6 59l15 84q12 70 36.5 118.5t60 78.5t81 43t99.5 13q45 0 78 -5t53 -10q18 -4 18 -16z" unicode="c" horiz-adv-x="474" glyph-name="c"/>
<glyph d="M668 747l-124 -701q-2 -12 -8.5 -18t-27.5 -11q-45 -11 -102 -18.5t-115 -7.5q-50 0 -89 15t-65.5 42t-40.5 64.5t-14 82.5q0 13 1 25.5t3 26.5l13 78q23 138 94.5 197t201.5 59q15 0 37.5 -2t43.5 -5l31 173q2 8 8.5 14t14.5 6h120q8 0 13 -4.5t5 -12.5v-3zM453 442 q-17 2 -40 3.5t-41 1.5q-27 0 -46 -7.5t-32 -22.5t-21 -38t-13 -54l-13 -78q-2 -15 -3.5 -28.5t-1.5 -24.5q0 -35 15.5 -52.5t57.5 -17.5q25 0 46.5 2t36.5 4l55 312v0z" unicode="d" horiz-adv-x="596" glyph-name="d"/>
<glyph d="M606 372q0 -13 -1.5 -26.5t-3.5 -27.5l-10 -58q-5 -24 -25 -24h-321q-2 -11 -3 -21.5t-1 -19.5q0 -39 20.5 -54.5t68.5 -15.5q24 0 51.5 1t54 2t50 3t38.5 3h3q16 0 16 -13v-3l-14 -76q-2 -12 -6.5 -18t-18.5 -9q-50 -12 -97.5 -18t-112.5 -6q-40 0 -78 12t-67.5 36.5 t-47 62.5t-17.5 90q0 13 1.5 27t3.5 29l12 70q23 131 99 197t200 66q51 0 89.5 -16t64.5 -44.5t39 -66.5t13 -82zM455 380q0 35 -18 53t-60 18q-51 0 -77.5 -31.5t-37.5 -83.5h188q2 12 3.5 23t1.5 21z" unicode="e" horiz-adv-x="590" glyph-name="e"/>
<glyph d="M516 754l-13 -74q-2 -9 -6 -14t-16 -5h-52q-23 0 -32 -9.5t-14 -42.5l-6 -36h85q10 0 14 -4.5t4 -10.5q0 -2 -0.5 -3t-0.5 -3l-14 -80q-2 -12 -7 -16t-17 -4h-85l-81 -453q-10 -57 -29 -91t-45.5 -52t-60.5 -23.5t-74 -5.5q-19 0 -36 3l-34 6q-6 2 -11 5t-5 10v2l13 76 q2 9 7.5 13.5t12.5 4.5h40q17 0 27 1.5t16.5 7t10 15.5t6.5 28l80 453l-76 12q-7 1 -12 5.5t-5 13.5q0 2 0.5 3.5t0.5 3.5l11 62q2 12 7.5 16.5t16.5 4.5h78l6 36q9 56 27.5 90t45 52t60.5 24t76 6q19 0 36.5 -3t34.5 -6q6 -2 11 -5.5t5 -9.5v-3z" unicode="f" horiz-adv-x="394" glyph-name="f"/>
<glyph d="M620 535q0 -2 -0.5 -3.5t-0.5 -3.5l-93 -530q-19 -108 -86.5 -154t-191.5 -46q-65 0 -112.5 9t-73.5 18q-16 6 -16 18q0 2 0.5 4t0.5 4l12 67q3 18 21 18h2q17 -2 41.5 -4t51.5 -3.5t52.5 -3t43.5 -1.5q26 0 42.5 3.5t27 12t16.5 22.5t10 36l2 11q-42 -9 -81 -9 q-45 0 -84.5 12.5t-69 37t-46 62t-16.5 87.5q0 14 1 28t4 30l12 68q12 70 35 118.5t59 79t86 44.5t116 14q69 0 124 -8.5t84 -16.5q15 -4 21 -8.5t6 -12.5zM445 440q-14 2 -34 4.5t-49 2.5q-27 0 -46 -9t-32 -25.5t-21 -38.5t-13 -49l-12 -68q-2 -14 -3.5 -26t-1.5 -23 q0 -46 22 -61t58 -15q17 0 37 2t42 5l53 301v0z" unicode="g" horiz-adv-x="573" glyph-name="g"/>
<glyph d="M621 414q0 -11 -1 -22t-3 -22l-61 -350q-2 -8 -9 -14t-15 -6h-122q-16 0 -16 16v4l61 349q3 17 3 28q0 29 -17.5 40.5t-58.5 11.5q-47 0 -82 -8l-74 -420q-2 -8 -9 -14.5t-15 -6.5h-121q-8 0 -12.5 5t-4.5 13v3l128 726q2 8 8.5 14t14.5 6h122q17 0 17 -17v-3l-32 -179 q21 5 49.5 9t57.5 4q49 0 85 -12.5t60 -34.5t35.5 -53t11.5 -67z" unicode="h" horiz-adv-x="612" glyph-name="h"/>
<glyph d="M362 751l-16 -93q-2 -8 -9 -14t-15 -6h-130q-16 0 -16 16v4l16 93q2 8 9 14t15 6h130q16 0 16 -16v-4zM324 553l-94 -533q-2 -8 -9 -14t-15 -6h-122q-16 0 -16 16v4l94 533q2 8 8.5 14t14.5 6h122q17 0 17 -17v-3z" unicode="i" horiz-adv-x="290" glyph-name="i"/>
<glyph d="M362 751l-16 -93q-2 -8 -9.5 -14t-15.5 -6h-129q-16 0 -16 16v4l16 93q2 8 9 14t15 6h129q17 0 17 -17v-3zM323 552l-103 -584q-9 -51 -23.5 -84t-37 -52.5t-54 -27t-73.5 -7.5q-20 0 -39 1.5t-40 5.5q-16 3 -16 16v4l14 79q3 18 24 18h44q21 0 27.5 10.5t11.5 36.5 l103 584q2 8 8.5 14.5t14.5 6.5h124q8 0 11.5 -5t3.5 -12v-4z" unicode="j" horiz-adv-x="290" glyph-name="j"/>
<glyph d="M658 564q0 -6 -6 -12l-240 -253l141 -278q2 -6 2 -8q0 -13 -12 -13h-150q-8 0 -14.5 6t-10.5 15l-102 228l-40 -228q-2 -8 -9 -14.5t-15 -6.5h-121q-8 0 -12.5 5t-4.5 13v3l128 726q2 8 9 14t15 6h121q17 0 17 -17v-3l-72 -405l183 216q8 9 15.5 12t13.5 3h151 q13 0 13 -9z" unicode="k" horiz-adv-x="588" glyph-name="k"/>
<glyph d="M354 747l-128 -726q-2 -8 -8.5 -14.5t-14.5 -6.5h-122q-8 0 -12.5 5t-4.5 13v3l128 726q2 8 9 14t15 6h122q16 0 16 -16v-4z" unicode="l" horiz-adv-x="282" glyph-name="l"/>
<glyph d="M885 423q0 -31 -6 -61l-60 -341q-2 -8 -9.5 -14.5t-15.5 -6.5h-121q-8 0 -12 5t-4 12v4l60 341q2 13 3.5 23.5t1.5 19.5q0 21 -11 30.5t-41 9.5q-12 0 -35 -3t-46 -13q0 -17 -2 -33.5t-5 -33.5l-60 -341q-2 -8 -9 -14.5t-15 -6.5h-121q-8 0 -12.5 5t-4.5 13v3l60 341 q2 14 4 25.5t2 21.5q0 17 -8 26.5t-32 9.5q-19 0 -43 -9t-48 -21l-69 -394q-2 -8 -9 -14.5t-15 -6.5h-121q-8 0 -12.5 5t-4.5 13v3l94 532q2 8 8.5 14t14.5 6h109q17 0 17 -17v-3l-4 -23q30 20 64.5 35.5t76.5 15.5q44 0 71.5 -12.5t44.5 -32.5q44 26 85 35.5t92 9.5 q42 0 70 -12.5t45.5 -34.5t25 -50.5t7.5 -60.5z" unicode="m" horiz-adv-x="875" glyph-name="m"/>
<glyph d="M620 415q0 -28 -6 -61l-58 -333q-2 -8 -9.5 -14.5t-15.5 -6.5h-121q-8 0 -12 5t-4 12v4l58 333q5 28 5 44q0 28 -15.5 38.5t-38.5 10.5q-29 0 -60 -11t-48 -21l-69 -394q-2 -8 -9 -14.5t-15 -6.5h-121q-8 0 -12.5 5t-4.5 13v3l94 532q2 8 8.5 14t14.5 6h109q17 0 17 -17 v-3l-4 -24q34 26 75 39t81 13q32 0 61.5 -9.5t51.5 -29.5t35 -51.5t13 -75.5z" unicode="n" horiz-adv-x="612" glyph-name="n"/>
<glyph d="M608 379q0 -14 -2 -31.5t-4 -26.5l-13 -70q-24 -127 -93.5 -193.5t-202.5 -66.5q-51 0 -90 15.5t-66 42.5t-40.5 64.5t-13.5 81.5q0 14 1 28t4 28l13 70q26 136 99 198t197 62q102 0 156.5 -55t54.5 -147zM446 367q0 76 -73 76q-44 0 -71.5 -28t-39.5 -94l-13 -70 q-2 -14 -3.5 -25.5t-1.5 -22.5q0 -39 18 -57t56 -18q49 0 74 31t36 92l13 70q5 28 5 46z" unicode="o" horiz-adv-x="590" glyph-name="o"/>
<glyph d="M617 379q0 -13 -1.5 -26.5t-3.5 -27.5l-13 -78q-12 -70 -37 -118.5t-61.5 -79t-84.5 -44.5t-105 -14q-21 0 -43.5 2t-45.5 5l-31 -173q-2 -8 -8.5 -14t-14.5 -6h-121q-8 0 -13 4.5t-5 12.5v3l124 701q2 12 8.5 18t27.5 11q45 11 102 18.5t115 7.5q101 0 156 -55.5 t55 -146.5zM455 377q0 35 -15.5 52.5t-56.5 17.5q-25 0 -46.5 -1.5t-36.5 -3.5l-55 -312q42 -6 75 -6q24 0 42.5 5.5t33 19t25 37.5t16.5 61l13 78q2 15 3.5 28t1.5 24z" unicode="p" horiz-adv-x="596" glyph-name="p"/>
<glyph d="M630 534q0 -5 -1 -8l-124 -701q-2 -8 -9 -14t-15 -6h-120q-17 0 -17 17v3l31 173q-20 -4 -39 -5.5t-38 -1.5q-45 0 -84.5 11t-69 35t-46.5 61.5t-17 89.5q0 14 1 28.5t4 30.5l13 78q22 133 93.5 194.5t202.5 61.5q58 0 112 -7.5t96 -18.5q16 -4 21.5 -8.5t5.5 -12.5z M453 442q-14 2 -35 3.5t-46 1.5q-54 0 -77.5 -30t-34.5 -92l-13 -78q-2 -14 -3.5 -25.5t-1.5 -22.5q0 -46 20.5 -60.5t57.5 -14.5q17 0 36.5 2t41.5 4l55 312v0z" unicode="q" horiz-adv-x="596" glyph-name="q"/>
<glyph d="M473 561l-17 -95q-2 -7 -6.5 -13t-11.5 -6h-8q-37 0 -71 -10t-64 -25l-69 -391q-2 -8 -9 -14.5t-15 -6.5h-121q-8 0 -12.5 5t-4.5 12v4l94 532q2 8 8.5 14t14.5 6h119q17 0 17 -16v-4l-4 -20q37 31 70 39.5t73 8.5q17 0 17 -17v-3z" unicode="r" horiz-adv-x="396" glyph-name="r"/>
<glyph d="M538 535l-14 -81q-3 -19 -20 -19h-3q-10 2 -30 4t-43.5 4t-47.5 3.5t-43 1.5h-4q-10 0 -19.5 -0.5t-17.5 -4t-13 -10.5t-5 -20q0 -16 24 -31l111 -71q47 -30 63 -62.5t16 -61.5q0 -54 -20.5 -91.5t-54.5 -61t-79 -33.5t-93 -10q-42 0 -91.5 5.5t-86.5 16.5q-15 5 -15 18 v5l15 81q3 19 23 19h3q20 -3 42.5 -5.5t45 -4.5t43.5 -3t37 -1q26 0 46 7t20 38q0 10 -6.5 19.5t-23.5 20.5l-117 75q-34 22 -49.5 54t-15.5 65q0 53 19.5 87.5t52.5 55t75 29t87 8.5q53 0 95 -6.5t79 -16.5q15 -4 15 -18v-5z" unicode="s" horiz-adv-x="503" glyph-name="s"/>
<glyph d="M487 553l-15 -81q-2 -8 -8.5 -14t-14.5 -6h-82l-52 -291q-3 -18 -3 -28q0 -11 6 -15t22 -4h49q8 0 13 -3t5 -11v-3l-14 -78q-3 -17 -22 -20q-23 -4 -41 -6t-40 -2q-69 0 -105.5 27t-36.5 93q0 11 1.5 24t3.5 27l51 290l-78 13q-17 3 -17 18v3l11 66q2 8 9.5 14.5 t15.5 6.5h80l14 82q2 8 8.5 13t15.5 7l126 21h3q15 0 15 -14v-3l-19 -106h82q17 0 17 -17v-3z" unicode="t" horiz-adv-x="421" glyph-name="t"/>
<glyph d="M649 552l-94 -532q-2 -8 -8.5 -14t-14.5 -6h-112q-17 0 -17 16v4l5 24q-35 -23 -71 -38t-88 -15q-75 0 -115.5 44t-40.5 123q0 28 6 61l58 333q2 8 9.5 14.5t15.5 6.5h121q8 0 12 -5t4 -12v-4l-58 -333q-5 -28 -5 -46q0 -26 13.5 -37t48.5 -11q8 0 20 2.5t26 7t28 10.5 t26 13l69 394q2 8 9 14.5t15 6.5h121q8 0 12.5 -5t4.5 -13v-3z" unicode="u" horiz-adv-x="612" glyph-name="u"/>
<glyph d="M662 559q0 -3 -2 -9l-206 -454q-15 -33 -34 -54t-40.5 -32t-44.5 -15t-45 -4t-43 4t-38 15t-29 32t-15 54l-45 454v2q0 9 5.5 15t13.5 6h127q8 0 12 -6t5 -15l17 -392q1 -21 12 -21t19 21l155 392q4 9 10.5 15t14.5 6h137q14 0 14 -14z" unicode="v" horiz-adv-x="585" glyph-name="v"/>
<glyph d="M914 560q0 -5 -1 -8l-174 -482q-16 -43 -42 -56.5t-58 -13.5h-61q-36 0 -53.5 17.5t-19.5 46.5l-21 261q0 5 -4 5t-6 -5l-113 -261q-12 -29 -35.5 -46.5t-59.5 -17.5h-61q-16 0 -29.5 3t-24 10.5t-16.5 21.5t-6 35l-4 482q0 8 5.5 14.5t13.5 6.5h117q9 0 13.5 -2.5 t4.5 -13.5v-1l-7 -382v-1q0 -12 4 -12t10 13l116 266q11 26 25.5 35.5t38.5 9.5h82q24 0 35 -9.5t13 -35.5l20 -264q1 -13 5 -13t9 13l126 380q4 11 9.5 14t14.5 3h122q12 0 12 -13z" unicode="w" horiz-adv-x="845" glyph-name="w"/>
<glyph d="M662 563q0 -7 -4 -11l-211 -262l134 -269q1 -2 1 -6q0 -6 -3.5 -10.5t-9.5 -4.5h-143q-8 0 -12 5t-9 16l-72 155l-120 -156q-9 -11 -15.5 -15.5t-14.5 -4.5h-134q-9 0 -9 9q0 6 4 11l224 278l-126 254q-2 4 -2 7q0 5 3.5 9.5t9.5 4.5h143q8 0 12 -5.5t9 -15.5l65 -138 l106 138q9 11 15.5 16t14.5 5h134q10 0 10 -10z" unicode="x" horiz-adv-x="617" glyph-name="x"/>
<glyph d="M668 558q0 -2 -2 -8l-272 -589q-21 -44 -41 -75t-46.5 -50.5t-64 -28.5t-92.5 -9q-14 0 -31.5 1.5t-34.5 3.5t-32 5t-24 6q-8 2 -13 5.5t-5 9.5v3l15 81q2 8 8.5 13.5t14.5 5.5h2q12 -1 28 -2t33.5 -2.5t34 -2.5t28.5 -1q27 0 44 11t31 41l14 31h-5q-15 0 -29 3.5 t-25.5 13.5t-20 28.5t-11.5 47.5l-53 450v3q0 20 23 20h131q8 0 11.5 -5.5t4.5 -13.5l23 -382q1 -9 3 -11t7 -2h8l163 395q3 8 9.5 13.5t14.5 5.5h135q7 0 11.5 -4.5t4.5 -10.5z" unicode="y" horiz-adv-x="592" glyph-name="y"/>
<glyph d="M566 548q0 -6 -1 -9l-13 -74q-2 -8 -5.5 -16.5t-11.5 -18.5l-249 -283q-4 -4 -4 -7q0 -4 6 -4h190q15 0 15 -13v-3l-17 -100q-2 -8 -9 -14t-15 -6h-375q-12 0 -20.5 5t-8.5 19q0 6 1 9l11 64q2 14 7 20.5t14 17.5l261 296q4 4 4 8t-6 4h-193q-14 0 -14 13v3l17 94 q2 8 8.5 14t14.5 6h365q12 0 20 -5.5t8 -19.5z" unicode="z" horiz-adv-x="515" glyph-name="z"/>
<glyph d="M503 723l-15 -87q-2 -8 -8.5 -14t-14.5 -6h-58q-24 0 -33.5 -10.5t-15.5 -47.5l-23 -135q-9 -54 -32 -90.5t-78 -59.5q31 -17 45.5 -50.5t14.5 -68.5q0 -17 -3 -32l-24 -131q-2 -10 -3 -18t-1 -14q0 -16 8 -21t25 -5h58q17 0 17 -17v-3l-16 -87q-2 -8 -8.5 -14t-14.5 -6 h-58q-91 0 -133 33t-42 100q0 12 1.5 25t3.5 27l24 131q2 7 2 13v12q0 49 -41 78l16 95q31 18 50 42.5t25 60.5l23 135q11 61 27 97.5t43 56t67 25.5t98 6h58q16 0 16 -16v-4z" unicode="{" horiz-adv-x="407" glyph-name="braceleft"/>
<glyph d="M296 -173q0 -8 -6 -14.5t-14 -6.5h-123q-8 0 -14.5 6.5t-6.5 14.5v896q0 8 6.5 14t14.5 6h123q8 0 14 -6t6 -14v-896v0z" unicode="|" horiz-adv-x="290" glyph-name="bar"/>
<glyph d="M407 225q-15 -9 -27.5 -18t-21.5 -20t-15.5 -26.5t-10.5 -38.5l-24 -131q-10 -58 -25.5 -94t-41.5 -56.5t-66.5 -27.5t-100.5 -7h-58q-17 0 -17 17v3l16 87q2 8 8.5 14t14.5 6h58q12 0 20 2t13 8.5t9 18t7 29.5l24 131q10 52 32 90.5t77 60.5q-28 20 -43.5 50.5 t-15.5 68.5q0 15 3 31l23 135q2 11 3 19.5t1 14.5q0 15 -7 19.5t-24 4.5h-58q-17 0 -17 17v3l15 87q2 8 9 14t15 6h58q85 0 129.5 -31.5t44.5 -103.5q0 -11 -1.5 -23.5t-3.5 -26.5l-23 -135q-2 -10 -3 -18t-1 -16q0 -21 9 -36.5t32 -32.5z" unicode="}" horiz-adv-x="407" glyph-name="braceright"/>
<glyph unicode="~" d="M657 480q0 -79 -35.5 -115t-107.5 -36q-29 0 -51.5 9t-39.5 20l-71 43q-14 8 -24.5 10.5t-18.5 2.5q-21 0 -26 -12t-5 -28v-18q0 -8 -5 -14t-13 -6h-89q-20 0 -20 20v18q0 45 10.5 75.5t29 48.5t45 26t58.5 8q14 0 36.5 -4t36.5 -13l90 -54q14 -8 24.5 -11t18.5 -3 q16 0 22.5 7t6.5 26v25q0 20 19 20h89q20 0 20 -20v-25v0z" glyph-name="asciitilde"/>
<glyph unicode=" " glyph-name="nonbreakingspace"/>
<glyph d="M313 557q0 -3 -1 -4l-22 -126q-2 -8 -8.5 -13.5t-14.5 -5.5h-118q-16 0 -16 15v4l22 126q2 8 8.5 14t14.5 6h118q17 0 17 -16zM257 325l-68 -499q-1 -8 -9 -14t-16 -6h-125q-7 0 -12 4.5t-5 11.5v4l108 499q2 8 9 14.5t15 6.5h85q8 0 13 -5.5t5 -12.5v-3z" unicode="¡" horiz-adv-x="273" glyph-name="exclamdown"/>
<glyph unicode="¢" d="M602 550q0 -2 -0.5 -3.5t-0.5 -3.5l-16 -89q-2 -8 -8 -12.5t-14 -4.5h-2q-27 3 -52.5 5t-68.5 2q-39 0 -64.5 -24.5t-37.5 -91.5l-15 -84q-2 -14 -3.5 -25.5t-1.5 -21.5q0 -40 17.5 -54.5t49.5 -14.5q21 0 37.5 0.5t31 1.5t27.5 2.5t27 2.5h2q16 0 16 -14v-3l-16 -89 q-2 -11 -7.5 -15.5t-17.5 -7.5q-15 -4 -35 -7.5t-46 -5.5l-13 -73q-2 -8 -9 -14t-15 -6h-101q-16 0 -16 16v4l15 84q-48 22 -78.5 68.5t-30.5 115.5q0 14 1 27.5t4 28.5l15 84q11 60 29 101.5t42 69.5t53.5 44t63.5 25l15 82q2 8 8.5 14t14.5 6h101q17 0 17 -17v-3l-13 -71 q25 -2 44 -5.5t33 -7.5q9 -2 13.5 -5t4.5 -11z" glyph-name="cent"/>
<glyph unicode="£" d="M693 720q0 -2 -0.5 -3.5t-0.5 -3.5l-18 -99q-3 -18 -19 -18h-3q-31 4 -77 8t-86 4q-28 0 -46 -3.5t-29.5 -13t-18 -25t-11.5 -39.5l-15 -82h169q17 0 17 -16v-3l-17 -97q-3 -19 -22 -19h-170l-18 -100q-5 -25 -13.5 -43.5t-19.5 -32.5h274q16 0 16 -14v-4l-17 -97 q-2 -8 -8.5 -13.5t-14.5 -5.5h-442q-8 0 -12 5.5t-4 12.5q0 2 0.5 3t0.5 3l13 70q2 9 5.5 14t7.5 10q13 14 28.5 40t20.5 52l18 100h-50q-16 0 -16 15v4l17 97q2 8 8.5 13.5t14.5 5.5h49l15 81q12 68 34 111.5t57 69t85 35.5t120 10q21 0 45 -2t46 -5t40.5 -6t29.5 -6 q17 -4 17 -13z" glyph-name="sterling"/>
<glyph unicode="¤" d="M710 712l-18 -97q-3 -20 -22 -20h-3q-29 2 -62 5t-75 3q-53 0 -91.5 -26t-58.5 -89h213q15 0 15 -12q0 -2 -2 -8l-20 -44q-9 -20 -24 -20h-201l-11 -62h183q13 0 13 -11q0 -3 -1 -4l-26 -60q-3 -9 -16 -9h-164v-5v-10q0 -31 8.5 -51.5t23.5 -31.5t35 -15.5t43 -4.5 q42 0 76 3t63 5h3q17 0 17 -15q0 -1 -0.5 -2t-0.5 -3l-18 -97q-2 -11 -8.5 -15.5t-17.5 -7.5q-17 -5 -53 -11t-89 -6q-49 0 -95 14.5t-81.5 45.5t-57 78t-21.5 113v11v5h-41q-16 0 -16 16v4l8 44q2 8 8.5 14t14.5 6h35l11 62h-35q-16 0 -16 16v4l8 44q2 8 8.5 14t14.5 6h37 q18 78 54 129t83 81t101 42t108 12q53 0 90 -6.5t52 -11.5q8 -3 13.5 -6t5.5 -11v-5z" glyph-name="currency"/>
<glyph unicode="¥" d="M764 732q0 -6 -4 -11l-150 -224h87q16 0 16 -15v-4l-13 -74q-3 -19 -22 -19h-142l-62 -92l-4 -11h189q17 0 17 -15v-3l-14 -75q-3 -18 -22 -18h-190l-26 -151q-2 -8 -9 -14t-15 -6h-133q-15 0 -15 16v4l26 151h-189q-17 0 -17 15v3l14 75q2 8 8.5 13t14.5 5h189l1 11 l-29 92h-143q-17 0 -17 16v3l13 74q2 8 9 13.5t15 5.5h88l-72 224q-1 2 -1 6q0 8 5 12t13 4h143q8 0 11 -5t5 -12l71 -270l168 270q5 7 9.5 12t12.5 5h151q13 0 13 -11z" glyph-name="yen"/>
<glyph d="M292 363q0 -8 -6 -14.5t-14 -6.5h-123q-8 0 -14.5 6.5t-6.5 14.5v345q0 8 6.5 14t14.5 6h123q8 0 14 -6t6 -14v-345v0zM292 -190q0 -8 -6 -14.5t-14 -6.5h-123q-8 0 -14.5 6.5t-6.5 14.5v345q0 8 6.5 14t14.5 6h123q8 0 14 -6t6 -14v-345v0z" unicode="¦" horiz-adv-x="290" glyph-name="brokenbar"/>
<glyph d="M653 711l-18 -102q-2 -14 -15 -14h-1q-53 3 -107.5 5.5t-109.5 2.5q-16 0 -32.5 -1.5t-30 -7t-22 -17.5t-8.5 -33q0 -16 14 -29t47 -33l116 -69q55 -33 80 -75t25 -90q0 -37 -14 -75t-40 -75q5 -11 9 -34t4 -39q0 -66 -25.5 -112t-68 -74.5t-97.5 -41.5t-115 -13 t-109.5 6t-86.5 16q-7 2 -12 6t-5 11v3l18 101q2 8 8.5 13.5t14.5 5.5h2q47 -5 93 -9.5t94 -4.5h4q20 0 39.5 3t34.5 12t24 24.5t9 39.5q0 17 -13.5 31.5t-45.5 33.5l-120 73q-55 34 -78 79t-23 96q0 18 4.5 39t12.5 41t19 38t25 31q-11 19 -13.5 37.5t-2.5 39.5 q0 59 26.5 98t68 62t92 32.5t98.5 9.5q27 0 59 -2t62 -5t55.5 -7t38.5 -8q6 -2 11 -6t5 -10v-3zM450 229q0 12 -1.5 21.5t-7.5 17.5t-17.5 16.5t-31.5 20.5l-89 54q-17 11 -27.5 17t-21.5 14q-14 -16 -17.5 -31t-3.5 -26q0 -26 22 -43.5t48 -33.5l64 -37q20 -11 35 -20 t30 -20q8 11 13 26.5t5 23.5z" unicode="§" horiz-adv-x="589" glyph-name="section"/>
<glyph d="M531 751l-16 -93q-2 -8 -10 -14t-16 -6h-94q-17 0 -17 17v3l16 93q2 8 9.5 14t15.5 6h94q8 0 13 -4.5t5 -12.5v-3zM314 751l-16 -93q-2 -8 -9.5 -14t-15.5 -6h-94q-8 0 -13 4.5t-5 12.5v3l16 93q2 8 10 14t16 6h94q17 0 17 -17v-3z" unicode="¨" horiz-adv-x="443" glyph-name="dieresis"/>
<glyph d="M780 374q0 -69 -26.5 -129.5t-71.5 -105.5t-106 -71t-130 -26t-129.5 26t-105.5 71t-71 105.5t-26 129.5t26 130t71 106.5t105.5 72t129.5 26.5t130 -26.5t106 -72t71.5 -106.5t26.5 -130zM728 374q0 58 -22.5 109.5t-60.5 90t-89.5 61t-109.5 22.5t-109 -22.5t-89.5 -61 t-60.5 -90t-22 -109.5t22 -109t60.5 -89t89.5 -60t109 -22t109.5 22t89.5 60t60.5 89t22.5 109zM549 183q0 -11 -13 -14q-13 -4 -33 -6.5t-49 -2.5q-81 0 -125.5 46t-44.5 143v56q0 98 44.5 143.5t125.5 45.5q29 0 49.5 -3.5t32.5 -6.5q7 -2 10 -4t3 -8v-63q0 -12 -12 -12 h-2q-17 2 -34.5 3.5t-46.5 1.5q-13 0 -25 -4t-21.5 -15t-15 -29.5t-5.5 -48.5v-56q0 -30 5.5 -49.5t15 -30t21.5 -14.5t25 -4q26 0 45 1.5t36 3.5h3q11 0 11 -11v-62v0z" unicode="©" horiz-adv-x="750" glyph-name="copyright"/>
<glyph d="M432 648q0 -13 -3 -30l-35 -198q-2 -13 -11 -16q-32 -8 -65.5 -12t-65.5 -4q-67 0 -99.5 26t-32.5 68t15 66.5t40 37t57 16t66 3.5h22l3 13q3 12 3 20q0 14 -8.5 19.5t-28.5 5.5q-26 0 -51.5 -1.5t-51.5 -3.5h-1q-9 0 -9 11v3l9 50q1 6 6 9.5t11 5.5q16 5 44.5 10t57.5 5 q56 0 92 -25t36 -79zM310 546q-2 0 -6 0.5t-9 0.5q-31 0 -52.5 -10.5t-21.5 -46.5q0 -16 10.5 -21.5t33.5 -5.5q10 0 17.5 1t13.5 2l14 80v0z" unicode="ª" horiz-adv-x="357" glyph-name="ordfeminine"/>
<glyph d="M779 500q0 -6 -6 -11l-224 -203l141 -203q2 -2 2 -7q0 -13 -16 -13h-109q-20 0 -28 12l-127 185q-10 14 -10 29q0 9 4 16.5t10 13.5l186 178q12 12 32 12h133q12 0 12 -9zM468 500q0 -6 -6 -11l-224 -203l141 -203q2 -2 2 -7q0 -13 -16 -13h-109q-20 0 -28 12l-127 185 q-10 14 -10 29q0 9 4 16.5t10 13.5l186 178q12 12 32 12h133q12 0 12 -9z" unicode="«" horiz-adv-x="718" glyph-name="guillemotleft"/>
<glyph unicode="¬" d="M620 198q0 -8 -5.5 -14t-13.5 -6h-85q-8 0 -13 6t-5 14v261h-317q-8 0 -14 4t-6 12v89q0 8 6 12t14 4h420q19 0 19 -16v-366v0z" glyph-name="logicalnot"/>
<glyph d="M665 484q0 -58 -22 -108.5t-60 -88.5t-89 -60t-109 -22t-108.5 22t-88.5 60t-60 88.5t-22 108.5t22 108.5t60 88.5t88.5 60t108.5 22t109 -22t89 -60t60 -88.5t22 -108.5zM614 484q0 47 -18 89t-49 73t-73 49t-89 18t-88.5 -18t-72.5 -49t-49 -73t-18 -89t18 -89t49 -73 t72.5 -49t88.5 -18t89 18t73 49t49 73t18 89zM523 330q0 -10 -10 -10h-67q-6 0 -10 8l-63 111q-2 0 -4 3t-4 3h-26v-114q0 -11 -11 -11h-60q-11 0 -11 11v294q0 16 5.5 22t19.5 8q6 1 16.5 2t23.5 1.5l26 1t23 0.5q66 0 103 -23.5t37 -84.5v-7q0 -35 -16.5 -55.5 t-42.5 -31.5l69 -121q2 -4 2 -7zM432 552q0 20 -12.5 29.5t-41.5 9.5h-41v-85h8t13 -0.5t13 -0.5h7q29 0 41.5 10t12.5 30v7z" unicode="®" horiz-adv-x="598" glyph-name="registered"/>
<glyph d="M535 744l-13 -72q-2 -8 -8.5 -13.5t-14.5 -5.5h-324q-17 0 -17 16v3l13 72q2 8 9 13.5t15 5.5h324q16 0 16 -15v-4z" unicode="¯" horiz-adv-x="443" glyph-name="macron"/>
<glyph d="M436 598q0 -32 -12 -60t-32.5 -49t-48.5 -33t-60 -12q-31 0 -59 12t-49 33t-33.5 49t-12.5 60t12.5 60t33.5 49t49 33t59 12q32 0 60 -12t48.5 -33t32.5 -49t12 -60zM355 598q0 30 -21.5 51.5t-50.5 21.5t-50.5 -21.5t-21.5 -51.5q0 -29 21 -50.5t51 -21.5t51 21.5 t21 50.5z" unicode="°" horiz-adv-x="361" glyph-name="degree"/>
<glyph unicode="±" d="M614 346q0 -8 -6 -12t-14 -4h-155v-154q0 -8 -4 -14t-12 -6h-90q-8 0 -12 6t-4 14v154h-154q-8 0 -14 4t-6 12v90q0 8 6 12t14 4h154v155q0 8 4 14t12 6h90q8 0 12 -6t4 -14v-155h155q8 0 14 -4t6 -12v-90v0zM614 -4q0 -8 -6 -12t-14 -4h-431q-8 0 -14 4t-6 12v71 q0 8 6 12t14 4h431q8 0 14 -4t6 -12v-71v0z" glyph-name="plusminus"/>
<glyph d="M430 661q0 -41 -24 -73t-57 -52l-52 -32q-12 -7 -25 -14.5t-25 -17t-21.5 -21t-13.5 -27.5h160q12 0 12 -11v-2l-12 -64q-1 -6 -6 -9.5t-10 -3.5h-244q-12 0 -12 11v3l9 50q11 60 42.5 98.5t81.5 68.5l61 37q14 9 23 18.5t9 27.5q0 11 -11 14.5t-43 3.5q-49 0 -97 -6h-2 q-11 0 -11 11v2l8 48q1 5 6.5 8t10.5 5q21 8 52.5 13t63.5 5q59 0 93 -24.5t34 -66.5z" unicode="²" horiz-adv-x="353" glyph-name="twosuperior"/>
<glyph d="M429 662q0 -37 -17 -66t-49 -48q19 -13 26.5 -29t7.5 -35q0 -41 -13 -69.5t-36.5 -46.5t-55.5 -26t-70 -8q-35 0 -65.5 5.5t-46.5 13.5q-8 4 -8 10v2l9 48q2 13 15 13h1q17 -2 40 -3.5t43 -1.5h6q17 0 31.5 1t25.5 6.5t17 17.5t6 34q0 14 -8 20.5t-28 6.5h-96 q-11 0 -11 11v3l9 52q1 6 6 10t11 4h91q26 0 40 11.5t14 38.5q0 17 -14 22.5t-44 5.5h-2q-23 0 -46.5 -2t-46.5 -4h-1q-11 0 -11 10v3l9 49q1 6 5.5 8.5t9.5 4.5q18 7 50.5 12.5t62.5 5.5q63 0 98 -23.5t35 -66.5z" unicode="³" horiz-adv-x="352" glyph-name="threesuperior"/>
<glyph d="M558 773q0 -4 -6 -9l-144 -122q-7 -6 -11.5 -9t-14.5 -3h-117q-8 0 -8 6q0 5 6 11l114 117q8 8 13 11.5t16 3.5h141q11 0 11 -6z" unicode="´" horiz-adv-x="443" glyph-name="acute"/>
<glyph d="M649 551l-88 -502q-2 -11 -10 -18t-27 -13q-36 -11 -91 -19t-125 -8q-49 0 -87 9l-30 -171q-2 -8 -9 -14t-15 -6h-122q-16 0 -16 16v4l128 722q2 8 9 15t15 7h121q8 0 12.5 -5.5t4.5 -13.5v-3l-58 -332q-3 -18 -3 -33q0 -33 18 -47.5t56 -14.5q24 0 44.5 1.5t36.5 5.5 l74 420q2 8 9 15t15 7h121q8 0 12.5 -5.5t4.5 -13.5v-3z" unicode="µ" horiz-adv-x="612" glyph-name="mu"/>
<glyph d="M731 730q0 -2 -0.5 -3t-0.5 -3l-159 -900q-2 -8 -7 -13.5t-13 -5.5h-43q-14 0 -14 16v3l149 843h-63l-149 -843q-2 -8 -7 -13.5t-13 -5.5h-43q-14 0 -14 16v3l74 418h-96q-45 0 -83 14.5t-66 39.5t-43.5 59t-15.5 74q0 18 3 36l10 55q11 62 36.5 104.5t62.5 68.5t83.5 38 t100.5 12h297q14 0 14 -13z" unicode="¶" horiz-adv-x="659" glyph-name="paragraph"/>
<glyph d="M294 445l-22 -126q-2 -8 -8.5 -14t-14.5 -6h-117q-8 0 -13 4.5t-5 12.5v3l22 126q2 8 9.5 13.5t15.5 5.5h117q16 0 16 -15v-4z" unicode="·" horiz-adv-x="274" glyph-name="periodcentered"/>
<glyph d="M317 -41q0 -3 -6 -9l-144 -122q-7 -6 -11.5 -9t-14.5 -3h-107q-8 0 -8 6q0 5 6 11l113 117q8 8 13.5 11.5t16.5 3.5h132q10 0 10 -6z" unicode="¸" horiz-adv-x="426" glyph-name="cedilla"/>
<glyph d="M348 733l-68 -388q-2 -11 -12 -11h-85q-8 0 -8 9v2l52 296l-69 -26q-6 -2 -7 -2q-4 0 -4 4v2l13 73q2 8 10 11l91 36q2 1 6.5 2.5t6.5 1.5h65q9 0 9 -8v-2z" unicode="¹" horiz-adv-x="324" glyph-name="onesuperior"/>
<glyph d="M454 628q0 -22 -4 -42l-6 -33q-15 -83 -58.5 -124t-126.5 -41q-60 0 -95.5 34.5t-35.5 94.5q0 17 3 36l6 33q9 47 25 79t39.5 51.5t54 27.5t67.5 8q59 0 95 -30.5t36 -93.5zM347 621q0 24 -10 32.5t-30 8.5q-26 0 -41 -15.5t-23 -60.5l-6 -33q-3 -18 -3 -32 q0 -25 10.5 -34.5t30.5 -9.5q26 0 40 17t22 59l6 33q4 19 4 35z" unicode="º" horiz-adv-x="380" glyph-name="ordmasculine"/>
<glyph d="M744 283q0 -16 -14 -30l-186 -178q-12 -12 -32 -12h-133q-12 0 -12 9q0 7 6 11l224 203l-141 203q-2 2 -2 7q0 13 16 13h109q20 0 28 -12l127 -185q10 -14 10 -29zM433 283q0 -16 -14 -30l-186 -178q-12 -12 -32 -12h-133q-12 0 -12 9q0 7 6 11l224 203l-141 203 q-2 2 -2 7q0 13 16 13h109q20 0 28 -12l127 -185q10 -14 10 -29z" unicode="»" horiz-adv-x="718" glyph-name="guillemotright"/>
<glyph d="M780 157l-10 -55q-1 -6 -6 -10t-11 -4h-29l-13 -73q-1 -6 -6 -10.5t-11 -4.5h-76q-10 0 -10 12v3l13 73h-145q-13 0 -13 9v2l11 62q2 12 10 20l204 221q7 7 15 7h57q7 0 12 -4.5t5 -12.5v-3l-39 -219h29q13 0 13 -11v-2zM778 736q0 -5 -6 -13l-543 -709q-8 -10 -11.5 -13 t-11.5 -3h-104q-10 0 -10 9q0 5 5 12l544 708q8 10 12.5 13t12.5 3h103q9 0 9 -7zM348 733l-68 -388q-2 -11 -12 -11h-85q-8 0 -8 9v2l52 296l-69 -26q-6 -2 -7 -2q-4 0 -4 4v2l13 73q2 8 10 11l91 36q2 1 6.5 2.5t6.5 1.5h65q9 0 9 -8v-2zM656 269q0 3 -1 3q-2 0 -7 -5 l-80 -87q-5 -5 -5 -8q0 -2 6 -2h70l17 95v4v0z" unicode="¼" horiz-adv-x="790" glyph-name="onequarter"/>
<glyph d="M832 322q0 -41 -24 -72.5t-57 -51.5l-52 -32q-12 -7 -25 -14.5t-25 -16.5t-21.5 -20t-13.5 -25h160q12 0 12 -11v-2l-12 -64q-1 -6 -6 -9.5t-10 -3.5h-244q-12 0 -12 11v3l9 50q11 59 43 96t81 67l61 37q14 9 23 18t9 27q0 11 -11 14.5t-43 3.5q-49 0 -97 -6h-2 q-11 0 -11 11v2l8 48q1 5 6.5 8t10.5 5q6 2 19 5t29.5 6t34 5t33.5 2q59 0 93 -24.5t34 -66.5zM778 736q0 -5 -6 -13l-543 -709q-8 -10 -11.5 -13t-11.5 -3h-104q-10 0 -10 9q0 5 5 12l544 708q8 10 12.5 13t12.5 3h103q9 0 9 -7zM348 733l-68 -388q-2 -11 -12 -11h-85 q-8 0 -8 9v1v1l52 296l-69 -26q-6 -2 -7 -2q-4 0 -4 4v1v1l13 73q2 8 10 11l91 36q2 1 6.5 2.5t6.5 1.5h65q9 0 9 -8v-1v-1z" unicode="½" horiz-adv-x="815" glyph-name="onehalf"/>
<glyph d="M850 157l-10 -55q-1 -6 -6 -10t-11 -4h-29l-13 -73q-1 -6 -6 -10.5t-11 -4.5h-76q-10 0 -10 12v3l13 73h-145q-13 0 -13 9v2l11 62q2 12 10 20l204 221q7 7 15 7h57q7 0 12 -4.5t5 -12.5v-3l-39 -219h29q13 0 13 -11v-2zM848 736q0 -5 -6 -13l-541 -707q-8 -10 -12 -13 t-12 -3h-104q-9 0 -9 8q0 7 5 13l542 706q8 10 12.5 13t12.5 3h103q9 0 9 -7zM429 662q0 -37 -17 -66t-49 -48q19 -13 26.5 -29t7.5 -35q0 -41 -13 -69.5t-36.5 -46.5t-55.5 -26t-70 -8q-35 0 -65.5 5.5t-46.5 13.5q-8 4 -8 10v2l9 48q2 13 15 13h1q17 -2 40 -3.5t43 -1.5h6 q17 0 31.5 1t25.5 6.5t17 17.5t6 34q0 14 -8 20.5t-28 6.5h-96q-11 0 -11 11v3l9 52q1 6 6 10t11 4h91q26 0 40 11.5t14 38.5q0 17 -14 22.5t-44 5.5h-2q-23 0 -46.5 -2t-46.5 -4h-1q-11 0 -11 10v3l9 49q1 6 5.5 8.5t9.5 4.5q18 7 50.5 12.5t62.5 5.5q63 0 98 -23.5 t35 -66.5zM728 281q0 3 -1 3q-2 0 -7 -5l-90 -99q-5 -5 -5 -8q0 -2 6 -2h78l19 107v4v0z" unicode="¾" horiz-adv-x="860" glyph-name="threequarters"/>
<glyph d="M473 554l-23 -126q-2 -8 -8.5 -14t-14.5 -6h-118q-17 0 -17 17v3l23 126q2 8 8.5 13.5t14.5 5.5h118q17 0 17 -16v-3zM436 -47q0 -2 -0.5 -3.5t-0.5 -3.5l-15 -89q-2 -11 -6.5 -17t-16.5 -9q-34 -10 -78 -15.5t-86 -5.5q-41 0 -76.5 8.5t-61 25t-40 42t-14.5 59.5 q0 33 8.5 61t23.5 53t34.5 48t41.5 45l56 58q21 22 34.5 35.5t22 23t12.5 16t5 14.5l5 28q2 9 10.5 14t16.5 5h100q8 0 11.5 -5t3.5 -11v-4l-4 -27q-3 -19 -7 -35.5t-10.5 -32t-17.5 -31.5t-29 -35l-59 -63q-24 -25 -45.5 -52t-21.5 -65q0 -14 8 -21.5t34 -7.5q39 0 73.5 3 t71.5 8h3q14 0 14 -14z" unicode="¿" horiz-adv-x="479" glyph-name="questiondown"/>
<glyph d="M653 20q0 -9 -6 -14.5t-14 -5.5h-137q-8 0 -12.5 5t-4.5 13l-7 164h-205l-65 -164q-3 -8 -9 -13t-14 -5h-143q-14 0 -14 12q0 3 2 9l258 620q15 36 36 58t46 33.5t51.5 15.5t52.5 4t51 -4t45 -15.5t33.5 -33.5t15.5 -58l40 -620v-1v0zM456 595q0 8 -1.5 11.5t-8.5 3.5 q-11 0 -17 -15l-110 -276h149zM571 803q0 -9 -11 -9h-99q-10 0 -13.5 3t-8.5 9l-100 122q-3 5 -3 7q0 8 12 8h124q11 0 15.5 -3.5t9.5 -11.5l71 -117q3 -4 3 -8z" unicode="À" horiz-adv-x="669" glyph-name="Agrave"/>
<glyph d="M653 20q0 -9 -6 -14.5t-14 -5.5h-137q-8 0 -12.5 5t-4.5 13l-7 164h-205l-65 -164q-3 -8 -9 -13t-14 -5h-143q-14 0 -14 12q0 3 2 9l258 620q15 36 36 58t46 33.5t51.5 15.5t52.5 4t51 -4t45 -15.5t33.5 -33.5t15.5 -58l40 -620v-1v0zM456 595q0 8 -1.5 11.5t-8.5 3.5 q-11 0 -17 -15l-110 -276h149zM688 937q0 -4 -6 -9l-144 -122q-7 -6 -11.5 -9t-14.5 -3h-117q-8 0 -8 6q0 5 6 11l114 117q8 8 13 11.5t16 3.5h141q11 0 11 -6z" unicode="Á" horiz-adv-x="669" glyph-name="Aacute"/>
<glyph d="M653 20q0 -9 -6 -14.5t-14 -5.5h-137q-8 0 -12.5 5t-4.5 13l-7 164h-205l-65 -164q-3 -8 -9 -13t-14 -5h-143q-14 0 -14 12q0 3 2 9l258 620q15 36 36 58t46 33.5t51.5 15.5t52.5 4t51 -4t45 -15.5t33.5 -33.5t15.5 -58l40 -620v-1v0zM456 595q0 8 -1.5 11.5t-8.5 3.5 q-11 0 -17 -15l-110 -276h149zM673 804q0 -9 -10 -9h-98q-10 0 -13.5 2.5t-8.5 9.5l-50 70l-77 -70q-8 -7 -12 -9.5t-14 -2.5h-108q-8 0 -8 6q0 5 6 11l110 117q8 8 13 11.5t16 3.5h160q11 0 15.5 -3t9.5 -12l67 -117q2 -3 2 -8z" unicode="Â" horiz-adv-x="669" glyph-name="Acircumflex"/>
<glyph d="M653 20q0 -9 -6 -14.5t-14 -5.5h-137q-8 0 -12.5 5t-4.5 13l-7 164h-205l-65 -164q-3 -8 -9 -13t-14 -5h-143q-14 0 -14 12q0 3 2 9l258 620q15 36 36 58t46 33.5t51.5 15.5t52.5 4t51 -4t45 -15.5t33.5 -33.5t15.5 -58l40 -620v-1v0zM456 595q0 8 -1.5 11.5t-8.5 3.5 q-11 0 -17 -15l-110 -276h149zM697 927l-3 -20q-10 -68 -43.5 -95t-93.5 -27q-15 0 -37.5 6.5t-36.5 17.5l-37 29q-22 18 -37 18q-10 0 -17 -4.5t-11 -22.5l-4 -19q-3 -17 -18 -17h-71q-13 0 -13 12q0 1 0.5 2t0.5 3l4 19q14 65 46 93t93 28q15 0 36 -6t35 -17l38 -28 q11 -8 20 -13t17 -5q11 0 18 4t10 23l3 19q3 16 19 16h70q12 0 12 -11v-5z" unicode="Ã" horiz-adv-x="669" glyph-name="Atilde"/>
<glyph d="M653 20q0 -9 -6 -14.5t-14 -5.5h-137q-8 0 -12.5 5t-4.5 13l-7 164h-205l-65 -164q-3 -8 -9 -13t-14 -5h-143q-14 0 -14 12q0 3 2 9l258 620q15 36 36 58t46 33.5t51.5 15.5t52.5 4t51 -4t45 -15.5t33.5 -33.5t15.5 -58l40 -620v-1v0zM456 595q0 8 -1.5 11.5t-8.5 3.5 q-11 0 -17 -15l-110 -276h149zM676 914l-16 -93q-2 -8 -10 -14t-16 -6h-94q-17 0 -17 17v3l16 93q2 8 9.5 14t15.5 6h94q8 0 13 -4.5t5 -12.5v-3zM459 914l-16 -93q-2 -8 -9.5 -14t-15.5 -6h-94q-8 0 -13 4.5t-5 12.5v3l16 93q2 8 10 14t16 6h94q17 0 17 -17v-3z" unicode="Ä" horiz-adv-x="669" glyph-name="Adieresis"/>
<glyph d="M653 20q0 -9 -6 -14.5t-14 -5.5h-137q-8 0 -12.5 5t-4.5 13l-7 164h-205l-65 -164q-3 -8 -9 -13t-14 -5h-143q-14 0 -14 12q0 3 2 9l258 620q15 36 36 58t46 33.5t51.5 15.5t52.5 4t51 -4t45 -15.5t33.5 -33.5t15.5 -58l40 -620v-1v0zM456 595q0 8 -1.5 11.5t-8.5 3.5 q-11 0 -17 -15l-110 -276h149zM604 895q0 -24 -9 -45t-25 -37t-37 -25t-45 -9t-45.5 9t-37 25t-25 37t-9.5 45t9.5 45.5t25 37t37 25t45.5 9.5t45 -9.5t37 -25t25 -37t9 -45.5zM533 896q0 18 -13.5 31t-31.5 13t-30.5 -12.5t-12.5 -31.5t12.5 -31.5t30.5 -12.5t31.5 13 t13.5 31z" unicode="Å" horiz-adv-x="669" glyph-name="Aring"/>
<glyph d="M995 729q0 -2 -0.5 -3t-0.5 -3l-17 -97q-2 -8 -8.5 -14t-14.5 -6h-242l-28 -159h234q16 0 16 -16v-4l-16 -95q-2 -8 -9 -14t-15 -6h-234l-19 -106q-2 -8 -2 -14.5v-11.5q0 -24 12.5 -33t41.5 -9h178q17 0 17 -17v-3l-17 -93q-3 -18 -23 -21q-13 -2 -26.5 -4t-32.5 -4 t-45.5 -3.5t-67.5 -1.5q-45 0 -83 8t-66.5 26.5t-44.5 49t-16 75.5q0 8 0.5 16t1.5 16h-199l-65 -164q-3 -8 -9 -13t-14 -5h-145q-14 0 -14 13q0 2 2 8l258 620q15 36 36 56.5t45 30.5t50.5 12.5t52.5 2.5h512q17 0 17 -14zM448 610q-11 0 -17 -15l-110 -276h170l52 291h-95 z" unicode="Æ" horiz-adv-x="924" glyph-name="AE"/>
<glyph d="M646 713l-17 -97q-3 -20 -24 -20h-1h-1q-28 2 -66 5t-80 3q-26 0 -50 -7.5t-44 -27t-35.5 -52t-24.5 -82.5l-23 -126q-6 -34 -6 -61q0 -62 29 -85t72 -23q42 0 81 3t68 5h3q17 0 17 -15q0 -1 -0.5 -2t-0.5 -3l-18 -97q-2 -11 -8.5 -15.5t-17.5 -7.5q-17 -5 -58 -11 t-94 -6q-49 0 -94 15t-79 45.5t-54 76.5t-20 107q0 17 1.5 35.5t5.5 38.5l23 126q18 99 53 160.5t81.5 96.5t102 47.5t115.5 12.5q53 0 92 -6t54 -11q9 -3 13.5 -6t4.5 -11v-3v-2zM423 -41q0 -3 -6 -9l-144 -122l-12 -9t-14 -3h-107q-8 0 -8 6q0 5 6 11l113 117 q8 8 13.5 11.5t16.5 3.5h132q10 0 10 -6z" unicode="Ç" horiz-adv-x="561" glyph-name="Ccedilla"/>
<glyph d="M652 725q0 -2 -0.5 -3t-0.5 -3l-17 -93q-2 -8 -8.5 -14t-14.5 -6h-203q-31 0 -49.5 -11.5t-26.5 -55.5l-16 -92h259q16 0 16 -17v-3l-16 -95q-2 -8 -9 -14t-15 -6h-259l-19 -106q-3 -15 -3 -26q0 -24 13 -33t42 -9h203q17 0 17 -17v-3l-17 -93q-3 -18 -23 -21 q-13 -2 -30 -4t-40 -4t-53 -3.5t-71 -1.5q-39 0 -77 8t-68.5 27t-49 51t-18.5 80q0 21 5 49l59 332q13 73 39.5 115.5t63 64.5t82.5 28t97 6q41 0 70.5 -1.5t52 -3.5t38.5 -4t29 -4q18 -3 18 -14zM533 804q0 -9 -11 -9h-99q-10 0 -13.5 3t-8.5 9l-100 122q-3 5 -3 7 q0 8 12 8h124q11 0 15.5 -3.5t9.5 -11.5l71 -117q3 -4 3 -8z" unicode="È" horiz-adv-x="581" glyph-name="Egrave"/>
<glyph d="M652 725q0 -2 -0.5 -3t-0.5 -3l-17 -93q-2 -8 -8.5 -14t-14.5 -6h-203q-31 0 -49.5 -11.5t-26.5 -55.5l-16 -92h259q16 0 16 -17v-3l-16 -95q-2 -8 -9 -14t-15 -6h-259l-19 -106q-3 -15 -3 -26q0 -24 13 -33t42 -9h203q17 0 17 -17v-3l-17 -93q-3 -18 -23 -21 q-13 -2 -30 -4t-40 -4t-53 -3.5t-71 -1.5q-39 0 -77 8t-68.5 27t-49 51t-18.5 80q0 21 5 49l59 332q13 73 39.5 115.5t63 64.5t82.5 28t97 6q41 0 70.5 -1.5t52 -3.5t38.5 -4t29 -4q18 -3 18 -14zM648 938q0 -4 -6 -9l-144 -122q-7 -6 -11.5 -9t-14.5 -3h-117q-8 0 -8 6 q0 5 6 11l114 117q8 8 13 11.5t16 3.5h141q11 0 11 -6z" unicode="É" horiz-adv-x="581" glyph-name="Eacute"/>
<glyph d="M652 725q0 -2 -0.5 -3t-0.5 -3l-17 -93q-2 -8 -8.5 -14t-14.5 -6h-203q-31 0 -49.5 -11.5t-26.5 -55.5l-16 -92h259q16 0 16 -17v-3l-16 -95q-2 -8 -9 -14t-15 -6h-259l-19 -106q-3 -15 -3 -26q0 -24 13 -33t42 -9h203q17 0 17 -17v-3l-17 -93q-3 -18 -23 -21 q-13 -2 -30 -4t-40 -4t-53 -3.5t-71 -1.5q-39 0 -77 8t-68.5 27t-49 51t-18.5 80q0 21 5 49l59 332q13 73 39.5 115.5t63 64.5t82.5 28t97 6q41 0 70.5 -1.5t52 -3.5t38.5 -4t29 -4q18 -3 18 -14zM651 804q0 -9 -10 -9h-98q-10 0 -13.5 2.5t-8.5 9.5l-50 70l-77 -70 q-8 -7 -12 -9.5t-14 -2.5h-108q-8 0 -8 6q0 5 6 11l110 117q8 8 13 11.5t16 3.5h160q11 0 15.5 -3t9.5 -12l67 -117q2 -3 2 -8z" unicode="Ê" horiz-adv-x="581" glyph-name="Ecircumflex"/>
<glyph d="M652 725q0 -2 -0.5 -3t-0.5 -3l-17 -93q-2 -8 -8.5 -14t-14.5 -6h-203q-31 0 -49.5 -11.5t-26.5 -55.5l-16 -92h259q16 0 16 -17v-3l-16 -95q-2 -8 -9 -14t-15 -6h-259l-19 -106q-3 -15 -3 -26q0 -24 13 -33t42 -9h203q17 0 17 -17v-3l-17 -93q-3 -18 -23 -21 q-13 -2 -30 -4t-40 -4t-53 -3.5t-71 -1.5q-39 0 -77 8t-68.5 27t-49 51t-18.5 80q0 21 5 49l59 332q13 73 39.5 115.5t63 64.5t82.5 28t97 6q41 0 70.5 -1.5t52 -3.5t38.5 -4t29 -4q18 -3 18 -14zM631 914l-16 -93q-2 -8 -10 -14t-16 -6h-94q-17 0 -17 17v3l16 93 q2 8 9.5 14t15.5 6h94q8 0 13 -4.5t5 -12.5v-3zM414 914l-16 -93q-2 -8 -9.5 -14t-15.5 -6h-94q-8 0 -13 4.5t-5 12.5v3l16 93q2 8 10 14t16 6h94q17 0 17 -17v-3z" unicode="Ë" horiz-adv-x="581" glyph-name="Edieresis"/>
<glyph d="M369 724l-124 -704q-2 -8 -8.5 -14t-14.5 -6h-134q-7 0 -10.5 4.5t-3.5 10.5v5l124 704q3 19 21 19h134q16 0 16 -15v-4zM393 804q0 -9 -11 -9h-99q-10 0 -13.5 3t-8.5 9l-100 122q-3 5 -3 7q0 8 12 8h124q11 0 15.5 -3.5t9.5 -11.5l71 -117q3 -4 3 -8z" unicode="Ì" horiz-adv-x="311" glyph-name="Igrave"/>
<glyph d="M369 724l-124 -704q-2 -8 -8.5 -14t-14.5 -6h-134q-7 0 -10.5 4.5t-3.5 10.5v5l124 704q3 19 21 19h134q16 0 16 -15v-4zM498 938q0 -4 -6 -9l-144 -122q-7 -6 -11.5 -9t-14.5 -3h-117q-8 0 -8 6q0 5 6 11l114 117q8 8 13 11.5t16 3.5h141q11 0 11 -6z" unicode="Í" horiz-adv-x="311" glyph-name="Iacute"/>
<glyph d="M369 724l-124 -704q-2 -8 -8.5 -14t-14.5 -6h-134q-7 0 -10.5 4.5t-3.5 10.5v5l124 704q3 19 21 19h134q16 0 16 -15v-4zM497 803q0 -9 -10 -9h-98q-10 0 -13.5 2.5t-8.5 9.5l-50 70l-77 -70q-8 -7 -12 -9.5t-14 -2.5h-108q-8 0 -8 6q0 5 6 11l110 117q8 8 13 11.5 t16 3.5h160q11 0 15.5 -3t9.5 -12l67 -117q2 -3 2 -8z" unicode="Î" horiz-adv-x="311" glyph-name="Icircumflex"/>
<glyph d="M369 724l-124 -704q-2 -8 -8.5 -14t-14.5 -6h-134q-7 0 -10.5 4.5t-3.5 10.5v5l124 704q3 19 21 19h134q16 0 16 -15v-4zM493 914l-16 -93q-2 -8 -10 -14t-16 -6h-94q-17 0 -17 17v3l16 93q2 8 9.5 14t15.5 6h94q8 0 13 -4.5t5 -12.5v-3zM276 914l-16 -93q-2 -8 -9.5 -14 t-15.5 -6h-94q-8 0 -13 4.5t-5 12.5v3l16 93q2 8 10 14t16 6h94q17 0 17 -17v-3z" unicode="Ï" horiz-adv-x="311" glyph-name="Idieresis"/>
<glyph d="M715 508q0 -37 -7 -72l-23 -129q-15 -85 -44 -145t-75 -98t-109.5 -55.5t-146.5 -17.5q-31 0 -62 1.5t-59 3.5t-51 4.5t-38 5.5q-11 2 -17.5 7.5t-6.5 17.5q0 6 1 10l48 271h-56q-16 0 -16 15v4l17 97q2 8 8.5 13.5t14.5 5.5h56l45 255q3 17 11.5 25t23.5 10q16 3 40 5.5 t52.5 4.5t60.5 3.5t63 1.5q62 0 112 -16.5t85 -47.5t54 -76.5t19 -103.5zM543 495q0 33 -9 54.5t-25 34t-39 18t-51 5.5q-19 0 -39.5 -0.5t-31.5 -1.5l-28 -158h61q15 0 15 -15v-4l-17 -97q-3 -19 -22 -19h-61l-31 -174q11 -1 31.5 -1.5t39.5 -0.5q36 0 65 7.5t51 27 t37.5 52.5t24.5 84l23 129q6 33 6 59z" unicode="Ð" horiz-adv-x="682" glyph-name="Eth"/>
<glyph d="M787 724l-121 -686q-3 -16 -15.5 -27t-28.5 -11h-84q-16 0 -31.5 5.5t-23.5 25.5l-166 394q-4 8 -8 8q-5 0 -6 -8l-71 -405q-2 -8 -9 -14t-15 -6h-118q-16 0 -16 17v3l120 685q3 16 16 27t29 11h76q15 0 30.5 -6t23.5 -25l172 -412q4 -8 6 -8t4 2t3 7l75 423 q2 8 8.5 13.5t14.5 5.5h118q17 0 17 -16v-3zM722 927l-3 -20q-10 -68 -43.5 -95t-93.5 -27q-15 0 -37.5 6.5t-36.5 17.5l-37 29q-22 18 -37 18q-10 0 -17 -4.5t-11 -22.5l-4 -19q-3 -17 -18 -17h-71q-13 0 -13 12q0 1 0.5 2t0.5 3l4 19q14 65 46 93t93 28q15 0 36 -6t35 -17 l38 -28q11 -8 20 -13t17 -5q11 0 18 4t10 23l3 19q3 16 19 16h70q12 0 12 -11v-5z" unicode="Ñ" horiz-adv-x="729" glyph-name="Ntilde"/>
<glyph d="M728 509q0 -18 -1.5 -37.5t-5.5 -40.5l-21 -119q-15 -88 -46 -149t-75.5 -99t-102.5 -55.5t-129 -17.5q-51 0 -96 15t-78.5 46t-52.5 77t-19 107q0 38 7 76l21 119q17 93 50.5 155t80 98.5t103 52t119.5 15.5q50 0 95 -14t78.5 -43.5t53 -75.5t19.5 -110zM556 497 q0 57 -25 81t-76 24q-31 0 -56 -9t-43.5 -29.5t-32 -53t-21.5 -79.5l-21 -119q-7 -38 -7 -70q0 -57 25 -79t75 -22q63 0 100.5 40t53.5 131l21 119q3 19 5 35.5t2 30.5zM576 803q0 -9 -11 -9h-99q-10 0 -13.5 3t-8.5 9l-100 122q-3 5 -3 7q0 8 12 8h124q11 0 15.5 -3.5 t9.5 -11.5l71 -117q3 -4 3 -8z" unicode="Ò" horiz-adv-x="698" glyph-name="Ograve"/>
<glyph d="M728 509q0 -18 -1.5 -37.5t-5.5 -40.5l-21 -119q-15 -88 -46 -149t-75.5 -99t-102.5 -55.5t-129 -17.5q-51 0 -96 15t-78.5 46t-52.5 77t-19 107q0 38 7 76l21 119q17 93 50.5 155t80 98.5t103 52t119.5 15.5q50 0 95 -14t78.5 -43.5t53 -75.5t19.5 -110zM556 497 q0 57 -25 81t-76 24q-31 0 -56 -9t-43.5 -29.5t-32 -53t-21.5 -79.5l-21 -119q-7 -38 -7 -70q0 -57 25 -79t75 -22q63 0 100.5 40t53.5 131l21 119q3 19 5 35.5t2 30.5zM686 938q0 -4 -6 -9l-144 -122q-7 -6 -11.5 -9t-14.5 -3h-117q-8 0 -8 6q0 5 6 11l114 117q8 8 13 11.5 t16 3.5h141q11 0 11 -6z" unicode="Ó" horiz-adv-x="698" glyph-name="Oacute"/>
<glyph d="M728 509q0 -18 -1.5 -37.5t-5.5 -40.5l-21 -119q-15 -88 -46 -149t-75.5 -99t-102.5 -55.5t-129 -17.5q-51 0 -96 15t-78.5 46t-52.5 77t-19 107q0 38 7 76l21 119q17 93 50.5 155t80 98.5t103 52t119.5 15.5q50 0 95 -14t78.5 -43.5t53 -75.5t19.5 -110zM556 497 q0 57 -25 81t-76 24q-31 0 -56 -9t-43.5 -29.5t-32 -53t-21.5 -79.5l-21 -119q-7 -38 -7 -70q0 -57 25 -79t75 -22q63 0 100.5 40t53.5 131l21 119q3 19 5 35.5t2 30.5zM685 804q0 -9 -10 -9h-98q-10 0 -13.5 2.5t-8.5 9.5l-50 70l-77 -70q-8 -7 -12 -9.5t-14 -2.5h-108 q-8 0 -8 6q0 5 6 11l110 117q8 8 13 11.5t16 3.5h160q11 0 15.5 -3t9.5 -12l67 -117q2 -3 2 -8z" unicode="Ô" horiz-adv-x="698" glyph-name="Ocircumflex"/>
<glyph d="M728 509q0 -18 -1.5 -37.5t-5.5 -40.5l-21 -119q-15 -88 -46 -149t-75.5 -99t-102.5 -55.5t-129 -17.5q-51 0 -96 15t-78.5 46t-52.5 77t-19 107q0 38 7 76l21 119q17 93 50.5 155t80 98.5t103 52t119.5 15.5q50 0 95 -14t78.5 -43.5t53 -75.5t19.5 -110zM556 497 q0 57 -25 81t-76 24q-31 0 -56 -9t-43.5 -29.5t-32 -53t-21.5 -79.5l-21 -119q-7 -38 -7 -70q0 -57 25 -79t75 -22q63 0 100.5 40t53.5 131l21 119q3 19 5 35.5t2 30.5zM717 928l-3 -20q-10 -68 -43.5 -95t-93.5 -27q-15 0 -37.5 6.5t-36.5 17.5l-37 29q-22 18 -37 18 q-10 0 -17 -4.5t-11 -22.5l-4 -19q-3 -17 -18 -17h-71q-13 0 -13 12q0 1 0.5 2t0.5 3l4 19q14 65 46 93t93 28q15 0 36 -6t35 -17l38 -28q11 -8 20 -13t17 -5q11 0 18 4t10 23l3 19q3 16 19 16h70q12 0 12 -11v-5z" unicode="Õ" horiz-adv-x="698" glyph-name="Otilde"/>
<glyph d="M728 509q0 -18 -1.5 -37.5t-5.5 -40.5l-21 -119q-15 -88 -46 -149t-75.5 -99t-102.5 -55.5t-129 -17.5q-51 0 -96 15t-78.5 46t-52.5 77t-19 107q0 38 7 76l21 119q17 93 50.5 155t80 98.5t103 52t119.5 15.5q50 0 95 -14t78.5 -43.5t53 -75.5t19.5 -110zM556 497 q0 57 -25 81t-76 24q-31 0 -56 -9t-43.5 -29.5t-32 -53t-21.5 -79.5l-21 -119q-7 -38 -7 -70q0 -57 25 -79t75 -22q63 0 100.5 40t53.5 131l21 119q3 19 5 35.5t2 30.5zM680 914l-16 -93q-2 -8 -10 -14t-16 -6h-94q-17 0 -17 17v3l16 93q2 8 9.5 14t15.5 6h94q8 0 13 -4.5 t5 -12.5v-3zM463 914l-16 -93q-2 -8 -9.5 -14t-15.5 -6h-94q-8 0 -13 4.5t-5 12.5v3l16 93q2 8 10 14t16 6h94q17 0 17 -17v-3z" unicode="Ö" horiz-adv-x="698" glyph-name="Odieresis"/>
<glyph unicode="×" d="M600 255q0 -5 -5 -10l-63 -63q-5 -5 -10 -5q-8 0 -16 8l-120 120l-120 -120q-8 -8 -15 -8q-5 0 -10 5l-64 64q-5 5 -5 10q0 7 8 15l120 120l-120 120q-8 8 -8 15q0 5 5 10l64 64q5 5 10 5q7 0 15 -8l120 -120l120 120q8 8 16 8q5 0 10 -5l63 -63q5 -5 5 -10q0 -8 -8 -16 l-120 -120l120 -120q8 -8 8 -16z" glyph-name="multiply"/>
<glyph d="M807 741q0 -6 -4 -10l-96 -108q21 -48 21 -114q0 -18 -1.5 -37.5t-5.5 -40.5l-21 -119q-15 -88 -46 -149t-75.5 -99t-102.5 -55.5t-129 -17.5q-47 0 -88 12.5t-73 37.5l-35 -39q-10 -11 -23 -11h-97q-9 0 -9 8q0 6 5 11l97 109q-23 51 -23 117q0 38 7 76l21 119 q17 93 50.5 155t80 98.5t103 52t119.5 15.5q48 0 90 -12.5t75 -38.5l35 40q5 6 8 7.5t11 1.5h97q9 0 9 -9zM533 575q-24 27 -78 27q-31 0 -56 -9t-43.5 -29.5t-32 -53t-21.5 -79.5l-21 -119q-1 -6 -1.5 -11.5t-1.5 -10.5l255 285v0zM297 165q24 -24 77 -24q63 0 100.5 40 t53.5 131l21 119q1 5 1.5 10t1.5 10z" unicode="Ø" horiz-adv-x="698" glyph-name="Oslash"/>
<glyph d="M772 724l-79 -445q-17 -94 -50 -151t-77.5 -87.5t-98.5 -40t-114 -9.5q-52 0 -97 12.5t-77 39t-50.5 67.5t-18.5 98q0 17 1 34t5 37l79 445q2 8 8.5 13.5t14.5 5.5h131q17 0 17 -16v-3l-79 -445q-6 -33 -6 -59q0 -45 22.5 -65.5t75.5 -20.5q34 0 58 8.5t40.5 26t27 45 t17.5 65.5l79 445q2 8 8.5 13.5t14.5 5.5h130q8 0 13 -4t5 -12v-3zM598 803q0 -9 -11 -9h-99q-10 0 -13.5 3t-8.5 9l-100 122q-3 5 -3 7q0 8 12 8h124q11 0 15.5 -3.5t9.5 -11.5l71 -117q3 -4 3 -8z" unicode="Ù" horiz-adv-x="711" glyph-name="Ugrave"/>
<glyph d="M772 724l-79 -445q-17 -94 -50 -151t-77.5 -87.5t-98.5 -40t-114 -9.5q-52 0 -97 12.5t-77 39t-50.5 67.5t-18.5 98q0 17 1 34t5 37l79 445q2 8 8.5 13.5t14.5 5.5h131q17 0 17 -16v-3l-79 -445q-6 -33 -6 -59q0 -45 22.5 -65.5t75.5 -20.5q34 0 58 8.5t40.5 26t27 45 t17.5 65.5l79 445q2 8 8.5 13.5t14.5 5.5h130q8 0 13 -4t5 -12v-3zM705 937q0 -4 -6 -9l-144 -122q-7 -6 -11.5 -9t-14.5 -3h-117q-8 0 -8 6q0 5 6 11l114 117q8 8 13 11.5t16 3.5h141q11 0 11 -6z" unicode="Ú" horiz-adv-x="711" glyph-name="Uacute"/>
<glyph d="M772 724l-79 -445q-17 -94 -50 -151t-77.5 -87.5t-98.5 -40t-114 -9.5q-52 0 -97 12.5t-77 39t-50.5 67.5t-18.5 98q0 17 1 34t5 37l79 445q2 8 8.5 13.5t14.5 5.5h131q17 0 17 -16v-3l-79 -445q-6 -33 -6 -59q0 -45 22.5 -65.5t75.5 -20.5q34 0 58 8.5t40.5 26t27 45 t17.5 65.5l79 445q2 8 8.5 13.5t14.5 5.5h130q8 0 13 -4t5 -12v-3zM699 804q0 -9 -10 -9h-98q-10 0 -13.5 2.5t-8.5 9.5l-50 70l-77 -70q-8 -7 -12 -9.5t-14 -2.5h-108q-8 0 -8 6q0 5 6 11l110 117q8 8 13 11.5t16 3.5h160q11 0 15.5 -3t9.5 -12l67 -117q2 -3 2 -8z" unicode="Û" horiz-adv-x="711" glyph-name="Ucircumflex"/>
<glyph d="M772 724l-79 -445q-17 -94 -50 -151t-77.5 -87.5t-98.5 -40t-114 -9.5q-52 0 -97 12.5t-77 39t-50.5 67.5t-18.5 98q0 17 1 34t5 37l79 445q2 8 8.5 13.5t14.5 5.5h131q17 0 17 -16v-3l-79 -445q-6 -33 -6 -59q0 -45 22.5 -65.5t75.5 -20.5q34 0 58 8.5t40.5 26t27 45 t17.5 65.5l79 445q2 8 8.5 13.5t14.5 5.5h130q8 0 13 -4t5 -12v-3zM691 914l-16 -93q-2 -8 -10 -14t-16 -6h-94q-17 0 -17 17v3l16 93q2 8 9.5 14t15.5 6h94q8 0 13 -4.5t5 -12.5v-3zM474 914l-16 -93q-2 -8 -9.5 -14t-15.5 -6h-94q-8 0 -13 4.5t-5 12.5v3l16 93q2 8 10 14 t16 6h94q17 0 17 -17v-3z" unicode="Ü" horiz-adv-x="711" glyph-name="Udieresis"/>
<glyph d="M755 731q0 -5 -3 -10l-212 -346q-21 -35 -39.5 -52t-38.5 -25l-49 -278q-2 -8 -9 -14t-15 -6h-131q-16 0 -16 17v3l49 278q-17 8 -30.5 25t-22.5 52l-90 346q0 1 -0.5 2t-0.5 2q0 8 6 13t14 5h140q8 0 11.5 -5t5.5 -12l58 -282q2 -10 5 -12.5t8 -2.5t8.5 2.5t8.5 12.5 l158 282q4 7 9.5 12t13.5 5h148q14 0 14 -12zM681 937q0 -4 -6 -9l-144 -122q-7 -6 -11.5 -9t-14.5 -3h-117q-8 0 -8 6q0 5 6 11l114 117q8 8 13 11.5t16 3.5h141q11 0 11 -6z" unicode="Ý" horiz-adv-x="649" glyph-name="Yacute"/>
<glyph d="M697 473q0 -82 -26.5 -139.5t-73.5 -94t-111.5 -53.5t-139.5 -17q-20 0 -38.5 0.5t-39.5 1.5l-26 -151q-2 -8 -8.5 -14t-14.5 -6h-131q-15 0 -15 16v3v1l124 704q3 19 22 19h131q16 0 16 -15v-3v-1l-11 -59q4 0 13 0.5t19.5 0.5h21.5h20q50 0 98.5 -10t86 -33t60.5 -59.5 t23 -90.5zM523 448q0 41 -29.5 57.5t-85.5 16.5h-16.5h-24t-23 -0.5t-14.5 -0.5l-37 -207q4 0 15 -0.5t23.5 -0.5h24h15.5q69 0 110.5 31.5t41.5 103.5z" unicode="Þ" horiz-adv-x="652" glyph-name="Thorn"/>
<glyph d="M690 594q0 -30 -8.5 -60.5t-24 -56.5t-38.5 -47t-52 -33q22 -13 36.5 -29.5t23 -34t12 -35.5t3.5 -33q0 -66 -20.5 -117t-58.5 -86t-91 -53t-119 -18q-13 0 -29 1.5t-31 4.5q-16 4 -16 16v3l17 96q3 16 14 16h1q9 -1 18 -1h18q69 0 101.5 33.5t32.5 102.5 q0 32 -20.5 51.5t-71.5 19.5h-31q-17 0 -17 16v3l14 79q2 8 9 13.5t15 5.5h31q59 0 89 34.5t30 91.5q0 58 -86 58q-33 0 -55 -7.5t-37 -22.5t-24 -37.5t-14 -52.5l-87 -494q-2 -8 -8.5 -14.5t-14.5 -6.5h-124q-8 0 -12 5t-4 12v4l87 494q13 75 37.5 124.5t63 79.5t92 42.5 t124.5 12.5q50 0 91.5 -12.5t71 -36t46 -56.5t16.5 -75z" unicode="ß" horiz-adv-x="652" glyph-name="germandbls"/>
<glyph d="M623 534q0 -5 -1 -8l-88 -506q-2 -8 -8.5 -14t-14.5 -6h-102q-8 0 -12.5 5t-4.5 12v3l4 29q-41 -32 -78 -45t-77 -13q-45 0 -77 16t-52 42.5t-29.5 61.5t-9.5 72q0 14 1.5 28t3.5 28q3 22 7 40q3 16 5.5 31.5t3.5 22.5q23 131 100 189.5t195 58.5q51 0 104.5 -7 t102.5 -18q13 -3 20 -7t7 -15zM445 442q-14 2 -35 4t-42 2q-54 0 -78.5 -31t-35.5 -92l-18 -105q-3 -16 -3 -33q0 -25 11.5 -43t45.5 -18q26 0 53.5 10.5t52.5 24.5l49 281v0zM497 639q0 -9 -11 -9h-99q-10 0 -13.5 3t-8.5 9l-100 122q-3 5 -3 7q0 8 12 8h124 q11 0 15.5 -3.5t9.5 -11.5l71 -117q3 -4 3 -8z" unicode="à" horiz-adv-x="581" glyph-name="agrave"/>
<glyph d="M623 534q0 -5 -1 -8l-88 -506q-2 -8 -8.5 -14t-14.5 -6h-102q-8 0 -12.5 5t-4.5 12v3l4 29q-41 -32 -78 -45t-77 -13q-45 0 -77 16t-52 42.5t-29.5 61.5t-9.5 72q0 14 1.5 28t3.5 28q3 22 7 40q3 16 5.5 31.5t3.5 22.5q23 131 100 189.5t195 58.5q51 0 104.5 -7 t102.5 -18q13 -3 20 -7t7 -15zM445 442q-14 2 -35 4t-42 2q-54 0 -78.5 -31t-35.5 -92l-18 -105q-3 -16 -3 -33q0 -25 11.5 -43t45.5 -18q26 0 53.5 10.5t52.5 24.5l49 281v0zM629 773q0 -4 -6 -9l-144 -122q-7 -6 -11.5 -9t-14.5 -3h-117q-8 0 -8 6q0 5 6 11l114 117 q8 8 13 11.5t16 3.5h141q11 0 11 -6z" unicode="á" horiz-adv-x="581" glyph-name="aacute"/>
<glyph d="M623 534q0 -5 -1 -8l-88 -506q-2 -8 -8.5 -14t-14.5 -6h-102q-8 0 -12.5 5t-4.5 12v3l4 29q-41 -32 -78 -45t-77 -13q-45 0 -77 16t-52 42.5t-29.5 61.5t-9.5 72q0 14 1.5 28t3.5 28q3 22 7 40q3 16 5.5 31.5t3.5 22.5q23 131 100 189.5t195 58.5q51 0 104.5 -7 t102.5 -18q13 -3 20 -7t7 -15zM445 442q-14 2 -35 4t-42 2q-54 0 -78.5 -31t-35.5 -92l-18 -105q-3 -16 -3 -33q0 -25 11.5 -43t45.5 -18q26 0 53.5 10.5t52.5 24.5l49 281v0zM608 639q0 -9 -10 -9h-98q-10 0 -13.5 2.5t-8.5 9.5l-50 70l-77 -70q-8 -7 -12 -9.5t-14 -2.5 h-108q-8 0 -8 6q0 5 6 11l110 117q8 8 13 11.5t16 3.5h160q11 0 15.5 -3t9.5 -12l67 -117q2 -3 2 -8z" unicode="â" horiz-adv-x="581" glyph-name="acircumflex"/>
<glyph d="M623 534q0 -5 -1 -8l-88 -506q-2 -8 -8.5 -14t-14.5 -6h-102q-8 0 -12.5 5t-4.5 12v3l4 29q-41 -32 -78 -45t-77 -13q-45 0 -77 16t-52 42.5t-29.5 61.5t-9.5 72q0 14 1.5 28t3.5 28q3 22 7 40q3 16 5.5 31.5t3.5 22.5q23 131 100 189.5t195 58.5q51 0 104.5 -7 t102.5 -18q13 -3 20 -7t7 -15zM445 442q-14 2 -35 4t-42 2q-54 0 -78.5 -31t-35.5 -92l-18 -105q-3 -16 -3 -33q0 -25 11.5 -43t45.5 -18q26 0 53.5 10.5t52.5 24.5l49 281v0zM625 766l-3 -20q-10 -68 -43.5 -95t-93.5 -27q-15 0 -37.5 6.5t-36.5 17.5l-37 29q-22 18 -37 18 q-10 0 -17 -4.5t-11 -22.5l-4 -19q-3 -17 -18 -17h-71q-13 0 -13 12q0 1 0.5 2t0.5 3l4 19q14 65 46 93t93 28q15 0 36 -6t35 -17l38 -28q11 -8 20 -13t17 -5q11 0 18 4t10 23l3 19q3 16 19 16h70q12 0 12 -11v-5z" unicode="ã" horiz-adv-x="581" glyph-name="atilde"/>
<glyph d="M623 534q0 -5 -1 -8l-88 -506q-2 -8 -8.5 -14t-14.5 -6h-102q-8 0 -12.5 5t-4.5 12v3l4 29q-41 -32 -78 -45t-77 -13q-45 0 -77 16t-52 42.5t-29.5 61.5t-9.5 72q0 14 1.5 28t3.5 28q3 22 7 40q3 16 5.5 31.5t3.5 22.5q23 131 100 189.5t195 58.5q51 0 104.5 -7 t102.5 -18q13 -3 20 -7t7 -15zM445 442q-14 2 -35 4t-42 2q-54 0 -78.5 -31t-35.5 -92l-18 -105q-3 -16 -3 -33q0 -25 11.5 -43t45.5 -18q26 0 53.5 10.5t52.5 24.5l49 281v0zM608 753l-16 -93q-2 -8 -10 -14t-16 -6h-94q-17 0 -17 17v3l16 93q2 8 9.5 14t15.5 6h94 q8 0 13 -4.5t5 -12.5v-3zM391 753l-16 -93q-2 -8 -9.5 -14t-15.5 -6h-94q-8 0 -13 4.5t-5 12.5v3l16 93q2 8 10 14t16 6h94q17 0 17 -17v-3z" unicode="ä" horiz-adv-x="581" glyph-name="adieresis"/>
<glyph d="M623 534q0 -5 -1 -8l-88 -506q-2 -8 -8.5 -14t-14.5 -6h-102q-8 0 -12.5 5t-4.5 12v3l4 29q-41 -32 -78 -45t-77 -13q-45 0 -77 16t-52 42.5t-29.5 61.5t-9.5 72q0 14 1.5 28t3.5 28q3 22 7 40q3 16 5.5 31.5t3.5 22.5q23 131 100 189.5t195 58.5q51 0 104.5 -7 t102.5 -18q13 -3 20 -7t7 -15zM445 442q-14 2 -35 4t-42 2q-54 0 -78.5 -31t-35.5 -92l-18 -105q-3 -16 -3 -33q0 -25 11.5 -43t45.5 -18q26 0 53.5 10.5t52.5 24.5l49 281v0zM538 741q0 -24 -9 -45t-25 -37t-37 -25t-45 -9t-45.5 9t-37 25t-25 37t-9.5 45t9.5 45.5t25 37 t37 25t45.5 9.5t45 -9.5t37 -25t25 -37t9 -45.5zM467 742q0 18 -13.5 31t-31.5 13t-30.5 -12.5t-12.5 -31.5t12.5 -31.5t30.5 -12.5t31.5 13t13.5 31z" unicode="å" horiz-adv-x="581" glyph-name="aring"/>
<glyph d="M898 384q0 -14 -1.5 -27.5t-3.5 -27.5l-11 -64q-2 -8 -9.5 -14.5t-15.5 -6.5h-310l-7 -41q-1 -5 -1.5 -8.5t-0.5 -7.5q0 -33 27.5 -47t76.5 -14q14 0 38 0.5t49.5 2t49 3t38.5 2.5h5q13 0 13 -11v-5l-13 -72q-2 -11 -6.5 -16.5t-16.5 -9.5q-45 -14 -100 -21.5t-104 -7.5 q-43 0 -79.5 11.5t-59.5 34.5q-44 -22 -92.5 -34t-101.5 -12q-39 0 -74 9.5t-61.5 28t-42 46.5t-15.5 65q0 16 3 32l2 11q9 48 32 78.5t59.5 48.5t86 24.5t109.5 6.5h42l2 9q2 11 3 21.5t1 18.5q0 32 -15.5 44t-49.5 12q-23 0 -48 -0.5t-47.5 -1.5t-40.5 -2.5t-29 -2.5h-3 q-13 0 -13 13v5l14 79q4 19 24 24q14 3 33 7t41 7t46 5t46 2q56 0 93 -15.5t61 -44.5q33 32 77.5 46t96.5 14q53 0 91.5 -15.5t63 -42.5t36.5 -62.5t12 -76.5zM745 384q0 34 -17.5 53t-55.5 19q-46 0 -72 -28.5t-34 -77.5l-3 -18h176l3 18q3 18 3 34zM346 253 q-53 0 -82 -15.5t-36 -54.5l-2 -11q-1 -4 -1 -7.5v-6.5q0 -29 20.5 -40.5t48.5 -11.5q20 0 39 3t36 10l24 134h-47z" unicode="æ" horiz-adv-x="881" glyph-name="ae"/>
<glyph d="M529 550q0 -2 -0.5 -3.5t-0.5 -3.5l-16 -89q-2 -8 -8 -12.5t-14 -4.5h-2q-27 3 -52.5 5t-68.5 2q-18 0 -34 -5t-29 -18t-23 -35.5t-16 -57.5l-15 -84q-2 -14 -3.5 -26t-1.5 -22q0 -41 17.5 -54.5t49.5 -13.5q21 0 37.5 0.5t31 1.5t27.5 2.5t27 2.5h2q16 0 16 -14v-3 l-16 -89q-2 -11 -7.5 -15.5t-17.5 -7.5q-22 -5 -55 -10t-78 -5q-44 0 -80 13t-62 37.5t-40.5 61t-14.5 82.5q0 28 6 59l15 84q12 70 36.5 118.5t60 78.5t81 43t99.5 13q45 0 78 -5t53 -10q18 -4 18 -16zM338 -41q0 -3 -6 -9l-144 -122l-12 -9t-14 -3h-107q-8 0 -8 6 q0 5 6 11l113 117q8 8 13.5 11.5t16.5 3.5h132q10 0 10 -6z" unicode="ç" horiz-adv-x="474" glyph-name="ccedilla"/>
<glyph d="M606 372q0 -13 -1.5 -26.5t-3.5 -27.5l-10 -58q-5 -24 -25 -24h-321q-2 -11 -3 -21.5t-1 -19.5q0 -39 20.5 -54.5t68.5 -15.5q24 0 51.5 1t54 2t50 3t38.5 3h3q16 0 16 -13v-3l-14 -76q-2 -12 -6.5 -18t-18.5 -9q-50 -12 -97.5 -18t-112.5 -6q-40 0 -78 12t-67.5 36.5 t-47 62.5t-17.5 90q0 13 1.5 27t3.5 29l12 70q23 131 99 197t200 66q51 0 89.5 -16t64.5 -44.5t39 -66.5t13 -82zM455 380q0 35 -18 53t-60 18q-51 0 -77.5 -31.5t-37.5 -83.5h188q2 12 3.5 23t1.5 21zM517 639q0 -9 -11 -9h-99q-10 0 -13.5 3t-8.5 9l-100 122q-3 5 -3 7 q0 8 12 8h124q11 0 15.5 -3.5t9.5 -11.5l71 -117q3 -4 3 -8z" unicode="è" horiz-adv-x="590" glyph-name="egrave"/>
<glyph d="M606 372q0 -13 -1.5 -26.5t-3.5 -27.5l-10 -58q-5 -24 -25 -24h-321q-2 -11 -3 -21.5t-1 -19.5q0 -39 20.5 -54.5t68.5 -15.5q24 0 51.5 1t54 2t50 3t38.5 3h3q16 0 16 -13v-3l-14 -76q-2 -12 -6.5 -18t-18.5 -9q-50 -12 -97.5 -18t-112.5 -6q-40 0 -78 12t-67.5 36.5 t-47 62.5t-17.5 90q0 13 1.5 27t3.5 29l12 70q23 131 99 197t200 66q51 0 89.5 -16t64.5 -44.5t39 -66.5t13 -82zM455 380q0 35 -18 53t-60 18q-51 0 -77.5 -31.5t-37.5 -83.5h188q2 12 3.5 23t1.5 21zM611 773q0 -4 -6 -9l-144 -122q-7 -6 -11.5 -9t-14.5 -3h-117 q-8 0 -8 6q0 5 6 11l114 117q8 8 13 11.5t16 3.5h141q11 0 11 -6z" unicode="é" horiz-adv-x="590" glyph-name="eacute"/>
<glyph d="M606 372q0 -13 -1.5 -26.5t-3.5 -27.5l-10 -58q-5 -24 -25 -24h-321q-2 -11 -3 -21.5t-1 -19.5q0 -39 20.5 -54.5t68.5 -15.5q24 0 51.5 1t54 2t50 3t38.5 3h3q16 0 16 -13v-3l-14 -76q-2 -12 -6.5 -18t-18.5 -9q-50 -12 -97.5 -18t-112.5 -6q-40 0 -78 12t-67.5 36.5 t-47 62.5t-17.5 90q0 13 1.5 27t3.5 29l12 70q23 131 99 197t200 66q51 0 89.5 -16t64.5 -44.5t39 -66.5t13 -82zM455 380q0 35 -18 53t-60 18q-51 0 -77.5 -31.5t-37.5 -83.5h188q2 12 3.5 23t1.5 21zM606 639q0 -9 -10 -9h-98q-10 0 -13.5 2.5t-8.5 9.5l-50 70l-77 -70 q-8 -7 -12 -9.5t-14 -2.5h-108q-8 0 -8 6q0 5 6 11l110 117q8 8 13 11.5t16 3.5h160q11 0 15.5 -3t9.5 -12l67 -117q2 -3 2 -8z" unicode="ê" horiz-adv-x="590" glyph-name="ecircumflex"/>
<glyph d="M606 372q0 -13 -1.5 -26.5t-3.5 -27.5l-10 -58q-5 -24 -25 -24h-321q-2 -11 -3 -21.5t-1 -19.5q0 -39 20.5 -54.5t68.5 -15.5q24 0 51.5 1t54 2t50 3t38.5 3h3q16 0 16 -13v-3l-14 -76q-2 -12 -6.5 -18t-18.5 -9q-50 -12 -97.5 -18t-112.5 -6q-40 0 -78 12t-67.5 36.5 t-47 62.5t-17.5 90q0 13 1.5 27t3.5 29l12 70q23 131 99 197t200 66q51 0 89.5 -16t64.5 -44.5t39 -66.5t13 -82zM455 380q0 35 -18 53t-60 18q-51 0 -77.5 -31.5t-37.5 -83.5h188q2 12 3.5 23t1.5 21zM602 751l-16 -93q-2 -8 -10 -14t-16 -6h-94q-17 0 -17 17v3l16 93 q2 8 9.5 14t15.5 6h94q8 0 13 -4.5t5 -12.5v-3zM385 751l-16 -93q-2 -8 -9.5 -14t-15.5 -6h-94q-8 0 -13 4.5t-5 12.5v3l16 93q2 8 10 14t16 6h94q17 0 17 -17v-3z" unicode="ë" horiz-adv-x="590" glyph-name="edieresis"/>
<glyph d="M324 553l-94 -533q-2 -8 -9 -14t-15 -6h-122q-16 0 -16 16v4l94 533q2 8 8.5 14t14.5 6h122q17 0 17 -17v-3zM341 639q0 -9 -11 -9h-99q-10 0 -13.5 3t-8.5 9l-100 122q-3 5 -3 7q0 8 12 8h124q11 0 15.5 -3.5t9.5 -11.5l71 -117q3 -4 3 -8z" unicode="ì" horiz-adv-x="290" glyph-name="igrave"/>
<glyph d="M324 553l-94 -533q-2 -8 -9 -14t-15 -6h-122q-16 0 -16 16v4l94 533q2 8 8.5 14t14.5 6h122q17 0 17 -17v-3zM471 773q0 -4 -6 -9l-144 -122q-7 -6 -11.5 -9t-14.5 -3h-117q-8 0 -8 6q0 5 6 11l114 117q8 8 13 11.5t16 3.5h141q11 0 11 -6z" unicode="í" horiz-adv-x="290" glyph-name="iacute"/>
<glyph d="M324 553l-94 -533q-2 -8 -9 -14t-15 -6h-122q-16 0 -16 16v4l94 533q2 8 8.5 14t14.5 6h122q17 0 17 -17v-3zM457 639q0 -9 -10 -9h-98q-10 0 -13.5 2.5t-8.5 9.5l-50 70l-77 -70q-8 -7 -12 -9.5t-14 -2.5h-108q-8 0 -8 6q0 5 6 11l110 117q8 8 13 11.5t16 3.5h160 q11 0 15.5 -3t9.5 -12l67 -117q2 -3 2 -8z" unicode="î" horiz-adv-x="290" glyph-name="icircumflex"/>
<glyph d="M324 553l-94 -533q-2 -8 -9 -14t-15 -6h-122q-16 0 -16 16v4l94 533q2 8 8.5 14t14.5 6h122q17 0 17 -17v-3zM454 751l-16 -93q-2 -8 -10 -14t-16 -6h-94q-17 0 -17 17v3l16 93q2 8 9.5 14t15.5 6h94q8 0 13 -4.5t5 -12.5v-3zM237 751l-16 -93q-2 -8 -9.5 -14t-15.5 -6 h-94q-8 0 -13 4.5t-5 12.5v3l16 93q2 8 10 14t16 6h94q17 0 17 -17v-3z" unicode="ï" horiz-adv-x="290" glyph-name="idieresis"/>
<glyph d="M604 404q0 -55 -10 -114l-5 -31q-22 -140 -94.5 -204t-202.5 -64q-51 0 -90 15t-65.5 42.5t-40 66t-13.5 85.5q0 14 1.5 28.5t3.5 30.5l5 31q8 51 28 99t54 85.5t82 60t112 22.5q18 0 36.5 -3t38.5 -8q-23 32 -48.5 51.5t-51.5 33.5l-83 -56q-5 -3 -8.5 -5t-6.5 -2 q-5 0 -9 7l-21 30q-3 5 -3 8q0 6 14 16l46 31q-11 4 -23 8t-23 7q-13 3 -13 12q0 5 2 8l37 68q6 11 15 11q5 0 8 -1q30 -8 57 -17t53 -20l89 60q5 4 14 4q7 0 11 -5l22 -29q2 -2 2 -6q0 -5 -3.5 -9t-8.5 -7l-60 -41q78 -47 115 -119.5t37 -179.5zM437 346q0 42 -16 59 t-54 17q-46 0 -73 -29t-39 -103l-5 -31q-6 -34 -6 -58q0 -41 17 -57.5t55 -16.5q23 0 41 6.5t31.5 21.5t23 40.5t15.5 63.5l5 31q3 17 4 30.5t1 25.5z" unicode="ð" horiz-adv-x="590" glyph-name="eth"/>
<glyph d="M620 415q0 -28 -6 -61l-58 -333q-2 -8 -9.5 -14.5t-15.5 -6.5h-121q-8 0 -12 5t-4 12v4l58 333q5 28 5 44q0 28 -15.5 38.5t-38.5 10.5q-29 0 -60 -11t-48 -21l-69 -394q-2 -8 -9 -14.5t-15 -6.5h-121q-8 0 -12.5 5t-4.5 13v3l94 532q2 8 8.5 14t14.5 6h109q17 0 17 -17 v-3l-4 -24q34 26 75 39t81 13q32 0 61.5 -9.5t51.5 -29.5t35 -51.5t13 -75.5zM638 766l-3 -20q-10 -68 -43.5 -95t-93.5 -27q-15 0 -37.5 6.5t-36.5 17.5l-37 29q-22 18 -37 18q-10 0 -17 -4.5t-11 -22.5l-4 -19q-3 -17 -18 -17h-71q-13 0 -13 12q0 1 0.5 2t0.5 3l4 19 q14 65 46 93t93 28q15 0 36 -6t35 -17l38 -28q11 -8 20 -13t17 -5q11 0 18 4t10 23l3 19q3 16 19 16h70q12 0 12 -11v-5z" unicode="ñ" horiz-adv-x="612" glyph-name="ntilde"/>
<glyph d="M608 379q0 -14 -2 -31.5t-4 -26.5l-13 -70q-24 -127 -93.5 -193.5t-202.5 -66.5q-51 0 -90 15.5t-66 42.5t-40.5 64.5t-13.5 81.5q0 14 1 28t4 28l13 70q26 136 99 198t197 62q102 0 156.5 -55t54.5 -147zM446 367q0 76 -73 76q-44 0 -71.5 -28t-39.5 -94l-13 -70 q-2 -14 -3.5 -25.5t-1.5 -22.5q0 -39 18 -57t56 -18q49 0 74 31t36 92l13 70q5 28 5 46zM495 639q0 -9 -11 -9h-99q-10 0 -13.5 3t-8.5 9l-100 122q-3 5 -3 7q0 8 12 8h124q11 0 15.5 -3.5t9.5 -11.5l71 -117q3 -4 3 -8z" unicode="ò" horiz-adv-x="590" glyph-name="ograve"/>
<glyph d="M608 379q0 -14 -2 -31.5t-4 -26.5l-13 -70q-24 -127 -93.5 -193.5t-202.5 -66.5q-51 0 -90 15.5t-66 42.5t-40.5 64.5t-13.5 81.5q0 14 1 28t4 28l13 70q26 136 99 198t197 62q102 0 156.5 -55t54.5 -147zM446 367q0 76 -73 76q-44 0 -71.5 -28t-39.5 -94l-13 -70 q-2 -14 -3.5 -25.5t-1.5 -22.5q0 -39 18 -57t56 -18q49 0 74 31t36 92l13 70q5 28 5 46zM607 773q0 -4 -6 -9l-144 -122q-7 -6 -11.5 -9t-14.5 -3h-117q-8 0 -8 6q0 5 6 11l114 117q8 8 13 11.5t16 3.5h141q11 0 11 -6z" unicode="ó" horiz-adv-x="590" glyph-name="oacute"/>
<glyph d="M608 379q0 -14 -2 -31.5t-4 -26.5l-13 -70q-24 -127 -93.5 -193.5t-202.5 -66.5q-51 0 -90 15.5t-66 42.5t-40.5 64.5t-13.5 81.5q0 14 1 28t4 28l13 70q26 136 99 198t197 62q102 0 156.5 -55t54.5 -147zM446 367q0 76 -73 76q-44 0 -71.5 -28t-39.5 -94l-13 -70 q-2 -14 -3.5 -25.5t-1.5 -22.5q0 -39 18 -57t56 -18q49 0 74 31t36 92l13 70q5 28 5 46zM606 639q0 -9 -10 -9h-98q-10 0 -13.5 2.5t-8.5 9.5l-50 70l-77 -70q-8 -7 -12 -9.5t-14 -2.5h-108q-8 0 -8 6q0 5 6 11l110 117q8 8 13 11.5t16 3.5h160q11 0 15.5 -3t9.5 -12 l67 -117q2 -3 2 -8z" unicode="ô" horiz-adv-x="590" glyph-name="ocircumflex"/>
<glyph d="M608 379q0 -14 -2 -31.5t-4 -26.5l-13 -70q-24 -127 -93.5 -193.5t-202.5 -66.5q-51 0 -90 15.5t-66 42.5t-40.5 64.5t-13.5 81.5q0 14 1 28t4 28l13 70q26 136 99 198t197 62q102 0 156.5 -55t54.5 -147zM446 367q0 76 -73 76q-44 0 -71.5 -28t-39.5 -94l-13 -70 q-2 -14 -3.5 -25.5t-1.5 -22.5q0 -39 18 -57t56 -18q49 0 74 31t36 92l13 70q5 28 5 46zM628 766l-3 -20q-10 -68 -43.5 -95t-93.5 -27q-15 0 -37.5 6.5t-36.5 17.5l-37 29q-22 18 -37 18q-10 0 -17 -4.5t-11 -22.5l-4 -19q-3 -17 -18 -17h-71q-13 0 -13 12q0 1 0.5 2t0.5 3 l4 19q14 65 46 93t93 28q15 0 36 -6t35 -17l38 -28q11 -8 20 -13t17 -5q11 0 18 4t10 23l3 19q3 16 19 16h70q12 0 12 -11v-5z" unicode="õ" horiz-adv-x="590" glyph-name="otilde"/>
<glyph d="M608 379q0 -14 -2 -31.5t-4 -26.5l-13 -70q-24 -127 -93.5 -193.5t-202.5 -66.5q-51 0 -90 15.5t-66 42.5t-40.5 64.5t-13.5 81.5q0 14 1 28t4 28l13 70q26 136 99 198t197 62q102 0 156.5 -55t54.5 -147zM446 367q0 76 -73 76q-44 0 -71.5 -28t-39.5 -94l-13 -70 q-2 -14 -3.5 -25.5t-1.5 -22.5q0 -39 18 -57t56 -18q49 0 74 31t36 92l13 70q5 28 5 46zM602 751l-16 -93q-2 -8 -10 -14t-16 -6h-94q-17 0 -17 17v3l16 93q2 8 9.5 14t15.5 6h94q8 0 13 -4.5t5 -12.5v-3zM385 751l-16 -93q-2 -8 -9.5 -14t-15.5 -6h-94q-8 0 -13 4.5 t-5 12.5v3l16 93q2 8 10 14t16 6h94q17 0 17 -17v-3z" unicode="ö" horiz-adv-x="590" glyph-name="odieresis"/>
<glyph unicode="÷" d="M469 552q0 -8 -6 -14t-14 -6h-118q-8 0 -14 6t-6 14v112q0 8 6 14t14 6h118q8 0 14 -6t6 -14v-112v0zM620 346q0 -8 -6 -12t-14 -4h-419q-8 0 -14 4t-6 12v90q0 8 6 12t14 4h419q8 0 14 -4t6 -12v-90v0zM469 104q0 -8 -6 -13.5t-14 -5.5h-118q-8 0 -14 5.5t-6 13.5v112 q0 8 6 14t14 6h118q8 0 14 -6t6 -14v-112v0z" glyph-name="divide"/>
<glyph d="M673 600q0 -7 -6 -13l-87 -95q28 -46 28 -113q0 -28 -6 -58l-13 -70q-24 -127 -93.5 -193.5t-202.5 -66.5q-42 0 -75.5 10.5t-59.5 29.5l-51 -56q-6 -7 -9.5 -8.5t-8.5 -1.5h-66q-7 0 -7 6q0 7 6 13l90 98q-29 49 -29 113q0 14 1 28t4 28l13 70q26 136 99 198t197 62 q84 0 136 -38l49 53q6 7 9.5 8.5t8.5 1.5h66q7 0 7 -6zM426 426q-17 17 -53 17q-44 0 -71.5 -28t-39.5 -94l-13 -70q-1 -6 -1.5 -12t-1.5 -11l180 198v0zM263 145q17 -17 55 -17q49 0 74 31t36 92l13 70l2 12t2 11z" unicode="ø" horiz-adv-x="590" glyph-name="oslash"/>
<glyph d="M649 552l-94 -532q-2 -8 -8.5 -14t-14.5 -6h-112q-17 0 -17 16v4l5 24q-35 -23 -71 -38t-88 -15q-75 0 -115.5 44t-40.5 123q0 28 6 61l58 333q2 8 9.5 14.5t15.5 6.5h121q8 0 12 -5t4 -12v-4l-58 -333q-5 -28 -5 -46q0 -26 13.5 -37t48.5 -11q8 0 20 2.5t26 7t28 10.5 t26 13l69 394q2 8 9 14.5t15 6.5h121q8 0 12.5 -5t4.5 -13v-3zM506 639q0 -9 -11 -9h-99q-10 0 -13.5 3t-8.5 9l-100 122q-3 5 -3 7q0 8 12 8h124q11 0 15.5 -3.5t9.5 -11.5l71 -117q3 -4 3 -8z" unicode="ù" horiz-adv-x="612" glyph-name="ugrave"/>
<glyph d="M649 552l-94 -532q-2 -8 -8.5 -14t-14.5 -6h-112q-17 0 -17 16v4l5 24q-35 -23 -71 -38t-88 -15q-75 0 -115.5 44t-40.5 123q0 28 6 61l58 333q2 8 9.5 14.5t15.5 6.5h121q8 0 12 -5t4 -12v-4l-58 -333q-5 -28 -5 -46q0 -26 13.5 -37t48.5 -11q8 0 20 2.5t26 7t28 10.5 t26 13l69 394q2 8 9 14.5t15 6.5h121q8 0 12.5 -5t4.5 -13v-3zM631 773q0 -4 -6 -9l-144 -122q-7 -6 -11.5 -9t-14.5 -3h-117q-8 0 -8 6q0 5 6 11l114 117q8 8 13 11.5t16 3.5h141q11 0 11 -6z" unicode="ú" horiz-adv-x="612" glyph-name="uacute"/>
<glyph d="M649 552l-94 -532q-2 -8 -8.5 -14t-14.5 -6h-112q-17 0 -17 16v4l5 24q-35 -23 -71 -38t-88 -15q-75 0 -115.5 44t-40.5 123q0 28 6 61l58 333q2 8 9.5 14.5t15.5 6.5h121q8 0 12 -5t4 -12v-4l-58 -333q-5 -28 -5 -46q0 -26 13.5 -37t48.5 -11q8 0 20 2.5t26 7t28 10.5 t26 13l69 394q2 8 9 14.5t15 6.5h121q8 0 12.5 -5t4.5 -13v-3zM617 639q0 -9 -10 -9h-98q-10 0 -13.5 2.5t-8.5 9.5l-50 70l-77 -70q-8 -7 -12 -9.5t-14 -2.5h-108q-8 0 -8 6q0 5 6 11l110 117q8 8 13 11.5t16 3.5h160q11 0 15.5 -3t9.5 -12l67 -117q2 -3 2 -8z" unicode="û" horiz-adv-x="612" glyph-name="ucircumflex"/>
<glyph d="M649 552l-94 -532q-2 -8 -8.5 -14t-14.5 -6h-112q-17 0 -17 16v4l5 24q-35 -23 -71 -38t-88 -15q-75 0 -115.5 44t-40.5 123q0 28 6 61l58 333q2 8 9.5 14.5t15.5 6.5h121q8 0 12 -5t4 -12v-4l-58 -333q-5 -28 -5 -46q0 -26 13.5 -37t48.5 -11q8 0 20 2.5t26 7t28 10.5 t26 13l69 394q2 8 9 14.5t15 6.5h121q8 0 12.5 -5t4.5 -13v-3zM615 751l-16 -93q-2 -8 -10 -14t-16 -6h-94q-17 0 -17 17v3l16 93q2 8 9.5 14t15.5 6h94q8 0 13 -4.5t5 -12.5v-3zM398 751l-16 -93q-2 -8 -9.5 -14t-15.5 -6h-94q-8 0 -13 4.5t-5 12.5v3l16 93q2 8 10 14t16 6 h94q17 0 17 -17v-3z" unicode="ü" horiz-adv-x="612" glyph-name="udieresis"/>
<glyph d="M668 558q0 -2 -2 -8l-272 -589q-21 -44 -41 -75t-46.5 -50.5t-64 -28.5t-92.5 -9q-14 0 -31.5 1.5t-34.5 3.5t-32 5t-24 6q-8 2 -13 5.5t-5 9.5v3l15 81q2 8 8.5 13.5t14.5 5.5h2q12 -1 28 -2t33.5 -2.5t34 -2.5t28.5 -1q27 0 44 11t31 41l14 31h-5q-15 0 -29 3.5 t-25.5 13.5t-20 28.5t-11.5 47.5l-53 450v3q0 20 23 20h131q8 0 11.5 -5.5t4.5 -13.5l23 -382q1 -9 3 -11t7 -2h8l163 395q3 8 9.5 13.5t14.5 5.5h135q7 0 11.5 -4.5t4.5 -10.5zM631 773q0 -4 -6 -9l-144 -122q-7 -6 -11.5 -9t-14.5 -3h-117q-8 0 -8 6q0 5 6 11l114 117 q8 8 13 11.5t16 3.5h141q11 0 11 -6z" unicode="ý" horiz-adv-x="592" glyph-name="yacute"/>
<glyph d="M617 378q0 -13 -1.5 -27t-3.5 -28l-13 -74q-22 -128 -90.5 -193t-192.5 -65q-47 0 -94 10l-31 -176q-2 -8 -8.5 -14t-14.5 -6h-122q-17 0 -17 17v3l163 922q2 8 8 14t14 6h124q16 0 16 -16v-4l-30 -171q20 2 41 3.5t42 1.5q97 0 153.5 -54t56.5 -149zM455 375 q0 38 -16.5 55t-55.5 17q-25 0 -44 -1.5t-39 -3.5l-55 -312q42 -6 74 -6q27 0 46 6t33 20t23.5 38t15.5 61l13 74q3 15 4 28t1 24z" unicode="þ" horiz-adv-x="596" glyph-name="thorn"/>
</font>
</defs>
</svg>
